<svg width="29" height="28" viewBox="0 0 29 28" fill="none" xmlns="http://www.w3.org/2000/svg">
<g clip-path="url(#clip0_107_422)">
<path d="M11 8.16666C7.49998 8.16666 6.33331 11.6667 6.33331 14.5833C6.33331 18.0833 8.66665 23.3333 11 23.3333C12.2693 23.2797 12.9588 22.75 14.5 22.75C16.0306 22.75 16.25 23.3333 18 23.3333C19.75 23.3333 22.6666 19.8333 22.6666 17.5C22.634 17.4883 19.7826 17.0298 19.75 14C19.7278 11.4683 22.5686 10.5537 22.6666 10.5C21.4731 8.75932 19.2238 8.20982 18.5833 8.16666C16.9115 8.03716 15.2816 9.33332 14.5 9.33332C13.7066 9.33332 12.2833 8.16666 11 8.16666Z" stroke="#1E252C" stroke-width="2" stroke-linecap="round" stroke-linejoin="round"/>
<path d="M14.5 4.66668C15.1188 4.66668 15.7123 4.42084 16.1499 3.98326C16.5875 3.54567 16.8333 2.95218 16.8333 2.33334C16.2145 2.33334 15.621 2.57918 15.1834 3.01676C14.7458 3.45435 14.5 4.04784 14.5 4.66668Z" stroke="#1E252C" stroke-width="2" stroke-linecap="round" stroke-linejoin="round"/>
</g>
<defs>
<clipPath id="clip0_107_422">
<rect width="28" height="28" fill="white" transform="translate(0.5)"/>
</clipPath>
</defs>
</svg>
