<svg width="29" height="28" viewBox="0 0 29 28" fill="none" xmlns="http://www.w3.org/2000/svg">
<g clip-path="url(#clip0_107_366)">
<path d="M2.83331 14C3.45215 14 4.04564 13.7542 4.48323 13.3166C4.92081 12.879 5.16665 12.2855 5.16665 11.6667V6.99999C5.16665 6.38115 5.41248 5.78766 5.85006 5.35007C6.28765 4.91249 6.88114 4.66666 7.49998 4.66666H21.5C22.1188 4.66666 22.7123 4.91249 23.1499 5.35007C23.5875 5.78766 23.8333 6.38115 23.8333 6.99999V11.6667C23.8333 12.2855 24.0791 12.879 24.5167 13.3166C24.9543 13.7542 25.5478 14 26.1666 14" stroke="#1E252C" stroke-width="2" stroke-linecap="round" stroke-linejoin="round"/>
<path d="M2.83331 14C3.45215 14 4.04564 14.2458 4.48323 14.6834C4.92081 15.121 5.16665 15.7145 5.16665 16.3333V21C5.16665 21.6188 5.41248 22.2123 5.85006 22.6499C6.28765 23.0875 6.88114 23.3333 7.49998 23.3333H21.5C22.1188 23.3333 22.7123 23.0875 23.1499 22.6499C23.5875 22.2123 23.8333 21.6188 23.8333 21V16.3333C23.8333 15.7145 24.0791 15.121 24.5167 14.6834C24.9543 14.2458 25.5478 14 26.1666 14" stroke="#1E252C" stroke-width="2" stroke-linecap="round" stroke-linejoin="round"/>
<path d="M11 18.6667V9.33334H15.0833C15.7022 9.33334 16.2957 9.57918 16.7332 10.0168C17.1708 10.4543 17.4167 11.0478 17.4167 11.6667C17.4167 12.2855 17.1708 12.879 16.7332 13.3166C16.2957 13.7542 15.7022 14 15.0833 14H11H15.6667C16.2855 14 16.879 14.2458 17.3166 14.6834C17.7542 15.121 18 15.7145 18 16.3333C18 16.9522 17.7542 17.5457 17.3166 17.9833C16.879 18.4208 16.2855 18.6667 15.6667 18.6667H11Z" stroke="#1E252C" stroke-width="2" stroke-linecap="round" stroke-linejoin="round"/>
</g>
<defs>
<clipPath id="clip0_107_366">
<rect width="28" height="28" fill="white" transform="translate(0.5)"/>
</clipPath>
</defs>
</svg>
