<svg width="29" height="28" viewBox="0 0 29 28" fill="none" xmlns="http://www.w3.org/2000/svg">
<g clip-path="url(#clip0_108_438)">
<path d="M11 22.1667C5.98333 23.8 5.98333 19.25 4 18.6667M18 24.5V20.4167C18 19.25 18.1167 18.7833 17.4167 18.0833C20.6833 17.7333 23.8333 16.45 23.8333 11.0833C23.8319 9.68913 23.288 8.3502 22.3167 7.35C22.7722 6.13896 22.7303 4.7969 22.2 3.61667C22.2 3.61667 20.9167 3.26667 18.1167 5.13334C15.7451 4.51569 13.2549 4.51569 10.8833 5.13334C8.08333 3.26667 6.8 3.61667 6.8 3.61667C6.26973 4.7969 6.22779 6.13896 6.68333 7.35C5.71203 8.3502 5.16809 9.68913 5.16667 11.0833C5.16667 16.45 8.31667 17.7333 11.5833 18.0833C10.8833 18.7833 10.8833 19.4833 11 20.4167V24.5" stroke="#1E252C" stroke-width="2" stroke-linecap="round" stroke-linejoin="round"/>
</g>
<defs>
<clipPath id="clip0_108_438">
<rect width="28" height="28" fill="white" transform="translate(0.5)"/>
</clipPath>
</defs>
</svg>
