<svg width="200" height="200" viewBox="0 0 200 200" fill="none" xmlns="http://www.w3.org/2000/svg">
<path d="M132 111.83H131.94H132ZM48.5 141C48.88 141.06 50.96 141.16 50.96 140.8C50.96 140.59 50.58 140.6 50.58 140.6C50.63 139 52.66 138.6 54.11 139.44C54.5096 139.67 54.8791 139.949 55.21 140.27C53.16 140.38 50.44 141.78 50.62 143.81C50.7233 144.339 50.9453 144.838 51.2692 145.27C51.593 145.701 52.0104 146.053 52.49 146.3C53.0894 146.749 53.7721 147.073 54.4984 147.255C55.2246 147.437 55.9798 147.473 56.72 147.36C58.0382 147.024 59.198 146.239 60 145.14C61.8125 145.198 63.5859 144.605 65 143.47C65.0596 143.423 65.109 143.364 65.1452 143.297C65.1813 143.23 65.2033 143.156 65.21 143.08C65.21 142.73 65.21 142.75 63.21 140.53C63.1533 140.467 63.0824 140.418 63.0031 140.388C62.9237 140.358 62.8383 140.348 62.7541 140.357C62.6698 140.367 62.5891 140.397 62.5188 140.444C62.4485 140.492 62.3906 140.556 62.35 140.63C62.3155 140.674 62.2853 140.721 62.26 140.77C62.1011 141.068 61.8444 141.303 61.5329 141.434C61.2215 141.565 60.8743 141.585 60.55 141.49C59.55 141.2 58.26 138.55 55.91 136.97C53.86 135.59 51.11 135.18 49.17 136.82C48.335 137.537 47.7414 138.494 47.47 139.56C47.362 139.889 47.3834 140.246 47.53 140.56C47.7926 140.815 48.1354 140.97 48.5 141V141ZM52.26 144.71C51.9858 144.514 51.7955 144.222 51.7269 143.892C51.6583 143.562 51.7166 143.219 51.89 142.93C52.3334 142.317 52.9497 141.851 53.66 141.59C53.087 142.561 52.6177 143.59 52.26 144.66V144.71ZM61.68 143.13C61.92 142.41 61.68 142.66 62.08 142.48C62.383 142.329 62.6572 142.126 62.89 141.88L63.8 142.96C63.0464 143.438 62.2132 143.776 61.34 143.96C61.44 143.7 61.6 143.3 61.68 143.08V143.13ZM58.06 140.58C59.01 141.77 59.8 142.83 61.25 142.71C61.0431 143.141 60.8757 143.589 60.75 144.05C60.02 144.1 59.92 143.93 59.63 144.05C59.06 144.27 58.12 146.32 55.84 146.31C55.9819 145.993 56.073 145.655 56.11 145.31C56.7551 145.18 57.359 144.895 57.87 144.48C58.0889 144.29 58.2312 144.027 58.27 143.74C58.27 143.39 58.15 142.94 57.41 142.35C57.6856 141.766 57.9034 141.156 58.06 140.53V140.58ZM54.7 144.36C53.82 143.89 55.32 143.06 56.29 143.09C56.5128 143.092 56.7307 143.156 56.9183 143.277C57.1059 143.397 57.2555 143.568 57.35 143.77C57.2164 143.985 57.0403 144.171 56.8324 144.315C56.6246 144.46 56.3894 144.561 56.1413 144.611C55.8932 144.662 55.6374 144.661 55.3896 144.609C55.1417 144.558 54.9071 144.456 54.7 144.31V144.36ZM55.88 138.24C56.559 138.817 57.1757 139.464 57.72 140.17C57.4035 140.747 57.1616 141.362 57 142C56.5797 141.879 56.1392 141.846 55.7057 141.903C55.2722 141.96 54.855 142.105 54.48 142.33C52.65 143.33 53.08 145.52 55.62 145.27C55.4707 145.558 55.3597 145.864 55.29 146.18C54.2759 145.978 53.3276 145.528 52.53 144.87C53.2389 143.769 53.7908 142.574 54.17 141.32C54.5587 141.141 54.9793 141.042 55.4069 141.029C55.8345 141.015 56.2605 141.087 56.66 141.24L56.87 140.45L56.65 140.35C56.18 140.03 55.97 139.78 55.43 139.35C55.6304 138.985 55.7817 138.595 55.88 138.19V138.24ZM52 136.64C53.2514 136.663 54.4631 137.083 55.46 137.84C55.2809 138.248 55.1468 138.673 55.06 139.11C54.5806 138.734 54.0152 138.483 53.4146 138.38C52.814 138.277 52.1973 138.325 51.62 138.52C51.831 137.913 51.9588 137.281 52 136.64V136.64ZM49.71 137.42C50.2643 136.989 50.9305 136.725 51.63 136.66C51.3197 137.332 51.1269 138.053 51.06 138.79C50.762 138.969 50.5182 139.225 50.3544 139.531C50.1906 139.838 50.113 140.183 50.13 140.53C49.4293 140.569 48.7282 140.463 48.07 140.22C48.2187 139.109 48.8011 138.103 49.69 137.42H49.71ZM34.77 135.75C32.97 134.97 28.97 137.28 28.24 138.52C28.1344 138.794 28.1344 139.097 28.24 139.37C28.87 141.76 34.75 150.2 35.84 151.51C36.03 151.75 36.29 151.42 36.12 151.14C35.6 150.28 35.66 152.01 38.32 143.4C38.5664 143.304 38.7959 143.168 39 143C39.0927 142.897 39.1441 142.764 39.1441 142.625C39.1441 142.486 39.0927 142.353 39 142.25C38.9092 142.138 38.8051 142.037 38.69 141.95L39.32 139.62L41.82 141C41.3144 142.264 40.9456 143.578 40.72 144.92C39.7117 145.284 38.7669 145.803 37.92 146.46C37.33 147.11 38.26 148.31 38.84 149.03C39.42 149.75 39.91 150.24 40.02 150.35C40.13 150.46 40.48 150.35 40.45 150.17C40.3865 150.025 40.3022 149.891 40.2 149.77C39.6581 148.927 39.1929 148.036 38.81 147.11C39.5872 146.645 40.4077 146.257 41.26 145.95C41.57 145.84 42.53 145.54 42.79 145.7C44.0729 146.376 45.4111 146.941 46.79 147.39C46.8457 147.417 46.9096 147.42 46.9677 147.399C47.0259 147.379 47.0734 147.336 47.1 147.28C47.1265 147.224 47.1298 147.16 47.1092 147.102C47.0885 147.044 47.0457 146.997 46.99 146.97L45.26 145.92C45.6283 145.085 45.8644 144.198 45.96 143.29L50.23 145.6C50.49 145.75 50.69 145.34 50.5 145.23C50.31 145.12 37.35 136.88 34.77 135.75V135.75ZM33.25 136.81C33.5989 136.705 33.971 136.705 34.32 136.81C34.55 136.91 35.11 137.21 35.87 137.63C35.6136 138.338 35.4391 139.073 35.35 139.82C34.68 139.44 34.28 139.15 33.75 139.24C33.4611 139.305 33.1908 139.435 32.96 139.62C33.06 138.84 33.15 138.24 33.25 136.81V136.81ZM29.25 139.01C30.2871 138.021 31.5453 137.294 32.92 136.89C32.3863 139.249 32.0121 141.641 31.8 144.05C30.7916 142.453 29.9409 140.762 29.26 139L29.25 139.01ZM33.79 147.42C33.24 146.51 32.64 145.5 32.07 144.51C32.41 143.08 32.52 142.42 32.73 141.07C33.2771 142.019 33.9097 142.916 34.62 143.75C34.2168 144.941 33.9419 146.171 33.8 147.42H33.79ZM35.54 150.3C35.18 149.73 34.72 148.96 34.12 147.97C34.4996 146.715 34.7509 145.425 34.87 144.12C35.09 144.65 37.05 143.89 37.58 143.69C37.19 144.92 35.83 149.2 35.55 150.3H35.54ZM35.24 143.81C34.6202 142.738 34.0724 141.625 33.6 140.48L33.91 140.31C34.05 140.39 37.47 142.41 37.72 142.57C36.9406 143.066 36.113 143.481 35.25 143.81H35.24ZM38.24 141.61C37.49 141.11 36.47 140.5 35.69 140.05C35.9568 139.342 36.1316 138.603 36.21 137.85L39.05 139.45C39 139.83 38.66 140.61 38.3 141.61H38.24ZM44.86 145.61L43.32 144.68C42.6357 144.41 41.8743 144.41 41.19 144.68C41.5775 143.511 41.8587 142.31 42.03 141.09L45.65 143.09C45.2801 143.906 45.0341 144.772 44.92 145.66L44.86 145.61Z" fill="#1E252C"/>
<path d="M194.35 149.17C192.73 134.09 178.77 110.9 170.43 98.23C175.087 98.6025 179.76 98.7194 184.43 98.58C185.76 98.58 189.24 98.34 189.91 98.21C190.3 98.13 190.36 97.76 189.77 97.74C189.18 97.72 184.98 97.52 184.41 97.51H174.24C172.68 97.57 170.24 97.71 170.1 97.71C167.1 93.14 165.01 90.28 164.99 90.27C164.967 90.2467 164.939 90.2286 164.909 90.2169C164.878 90.2051 164.845 90.2001 164.813 90.202C164.78 90.2039 164.748 90.2128 164.719 90.228C164.69 90.2433 164.665 90.2645 164.645 90.2904C164.625 90.3162 164.61 90.3461 164.603 90.3779C164.595 90.4097 164.594 90.4428 164.6 90.475C164.607 90.5071 164.62 90.5376 164.638 90.5643C164.657 90.5911 164.682 90.6134 164.71 90.63C165.17 91 185.38 120.53 191.56 140.87C194.01 148.94 195.46 159.07 187.56 161.87C168.8 168.57 21.87 170.75 7.97997 162.87C6.04997 161.78 5.59997 159.51 5.97997 156.45C6.56997 152.2 8.85997 146.45 11.62 140.01C14.73 143.01 40.53 166.7 44.71 165.81C48.89 164.92 72.4 154 73.37 151.91C73.9335 150.458 74.2315 148.917 74.25 147.36C74.3684 147.197 74.4235 146.997 74.4051 146.796C74.3867 146.596 74.296 146.409 74.15 146.27C72.6 144.73 41.85 120.35 39.87 120.42C38.49 120.48 35.99 121.9 34.8 122.6C34.4141 121.969 33.8397 121.475 33.1578 121.188C32.476 120.9 31.7211 120.835 31 121C30.32 121.275 29.7112 121.7 29.2193 122.244C28.7273 122.788 28.3652 123.436 28.16 124.14C28.1712 124.194 28.2007 124.243 28.2435 124.277C28.2863 124.312 28.3398 124.331 28.395 124.331C28.4502 124.331 28.5037 124.312 28.5465 124.277C28.5893 124.243 28.6188 124.194 28.63 124.14C29.2314 123.123 30.1849 122.361 31.31 122C31.7777 121.928 32.2563 121.991 32.69 122.18C33.1237 122.369 33.4947 122.678 33.76 123.07L22.64 127.82C22.0495 127.213 21.3124 126.769 20.5 126.53C18.6 126.03 17.32 127.28 16.56 129.11C16.5432 129.163 16.5452 129.219 16.5654 129.271C16.5857 129.322 16.6231 129.365 16.6713 129.392C16.7194 129.419 16.7755 129.429 16.8299 129.419C16.8843 129.41 16.9338 129.382 16.97 129.34C18.25 127.49 19.73 126.86 21.5 128.34C19.36 129.29 16.37 130.64 14.27 131.68C14.42 131.44 36 92.36 36 92.26C36.95 90.5 38.86 87.35 40.83 86.94C41.7204 86.7459 42.6287 86.6453 43.54 86.64C42.15 88.94 30.87 107.64 30.85 110.28C30.85 113.28 31.37 112.81 32.97 113.28C34.57 113.75 124.1 113.2 124.26 113.2C125.81 113.2 131.87 113 132.43 112.59C134.17 111.31 133.78 109.4 133.02 107.39C132.84 106.91 131.93 104.92 130.71 102.26C135.96 100.68 139.91 102.69 140.27 111.26C140.63 118.67 137.71 120.93 132.12 120.61C127.63 120.35 124.53 119.03 123.55 120.78C122.45 122.73 125.49 127.11 126.81 128.93C126.62 128.93 118.25 128.76 116.14 128.67C113.167 128.555 110.189 128.592 107.22 128.78C105.175 128.825 103.142 129.103 101.16 129.61C100.41 129.98 99.44 131.91 99.03 132.72C98.22 134.31 94.53 144.29 93.51 147.17C92.91 148.83 90.88 154.33 92.24 155.3C92.19 156.37 92.36 157.8 93.3 158.3C94.24 158.8 107.16 159.16 108.15 159.18C109.9 159.23 127.59 159.46 138.88 158.96C150.17 158.46 155.1 157.38 154.81 157.41C155.097 157.326 155.354 157.163 155.554 156.94C155.753 156.718 155.887 156.444 155.94 156.15C156.094 155.411 156.046 154.644 155.8 153.93C157.06 151.48 147.53 131.14 144.89 129.71C144.734 129.622 144.559 129.574 144.38 129.57C143.85 129.57 131.99 129.07 127.38 128.92C126.38 127.51 123.13 122.2 124.38 121.07C126.28 119.41 142.15 127.73 141.3 111.17C140.86 103.68 137.41 99.29 130.41 101.83C129.8 100.51 124.68 89.57 123.31 86.66C128.617 86.9776 133.942 86.8605 139.23 86.31C139.306 87.2433 139.574 88.1507 140.018 88.9752C140.462 89.7996 141.072 90.523 141.81 91.1C145.81 94.1 161.73 93.65 164.62 89.98C165.43 88.8725 165.99 87.6024 166.261 86.2575C166.532 84.9125 166.508 83.5247 166.19 82.19C166.456 82.0207 166.662 81.7725 166.78 81.48C166.94 81.17 166.78 80.78 166.09 80.64C165.2 80.5067 164.3 80.4531 163.4 80.48C163.4 79.66 163.45 78.13 163.4 76.39C163.49 76.33 164.14 75.55 164.21 75.46C165.007 74.5287 165.636 73.4663 166.07 72.32C166.4 71.39 166.53 70.32 165.66 69.8C164.32 69.07 163.38 70.41 162.93 71.91C162.51 69.6 161.54 66.21 159.22 66.55C155.28 67.15 158 76.7 159.28 80.48C158.156 80.3217 157.014 80.3217 155.89 80.48C157.14 77.34 157.78 73.28 154.57 72.67C154.083 72.5624 153.576 72.5998 153.11 72.7775C152.645 72.9552 152.241 73.2655 151.95 73.67C151.886 73.4437 151.765 73.2374 151.599 73.0704C151.434 72.9034 151.228 72.7812 151.002 72.7152C150.777 72.6493 150.538 72.6417 150.308 72.6933C150.079 72.7448 149.866 72.8538 149.69 73.01C148.22 74.07 149.06 76.5 150.77 77.3C150.68 78.328 150.68 79.362 150.77 80.39C149.705 80.2614 148.628 80.285 147.57 80.46C147.511 78.0183 147.243 75.5862 146.77 73.19C147.378 72.7577 147.889 72.2037 148.271 71.5633C148.653 70.9229 148.898 70.2101 148.99 69.47C149.13 68.14 148.66 67.03 147.55 66.74C146.16 66.38 145.34 67.35 145.1 68.74C143.87 67.04 141.46 66.43 140.29 68.38C136.54 64.48 134.73 66.66 135.68 68.38C136.39 69.7 138.24 70.44 139.68 70.85C139.68 73.09 140.68 74.98 141.92 76.91C142.75 78.21 143.68 79.46 144.4 80.38C142.844 80.33 141.287 80.4305 139.75 80.68C138.81 80.93 138.66 81.61 139.53 82.1C139.255 83.2722 139.154 84.4784 139.23 85.68C133.858 85.3942 128.472 85.5212 123.12 86.06C122.78 85.33 121.77 83.2 121.65 82.95C121.53 82.7 122.49 79.8 123.84 52.84C130.04 52.32 157.92 52.94 160.48 51.95C160.627 51.8973 160.757 51.8066 160.857 51.6871C160.957 51.5676 161.024 51.4237 161.05 51.27C161.9 48.48 162.48 24.5 161.05 22.27C160.7 21.72 159.45 21.55 158.76 21.45C149.85 20.15 112.67 20.71 110.76 21.72C108.85 22.73 109.66 32.59 110.02 34.55C90.71 33.93 46.12 35.14 41.92 36.71C40.92 37.07 40.55 38.44 40.35 39.47C38.69 48.04 43.35 75.62 44.91 84.14C44.81 84.14 44.91 84.14 43.69 86.04C42.6573 85.9635 41.6192 86.0172 40.6 86.2C38.32 86.55 36.22 89.7 35.06 91.66C35.01 91.76 32.06 96.66 31.62 97.46C29.11 97.07 17.44 97.22 15.96 97.3C14.48 97.38 12.96 97.49 11.62 97.59C11.38 97.59 11.36 98.05 11.62 98.06C14.42 98.23 15.45 98.29 17.62 98.32C22.93 98.4 30.76 98.62 31.01 98.59C30.49 99.5 22.79 113.2 21.76 115.14C17.28 123.54 13.76 131.23 13.55 131.88C12.3875 132.409 11.2957 133.08 10.3 133.88C9.97879 134.761 9.7868 135.684 9.72997 136.62C9.67997 138.23 10.26 138.62 11.15 139.52C8.76187 144.637 6.79859 149.941 5.27997 155.38C4.7842 157.58 4.76374 159.861 5.21997 162.07C5.62828 164.278 6.39149 166.406 7.47997 168.37C7.96891 168.867 8.60252 169.196 9.28997 169.31C11.92 170.05 20.07 171 22.8 171.31C22.5942 172.532 22.5371 173.774 22.63 175.01C22.6327 176.283 22.8179 177.549 23.18 178.77C23.1833 178.8 23.1925 178.829 23.207 178.856C23.2216 178.883 23.2413 178.906 23.265 178.925C23.2887 178.944 23.3159 178.959 23.3451 178.967C23.3742 178.976 23.4048 178.978 23.435 178.975C23.4652 178.972 23.4944 178.963 23.5211 178.948C23.5477 178.933 23.5712 178.914 23.5903 178.89C23.6093 178.866 23.6235 178.839 23.632 178.81C23.6406 178.781 23.6433 178.75 23.64 178.72C23.7999 177.473 23.8435 176.215 23.77 174.96C23.7634 173.752 23.6259 172.548 23.36 171.37C24.74 171.49 26.07 171.59 27.23 171.63C27.0455 172.797 26.9952 173.981 27.08 175.16C27.0834 176.433 27.2686 177.699 27.63 178.92C27.63 178.981 27.6542 179.04 27.6973 179.083C27.7405 179.126 27.799 179.15 27.86 179.15C27.921 179.15 27.9795 179.126 28.0226 179.083C28.0657 179.04 28.09 178.981 28.09 178.92C28.2553 177.674 28.3022 176.415 28.23 175.16C28.2231 173.992 28.089 172.829 27.83 171.69C30.06 171.74 62.88 174.69 119.56 173.57C134.75 173.27 153.01 172.57 168.05 170.92C167.851 172.126 167.794 173.351 167.88 174.57C167.885 175.84 168.073 177.104 168.44 178.32C168.433 178.354 168.433 178.388 168.441 178.421C168.449 178.455 168.465 178.486 168.486 178.512C168.508 178.539 168.535 178.561 168.566 178.575C168.597 178.59 168.631 178.598 168.665 178.598C168.699 178.598 168.733 178.59 168.764 178.575C168.795 178.561 168.822 178.539 168.844 178.512C168.865 178.486 168.881 178.455 168.889 178.421C168.897 178.388 168.897 178.354 168.89 178.32C169.065 177.075 169.112 175.815 169.03 174.56C169.019 173.325 168.875 172.094 168.6 170.89C169.71 170.77 172.28 170.45 172.5 170.42C172.303 171.619 172.249 172.838 172.34 174.05C172.341 175.323 172.526 176.59 172.89 177.81C172.897 177.871 172.927 177.927 172.975 177.965C173.023 178.004 173.084 178.022 173.145 178.015C173.206 178.008 173.262 177.978 173.3 177.93C173.339 177.882 173.357 177.821 173.35 177.76C173.515 176.517 173.558 175.261 173.48 174.01C173.474 172.778 173.329 171.55 173.05 170.35C177.56 169.74 191.35 167.88 193.23 164.03C195.45 159.64 195.27 153.93 194.35 149.17V149.17ZM103.35 133.07C103.46 132.8 106.81 132.07 110.47 133.07C110.503 133.063 110.538 133.063 110.571 133.071C110.605 133.079 110.636 133.095 110.662 133.116C110.689 133.138 110.711 133.165 110.725 133.196C110.74 133.227 110.748 133.261 110.748 133.295C110.748 133.329 110.74 133.363 110.725 133.394C110.711 133.425 110.689 133.452 110.662 133.474C110.636 133.495 110.605 133.511 110.571 133.519C110.538 133.527 110.503 133.527 110.47 133.52C108.647 133.844 106.787 133.891 104.95 133.66C104.09 133.52 103 133.51 103.32 133.07H103.35ZM154.76 156.85C145.51 158.61 94.41 158.21 93.64 157.85C92.87 157.49 92.8 156.33 92.78 155.57C98.32 157.37 152.45 155.98 155.46 154.39C155.62 155.27 155.66 156.68 154.73 156.85H154.76ZM135.35 133.18C135.35 132.84 137.55 132.65 137.65 132.64C138.958 132.539 140.272 132.539 141.58 132.64C142.31 132.72 143.32 132.82 143.24 133.13C143.16 133.44 141.65 133.57 141.39 133.61C140.413 133.7 139.431 133.74 138.45 133.73C137.79 133.71 135.28 133.59 135.32 133.18H135.35ZM148.2 136.51C150.702 141.277 152.802 146.244 154.48 151.36C154.693 152.006 154.811 152.68 154.83 153.36C150.32 154.76 98.34 156.2 93.08 154.69C92.83 154.62 92.76 154.69 92.7 154.27C92.32 151.55 96.77 140.74 97.8 138.22C116.72 137.59 148 136.62 148.17 136.51H148.2ZM139.78 70.4C138.686 69.7993 137.694 69.0298 136.84 68.12C136.45 67.53 136.54 67.12 137.69 67.68C138.41 68.01 139.42 68.6 140.1 69.01C139.925 69.455 139.817 69.9234 139.78 70.4ZM163.78 72.19C164.58 70.75 165.37 70.34 165.29 71.19C164.86 72.711 164.249 74.1749 163.47 75.55C163.41 74.55 163.34 73.88 163.26 73.22C163.3 73.08 163.5 72.66 163.75 72.19H163.78ZM159.53 80.89C159.73 81.46 159.86 81.8 159.87 81.82C159.881 81.8483 159.898 81.8742 159.919 81.8961C159.94 81.918 159.965 81.9355 159.993 81.9476C160.021 81.9597 160.051 81.9661 160.081 81.9665C160.112 81.9669 160.142 81.9613 160.17 81.95C160.61 81.78 159.96 81.37 158.92 75.34C158.61 73.54 157.69 67.99 159.51 67.73C160.99 67.51 161.79 71.18 162.07 72.63C162.589 75.425 162.923 78.2511 163.07 81.09C163.069 81.1454 163.089 81.1992 163.124 81.2415C163.16 81.2838 163.21 81.3117 163.265 81.3203C163.319 81.3288 163.375 81.3172 163.422 81.2878C163.469 81.2584 163.504 81.213 163.52 81.16C163.523 81.1034 163.523 81.0466 163.52 80.99C164.424 81.0166 165.323 81.1407 166.2 81.36C166.088 81.4904 165.948 81.593 165.79 81.66C163.69 82.74 157.34 82.53 155.15 82.49C155.45 81.89 155.66 81.43 155.89 80.88C157.085 81.0764 158.304 81.0798 159.5 80.89H159.53ZM151.73 78.7C151.96 76.7 152.47 73.51 154.49 73.89C156.51 74.27 156 77.2 155.56 79.16C155.289 80.2844 154.955 81.3928 154.56 82.48H151.56C151.536 81.2184 151.583 79.9564 151.7 78.7H151.73ZM150.46 74C150.506 73.9557 150.562 73.9216 150.622 73.8999C150.683 73.8783 150.747 73.8695 150.811 73.8742C150.875 73.879 150.937 73.897 150.994 73.9273C151.051 73.9576 151.1 73.9994 151.14 74.05C151.299 74.2095 151.443 74.3836 151.57 74.57C151.286 75.2077 151.088 75.8802 150.98 76.57C150.46 75.85 149.79 74.54 150.46 74ZM147.31 67.92C148.61 68.33 147.59 71.75 146.72 72.79C146.48 71.7137 146.121 70.6673 145.65 69.67C145.94 68.79 146.43 67.64 147.31 67.91V67.92ZM144.85 81C145.34 81.62 145.66 82 145.66 82C145.7 82.0392 145.752 82.0626 145.808 82.0659C145.864 82.0692 145.919 82.0521 145.963 82.0179C146.007 81.9836 146.037 81.9345 146.047 81.8797C146.058 81.8249 146.048 81.7681 146.02 81.72C146.02 81.72 144.25 79.2 142.79 76.59C141.69 74.59 140.64 72.59 140.93 70.38C141.16 68.64 142.08 67.9 143.63 68.91C145.87 70.35 146.89 79.23 147.21 81.91C147.213 81.9801 147.238 82.0476 147.281 82.1031C147.324 82.1586 147.383 82.1994 147.45 82.22C147.72 82.22 147.68 81.93 147.67 81.79C147.66 81.65 147.67 80.95 147.67 80.88C148.732 81.0144 149.808 81.0144 150.87 80.88C150.93 81.61 151 82.18 151.05 82.48C147.5 82.48 143.21 82.72 140.27 81.57C141.781 81.271 143.312 81.0805 144.85 81V81ZM140.06 82.47C141.523 83.0369 143.064 83.3742 144.63 83.47C146.4 83.63 158.45 83.65 159.82 83.58C161.886 83.5461 163.931 83.164 165.87 82.45C166.056 83.6779 165.986 84.9311 165.664 86.1306C165.342 87.3302 164.776 88.4501 164 89.42C161.57 92.27 146.2 92.92 142.51 90.32C140.08 88.65 139.64 85.31 140.06 82.46V82.47ZM132 111.83C132.21 112.5 36.86 112.53 36.76 112.52C32.76 112.52 33.76 112.52 32.42 112.19C32.06 112.11 31.99 112.11 31.92 111.76C31.8351 111.211 31.8117 110.654 31.85 110.1C31.8709 110.141 31.9048 110.174 31.9464 110.194C31.9879 110.214 32.0349 110.219 32.08 110.21C32.08 110.21 131.97 108.85 132.62 108.83C132.89 110 132.93 111.09 132 111.83ZM160.13 51.14C160.13 51.14 160.19 51.04 160.21 51.07C160.23 51.1 160.13 51.13 160.08 51.14H160.13ZM110.4 25.92C110.4 25.27 110.66 22.81 111.24 22.51C112.56 21.85 154.51 21.29 160.24 23.08C161.24 25.18 160.92 48.77 160.08 51.14C155.16 51.91 130.4 51.85 123.96 52.51C124.35 44.64 124.52 38.01 124.2 36.72C124.138 36.5518 124.038 36.4001 123.908 36.2769C123.778 36.1537 123.621 36.0624 123.45 36.01C121.26 35.06 113.02 34.79 110.62 34.71C110.309 31.7908 110.235 28.8511 110.4 25.92V25.92ZM41.25 51.1C41.1 49 40.36 38.4 42.36 37.66C43.36 37.31 46.88 36.96 51.99 36.66C61.78 36.05 77.21 35.56 91.25 35.46C94.37 35.46 120.73 35.23 123.31 37C124.07 40.46 121.64 78.9 121.1 82.61C97.47 83.38 69.47 84.54 45.64 83.96C45.24 81.67 42.18 64 41.25 51.1V51.1ZM45.33 84.63C45.3319 84.6067 45.3319 84.5833 45.33 84.56C62.18 85.08 114.91 83.35 121.33 83.31C122.04 84.96 132.01 107.08 132.43 108.31C132.32 108.31 32 109.67 31.87 109.77C33.13 105.55 43.55 87.71 45.33 84.63V84.63ZM72.82 151.63C72.08 153.07 49.66 163.09 45.05 164.48C45.1394 164.019 45.1729 163.549 45.15 163.08C51.96 160.72 66.74 154.49 73.37 150.08C73.2436 150.618 73.0592 151.141 72.82 151.64V151.63ZM73.51 149.42C71.51 150.6 69.6 151.42 45.14 162.54C45.1409 162.087 45.0804 161.636 44.96 161.2C48.16 159.7 69.86 151.29 73.73 147.94C73.68 148.37 73.61 148.89 73.51 149.43V149.42ZM22 128.9C22.4808 129.466 22.7784 130.166 22.8534 130.905C22.9284 131.644 22.7773 132.389 22.42 133.04C22.26 133.29 22.64 133.55 22.8 133.29C23.4037 132.632 23.7606 131.785 23.8098 130.893C23.859 130.002 23.5976 129.121 23.07 128.4C27.93 126.17 32.71 124.07 34.02 123.5C34.3477 124.166 34.5231 124.896 34.5335 125.638C34.5439 126.38 34.389 127.115 34.08 127.79C33.96 128.11 34.32 128.23 34.49 128.02C35.04 127.321 35.3823 126.482 35.4778 125.598C35.5732 124.713 35.4181 123.82 35.03 123.02C36.11 122.41 38.63 121.02 39.86 121.02C41.4 121.02 72.65 146.44 73.23 147.02C70.62 149.71 46.39 159.3 44.35 160.28C40.05 159.28 13.81 136.71 11.35 134.39C12.88 133.12 20.28 129.7 22 128.9V128.9ZM10.59 134.85C13.71 137.9 39.74 160.62 44.1 161.34C44.0125 161.717 43.9722 162.103 43.98 162.49C36.98 159.07 16.98 141.75 10.36 136.18C10.39 136.18 10.54 135.2 10.62 134.85H10.59ZM10.74 138.28C10.4579 137.851 10.318 137.343 10.34 136.83C16.88 143.43 35.34 159.66 43.97 163.04C43.9522 163.575 44.006 164.11 44.13 164.63C39 163.48 11.42 139.1 10.77 138.28H10.74ZM192.74 163.7C186.28 176.52 10.98 173.17 8.13997 168.17C6.93616 166.077 6.12293 163.783 5.73997 161.4C6.12574 162.245 6.7701 162.945 7.57997 163.4C22.3 171.97 168.75 169.73 187.87 162.86C191.92 161.4 193.96 158.25 194.42 153.86C194.691 157.231 194.107 160.616 192.72 163.7H192.74Z" fill="#1E252C"/>
<path d="M43 95.69C113.71 96.69 120.46 96.08 122.44 95.77C122.91 95.7 123.21 95.54 123.19 94.99C123.19 93.54 119.79 86.89 118.89 86.43C118.49 86.22 46.89 87.23 46.64 87.31C46.5934 87.3212 46.5497 87.3422 46.5118 87.3715C46.4739 87.4008 46.4426 87.4378 46.42 87.48C45.74 88.59 42.42 94.07 42.57 95.31C42.5862 95.4135 42.6381 95.5081 42.7166 95.5774C42.7951 95.6468 42.8953 95.6866 43 95.69V95.69ZM46.93 88C47.65 87.91 118.09 87.21 118.52 87.25C119.267 88.324 119.935 89.4502 120.52 90.62C118.88 90.62 45.58 91.01 45.2 91.02C45.64 90.14 46.22 89.14 46.93 88V88ZM44.93 91.5C45.32 91.5 119.49 91.12 120.76 91.09C121.418 92.3153 121.938 93.6099 122.31 94.95C118.75 95.52 86.31 95.24 43.36 94.95C43.7613 93.7388 44.2804 92.5699 44.91 91.46L44.93 91.5ZM98.19 99.09C97.9905 98.6485 97.6645 98.276 97.2534 98.0197C96.8422 97.7634 96.3643 97.6347 95.88 97.65C93.34 97.65 72.01 97.06 70.09 97.84C68.8643 99.3252 67.9158 101.019 67.29 102.84C67.23 103.28 67.45 103.48 67.72 103.51C73.72 104.16 93.61 104.78 98.77 103.83C99.41 103.71 99.49 103.03 99.36 102.38C99.0504 101.256 98.6594 100.157 98.19 99.09V99.09ZM68 102.84C68.5744 101.217 69.3541 99.6748 70.32 98.25C71.84 97.75 91.61 98.79 95.91 98.78C96.166 98.7708 96.4192 98.8358 96.6392 98.9671C96.8591 99.0983 97.0365 99.2903 97.15 99.52C97.6361 100.559 98.0147 101.644 98.28 102.76C93.21 103.55 71.68 103.1 68 102.84V102.84ZM167.64 100.37C166.23 98.43 159.16 98.52 156.79 98.59C154.79 98.59 147.52 98.92 147.52 100.88C147.528 101.039 147.574 101.193 147.654 101.331C147.734 101.468 147.846 101.584 147.98 101.67C148.17 101.82 146.86 115 148.66 122.07C149.25 124.41 150.01 125.57 152.24 126.54C156.52 128.4 163.62 127.99 166.47 124.02C167.04 122.86 166.92 119.48 166.97 118.45C171.4 119.33 175.03 117.53 175.97 112.76C176.56 109.69 175.8 107.68 174.49 106.46C173.615 105.747 172.58 105.257 171.475 105.031C170.369 104.804 169.225 104.849 168.14 105.16C168.102 105.173 168.062 105.176 168.022 105.17C167.983 105.164 167.945 105.149 167.913 105.125C167.881 105.102 167.854 105.071 167.836 105.035C167.819 104.999 167.809 104.96 167.81 104.92C167.81 104.39 168 100.8 167.64 100.37V100.37ZM148.64 100.58C151.34 99 162.34 98.88 165.89 100.49C166.01 100.55 166.46 100.78 166.46 100.88C166.46 100.98 166 101.22 165.89 101.27C163.21 102.48 153.64 103.03 148.61 101.19C148.26 101 148.61 100.62 148.61 100.58H148.64ZM168.42 106.18C169.329 105.918 170.288 105.88 171.214 106.07C172.141 106.26 173.007 106.672 173.74 107.27C174.82 108.27 175.36 109.99 174.86 112.54C174.761 113.426 174.453 114.277 173.963 115.022C173.473 115.768 172.814 116.387 172.04 116.83C170.4 117.568 168.553 117.71 166.82 117.23C166.735 117.199 166.644 117.186 166.554 117.192C166.463 117.197 166.375 117.222 166.294 117.263C166.214 117.304 166.142 117.362 166.085 117.432C166.027 117.502 165.985 117.583 165.96 117.67C165.69 118.43 166.07 121.5 165.52 123.44C162.99 126.87 156.52 127.18 152.69 125.57C150.75 124.74 150.21 123.88 149.69 121.81C148.35 116.9 148.27 106.9 148.57 101.98C151.72 103.47 162.63 103.9 166.92 101.7C166.92 104.8 166.54 105.32 167.32 105.95C167.471 106.064 167.645 106.143 167.83 106.183C168.014 106.223 168.206 106.222 168.39 106.18H168.42ZM71.28 127.37C68.6537 125.143 65.8285 123.161 62.84 121.45C61.6887 120.771 60.4642 120.224 59.19 119.82C58.12 119.54 57.67 120.09 57.89 120.82C58.3408 121.868 58.9366 122.848 59.66 123.73C61.9609 126.643 64.6069 129.265 67.54 131.54C72 135.27 77.78 139.79 82 143C82.215 143.157 82.4592 143.27 82.7183 143.331C82.9774 143.393 83.2462 143.402 83.5088 143.358C83.7715 143.314 84.0228 143.218 84.2479 143.076C84.4731 142.934 84.6676 142.748 84.82 142.53C85.56 141.72 86.02 140.3 85.19 139.53C84.23 138.67 78.36 133.14 71.28 127.37V127.37ZM61.7 125.15L60.33 122.94C60.8177 122.737 61.2302 122.388 61.51 121.94L63.68 122.82C63.1355 122.928 62.6435 123.217 62.284 123.64C61.9245 124.063 61.7187 124.595 61.7 125.15V125.15ZM64.77 127.7C64.0473 127.092 63.3782 126.423 62.77 125.7C62.84 124.49 63.22 123.95 64.43 123.91C65.2362 124.295 65.9974 124.768 66.7 125.32C66.1622 125.451 65.6823 125.755 65.3337 126.185C64.9851 126.614 64.7871 127.147 64.77 127.7V127.7ZM81.87 142.25C80.76 141.32 66 128.8 65.09 128C65.1663 127.44 65.4108 126.917 65.7912 126.499C66.1715 126.081 66.6698 125.788 67.22 125.66C70.67 128.22 75.63 132.46 84.28 139.66C83.9433 139.643 83.6069 139.7 83.2945 139.826C82.982 139.953 82.7011 140.147 82.4715 140.393C82.2418 140.64 82.0689 140.934 81.965 141.255C81.8611 141.576 81.8287 141.915 81.87 142.25V142.25ZM161.11 153.33C162.36 154.18 163.23 153.79 164.04 152.61C166.04 149.77 173.04 137.2 173.04 137.1C173.04 137 173.12 137.19 172.79 133.15C172.776 132.998 172.721 132.853 172.631 132.729C172.541 132.606 172.42 132.509 172.28 132.449C172.14 132.388 171.986 132.367 171.835 132.387C171.683 132.406 171.54 132.466 171.42 132.56L168 135.05C168 135.05 160.41 150.74 160.33 150.88C160.193 151.319 160.194 151.79 160.333 152.228C160.473 152.666 160.744 153.051 161.11 153.33V153.33ZM171.7 133.78C171.76 134.51 171.84 135.48 171.9 136.15C171.157 135.794 170.38 135.516 169.58 135.32L171.7 133.78ZM168.84 136C169.707 136.614 170.708 137.012 171.76 137.16C171.61 137.42 163.97 151.36 163.89 151.5C163.658 151.028 163.276 150.645 162.804 150.412C162.332 150.178 161.796 150.108 161.28 150.21C162.06 148.76 168.56 136.5 168.84 136V136Z" fill="#1E252C"/>
<path d="M164.24 116.17C164.132 116.019 163.995 115.89 163.837 115.793C163.679 115.695 163.503 115.629 163.32 115.6C162.728 115.442 162.127 115.322 161.52 115.24C161.86 117.62 162.06 120.24 162.05 120.47C162.035 120.622 161.96 120.762 161.842 120.86C161.724 120.957 161.572 121.004 161.42 120.99C161.267 120.972 161.127 120.896 161.03 120.776C160.932 120.656 160.886 120.503 160.9 120.35C160.9 120.18 160.84 119.49 160.79 115.14C158.79 114.89 149.16 114.14 149.54 116.06C149.54 116.16 148.75 121.06 151.81 123.41C154.87 125.76 160.99 125.3 163.13 122.91C163.737 122.183 164.138 121.305 164.29 120.37C164.526 118.978 164.509 117.556 164.24 116.17V116.17ZM166.64 107.12C166.64 107.57 166.04 111.01 165.64 115.63L166.12 115.73C167.879 116.104 169.712 115.904 171.35 115.16C171.921 114.843 172.394 114.375 172.717 113.807C173.039 113.239 173.2 112.593 173.18 111.94C173.248 111.128 173.107 110.313 172.77 109.571C172.433 108.829 171.912 108.186 171.257 107.703C170.601 107.22 169.832 106.912 169.024 106.81C168.216 106.708 167.395 106.815 166.64 107.12V107.12ZM167.09 107.46C167.728 107.359 168.381 107.396 169.003 107.568C169.626 107.741 170.205 108.045 170.7 108.46C171.175 108.896 171.544 109.436 171.776 110.038C172.009 110.64 172.099 111.287 172.04 111.93C171.95 114.5 169.31 114.99 166.78 114.73C166.9 112.91 167 110.82 167.09 107.46V107.46ZM70.3 98.25C70.3 98.25 70.31 98.26 70.3 98.25V98.25ZM156.38 48.76C156.377 48.9381 156.41 49.115 156.476 49.2805C156.542 49.4459 156.64 49.5967 156.765 49.724C156.889 49.8514 157.038 49.9528 157.202 50.0225C157.366 50.0922 157.542 50.1287 157.72 50.13C157.992 50.136 158.26 50.0607 158.489 49.9138C158.718 49.767 158.899 49.5552 159.007 49.3054C159.115 49.0557 159.147 48.7793 159.097 48.5116C159.048 48.2439 158.92 47.997 158.729 47.8024C158.539 47.6078 158.295 47.4743 158.028 47.4189C157.762 47.3636 157.485 47.3889 157.233 47.4917C156.981 47.5944 156.765 47.77 156.613 47.9959C156.461 48.2218 156.38 48.4878 156.38 48.76V48.76ZM46.93 81.75C47.16 82.2 47.46 82.25 47.65 82.11C47.84 81.97 111.17 81.42 115.88 81.17C116.893 81.1856 117.903 81.0577 118.88 80.79C121.13 78.79 122.01 41.4 121.13 39.67C118.88 35.18 48.46 38.07 44.13 39.38C40.68 40.42 45.34 78.56 46.93 81.75V81.75ZM43.94 41C43.94 40.82 44.16 40.12 44.33 40.07C49.12 38.63 118.67 36.26 120.56 40.02C120.721 40.7723 120.795 41.5408 120.78 42.31C120.95 46.67 120.78 56.01 120.33 64.38C120.24 65.98 119.53 79.09 118.49 80.28C114.34 81.16 50.39 81.36 47.55 81.47C45.93 77.71 42.43 47.6 43.94 41ZM157.85 26.71C158.122 26.716 158.389 26.6409 158.618 26.4945C158.847 26.3481 159.027 26.1368 159.136 25.8877C159.244 25.6385 159.276 25.3627 159.228 25.0953C159.179 24.8279 159.052 24.5809 158.863 24.3859C158.673 24.191 158.43 24.0567 158.165 24.0002C157.899 23.9438 157.622 23.9677 157.37 24.0689C157.118 24.1701 156.901 24.344 156.748 24.5686C156.595 24.7932 156.512 25.0582 156.51 25.33C156.506 25.509 156.538 25.6869 156.603 25.8535C156.669 26.0201 156.766 26.1721 156.891 26.3005C157.016 26.4289 157.165 26.5313 157.329 26.6016C157.494 26.6719 157.671 26.7087 157.85 26.71V26.71Z" fill="#1E252C"/>
<path d="M63.51 66.2H75.39C76.7647 66.1947 78.0812 65.6442 79.0505 64.6693C80.0197 63.6944 80.5626 62.3748 80.56 61V51.36C80.5601 49.9823 80.0176 48.66 79.05 47.6793C78.0824 46.6986 76.7675 46.1384 75.39 46.12H63.51C62.8211 46.1174 62.1385 46.2511 61.5016 46.5135C60.8646 46.7759 60.2859 47.1618 59.7988 47.6489C59.3117 48.136 58.9259 48.7147 58.6635 49.3516C58.4011 49.9886 58.2673 50.6711 58.27 51.36V61C58.2726 61.6855 58.4102 62.3638 58.675 62.9961C58.9397 63.6284 59.3264 64.2024 59.813 64.6853C60.2996 65.1681 60.8765 65.5504 61.5108 65.8103C62.1452 66.0702 62.8245 66.2026 63.51 66.2ZM59.12 51.36C59.1382 50.2042 59.6075 49.1012 60.4277 48.2866C61.2479 47.472 62.354 47.0103 63.51 47H75.39C75.9738 46.9934 76.5531 47.1025 77.0945 47.3211C77.6359 47.5396 78.1286 47.8632 78.5442 48.2733C78.9598 48.6833 79.2901 49.1716 79.5159 49.71C79.7417 50.2484 79.8587 50.8262 79.86 51.41V61C79.8573 61.5844 79.7396 62.1625 79.5136 62.7014C79.2875 63.2403 78.9575 63.7294 78.5425 64.1408C78.1274 64.5521 77.6353 64.8777 77.0944 65.0989C76.5535 65.3201 75.9743 65.4326 75.39 65.43H63.51C62.9308 65.4274 62.3579 65.3107 61.8238 65.0867C61.2898 64.8626 60.8051 64.5356 60.3975 64.1242C59.9898 63.7129 59.6672 63.2252 59.448 62.6892C59.2288 62.1531 59.1173 61.5791 59.12 61V51.36ZM95.63 73.34C95.83 73.93 96.33 73.8 96.47 73.43C96.66 72.9 97.77 69.09 97.91 68.43C98.68 68.19 96.51 68.94 103.22 66.5C103.29 66.473 103.349 66.4257 103.392 66.3641C103.434 66.3025 103.456 66.2296 103.456 66.155C103.456 66.0804 103.434 66.0075 103.392 65.9459C103.349 65.8844 103.29 65.837 103.22 65.81L92.94 61.7C92.8768 61.6701 92.807 61.6573 92.7373 61.6629C92.6677 61.6684 92.6007 61.692 92.5431 61.7315C92.4854 61.7709 92.4391 61.8248 92.4087 61.8877C92.3784 61.9506 92.365 62.0203 92.37 62.09C92.37 62.09 95.08 71.75 95.63 73.34V73.34ZM93.4 62.77L102.06 66.18C100.9 66.61 98.94 67.35 98 67.73C97.58 67.89 97.41 67.96 97.31 68.09C97.21 68.22 97.56 67.44 96.09 71.97L93.4 62.77ZM117 33.45C117.012 33.51 117.044 33.5639 117.092 33.6023C117.139 33.6407 117.199 33.6611 117.26 33.66C117.47 33.66 123.94 34.28 125.26 33.93C126.11 33.7 126.26 32.2 126.34 31.32C126.44 29.99 126.34 26.73 125.78 25.62C125.02 24.12 119.41 24.62 117.78 24.91C117.347 24.9709 116.934 25.1281 116.57 25.37C116.358 25.6159 116.235 25.9258 116.22 26.25C116.21 28.6716 116.472 31.0867 117 33.45V33.45ZM117.29 26.14C118.87 25.65 123.37 25.46 124.8 26.14C125.29 27.44 125.55 31.91 124.96 32.95C124.03 33.19 118.35 33.19 117.4 33.2C117.37 32.42 116.91 28.21 117.29 26.14ZM130.42 33.41C130.433 33.4691 130.466 33.522 130.514 33.5601C130.561 33.5982 130.619 33.6193 130.68 33.62C130.89 33.62 137.36 34.24 138.68 33.89C139.53 33.66 139.68 32.16 139.77 31.28C139.86 29.95 139.77 26.69 139.2 25.58C138.44 24.07 132.83 24.58 131.2 24.87C130.768 24.935 130.356 25.0919 129.99 25.33C129.783 25.5786 129.66 25.8869 129.64 26.21C129.631 28.6316 129.892 31.0466 130.42 33.41V33.41ZM130.71 26.1C132.29 25.6 136.79 25.42 138.22 26.1C138.71 27.4 138.97 31.87 138.38 32.9C137.45 33.15 131.77 33.15 130.82 33.16C130.79 32.38 130.33 28.17 130.71 26.1V26.1ZM144.46 33.85C144.472 33.91 144.504 33.9639 144.552 34.0023C144.599 34.0407 144.659 34.0611 144.72 34.06C144.93 34.06 151.4 34.68 152.72 34.33C153.57 34.1 153.72 32.6 153.8 31.72C153.9 30.39 153.8 27.13 153.24 26.02C152.48 24.52 146.87 25.02 145.24 25.31C144.808 25.3735 144.395 25.5304 144.03 25.77C143.818 26.0159 143.695 26.3258 143.68 26.65C143.67 29.0716 143.932 31.4867 144.46 33.85V33.85ZM144.75 26.54C146.33 26.05 150.83 25.86 152.26 26.54C152.75 27.84 153.01 32.31 152.42 33.35C151.49 33.59 145.81 33.59 144.86 33.6C144.83 32.82 144.37 28.61 144.75 26.54V26.54ZM130.51 48.79C130.58 48.99 130.74 49.01 130.77 49C130.99 49 137.45 49.62 138.77 49.27C139.62 49.04 139.77 47.54 139.86 46.66C139.95 45.33 139.86 42.07 139.3 40.97C138.53 39.46 132.92 39.97 131.3 40.25C130.865 40.312 130.448 40.4691 130.08 40.71C129.871 40.9613 129.748 41.2734 129.73 41.6C129.721 44.0183 129.982 46.43 130.51 48.79V48.79ZM130.81 41.48C132.39 40.99 136.88 40.8 138.31 41.48C138.8 42.78 139.06 47.25 138.47 48.29C137.54 48.53 131.87 48.53 130.92 48.54C130.88 47.76 130.42 43.55 130.81 41.48V41.48ZM153.89 40.56C155.49 38.2 156.89 36.07 156.94 35.97C156.99 35.87 156.26 34.97 155.83 35.61C152.77 40.32 153.19 39.87 152.97 39.79C151.21 39.15 145.53 39.37 144.64 40.2C144.04 40.76 144.27 42.79 144.34 43.66C143.7 43.3 143.21 43.04 143.03 42.97C142.57 42.79 142.6 43.24 142.85 43.4L144.41 44.4C144.536 45.7142 144.74 47.0198 145.02 48.31C145.03 48.3709 145.062 48.4261 145.11 48.4648C145.158 48.5036 145.218 48.5233 145.28 48.52C145.49 48.52 151.96 49.14 153.28 48.79C155 48.31 154.47 42 153.89 40.56V40.56ZM145.31 40.97C147.662 40.4347 150.1 40.3905 152.47 40.84L149 46.31C148.65 46.11 146.78 45.01 145.22 44.13C145.154 43.0861 145.184 42.0384 145.31 41V40.97ZM152.98 47.77C152.04 48.02 146.37 48.02 145.42 48.03C145.42 47.63 145.27 46.32 145.2 44.87L149 47.23C149.096 47.2405 149.193 47.2235 149.28 47.181C149.367 47.1386 149.439 47.0723 149.49 46.99C149.81 46.58 151.42 44.24 153.06 41.83C153.37 43.63 153.47 46.91 153 47.77H152.98ZM113.22 26.38C113.491 26.384 113.758 26.3072 113.985 26.1596C114.213 26.0119 114.392 25.7999 114.499 25.5506C114.606 25.3012 114.636 25.0256 114.587 24.7589C114.537 24.4921 114.409 24.2461 114.219 24.0521C114.029 23.8581 113.786 23.7249 113.521 23.6692C113.255 23.6136 112.979 23.6381 112.727 23.7397C112.476 23.8412 112.26 24.0152 112.107 24.2396C111.955 24.464 111.872 24.7286 111.87 25C111.87 25.3609 112.011 25.7074 112.263 25.9654C112.516 26.2233 112.859 26.3722 113.22 26.38V26.38Z" fill="#1E252C"/>
</svg>
