<svg width="200" height="200" viewBox="0 0 200 200" fill="none" xmlns="http://www.w3.org/2000/svg">
<path d="M83.17 63.7C81.55 63.49 67.17 63.49 64.59 63.7C64.5458 63.7096 64.5069 63.7356 64.4809 63.7726C64.455 63.8097 64.4439 63.8552 64.45 63.9C64.4592 63.9335 64.4769 63.964 64.5015 63.9885C64.526 64.0131 64.5565 64.0308 64.59 64.04C66.91 64.24 81.52 64.33 83.12 64.12C83.35 64.1 83.42 63.73 83.17 63.7ZM150.72 88.72C150.52 88.72 147.95 89.63 148.63 90L149.35 90.6C149.19 90.96 150.76 92.6 149.68 96.46C149.23 96.15 149.22 96.46 149.28 96.56C150.95 98.28 162.88 107.83 165.54 109.56C165.78 109.91 167.3 109.16 167.54 109.08C172.823 106.827 177.981 104.29 182.99 101.48C184.82 100.48 184.8 96.89 182.58 95.48C180.245 93.9271 177.813 92.5243 175.3 91.28L178.4 88.85C178.62 88.68 178.5 88.05 177.66 88.73C175.851 85.8072 175.119 82.3448 175.59 78.94C175.71 78.87 177.05 78.07 176.46 77.81C173.46 76.56 163.52 72.91 160.46 72.72C159.46 72.65 151.46 79.05 150.71 80.34C149.11 83.01 149.6 86.06 150.77 88.75L150.72 88.72ZM149.92 96.61C150.92 95.52 150.61 92.53 150.13 91.21C151.5 92.31 162.51 100.61 166.01 102.83C167.9 106.83 165.79 108.77 165.86 109.07C160 105 155.23 100.35 149.92 96.61V96.61ZM182.51 96.16C184.18 97.02 183.8 100.6 182.6 101.02C177.16 103.93 171.78 106.55 166.16 109.02C166.898 108.024 167.301 106.82 167.31 105.58L175.01 102.42C175.15 102.35 175.01 102.16 174.9 102.19C172.315 103.054 169.783 104.073 167.32 105.24C167.301 104.268 166.998 103.323 166.45 102.52C168.8 101.59 180.81 95.36 182.51 96.16V96.16ZM165.84 86C168.782 83.5638 171.861 81.2968 175.06 79.21C174.827 80.4259 174.783 81.6707 174.93 82.9C174.44 83.06 168.38 87.5 168.07 87.74C167.94 87.84 168.07 88.05 168.23 87.97L175 83.37C175.21 84.78 176.06 87.99 177.37 88.86C176.04 89.94 169.46 95.15 167.86 95.15C166.66 93.9928 165.83 92.5063 165.474 90.8779C165.118 89.2495 165.253 87.5522 165.86 86H165.84ZM164.53 77.37C165.23 77.97 162.33 79.66 162.22 79.69C161.89 79.79 161.67 79.45 162.38 78.77C162.74 78.46 164.06 77 164.53 77.38V77.37ZM159.08 79.04C159.58 78.04 161.66 76.38 162.54 75.78C162.583 75.7498 162.632 75.7284 162.684 75.7171C162.735 75.7058 162.789 75.7047 162.841 75.714C162.893 75.7233 162.942 75.7427 162.987 75.7712C163.031 75.7997 163.07 75.8367 163.1 75.88C163.13 75.9233 163.152 75.9722 163.163 76.0238C163.174 76.0754 163.175 76.1287 163.166 76.1807C163.157 76.2327 163.137 76.2824 163.109 76.3269C163.08 76.3714 163.043 76.4098 163 76.44C162.22 77.04 160.1 79.03 159.51 79.44C159.466 79.4645 159.416 79.4774 159.365 79.4774C159.314 79.4774 159.264 79.4645 159.22 79.44C159.185 79.4239 159.153 79.401 159.127 79.3725C159.101 79.3441 159.081 79.3107 159.068 79.2744C159.055 79.2381 159.049 79.1995 159.051 79.161C159.053 79.1225 159.063 79.0847 159.08 79.05V79.04ZM151.74 80.77C156.03 81.9341 160.245 83.3601 164.36 85.04C164.62 85.17 164.53 85.61 164.22 85.55C159.933 84.3555 155.722 82.9028 151.61 81.2C151.564 81.1744 151.529 81.1339 151.509 81.0854C151.489 81.0368 151.487 80.9829 151.502 80.9328C151.517 80.8826 151.549 80.8391 151.592 80.8095C151.636 80.7799 151.688 80.766 151.74 80.77ZM151 89.2C155.77 91.89 164.65 95.31 168 95.81C168.67 95.91 174.11 92.09 175 91.44C175.58 92.01 180.41 94.74 181.64 95.5C179.86 95.59 166.94 101.61 166.01 102.2C160.46 98.05 154.7 93.84 149.01 89.89L151.01 89.2H151ZM83.17 63.7H83.18H83.17ZM99.41 44.64C99.3491 44.615 99.2809 44.615 99.22 44.64C98.63 45 95.22 49.64 94.53 50.51C93.87 49.61 93.2 48.72 92.53 47.85C92.4 47.69 92.13 47.85 92.23 48.06C92.9 49.13 93.62 50.16 94.35 51.19C94.47 51.35 94.7 51.27 94.8 51.14C95.43 50.34 99.44 45.5 99.61 44.95C99.6173 44.9165 99.618 44.8819 99.6119 44.8481C99.6058 44.8144 99.5931 44.7822 99.5745 44.7534C99.5559 44.7246 99.5318 44.6997 99.5036 44.6803C99.4753 44.6608 99.4435 44.6471 99.41 44.64V44.64ZM80.34 65.64C74.34 65.76 67.69 65.64 65.11 65.86C65.057 65.86 65.0061 65.8811 64.9686 65.9186C64.9311 65.9561 64.91 66.007 64.91 66.06C64.91 66.113 64.9311 66.1639 64.9686 66.2014C65.0061 66.2389 65.057 66.26 65.11 66.26C68.21 66.26 77.86 66.58 80.34 66.05C80.55 66 80.51 65.7 80.34 65.64V65.64ZM80.56 55.59C80.76 55.59 80.82 55.25 80.56 55.22C78.56 54.92 66.56 55.51 63.65 55.96C63.597 55.96 63.5461 55.9811 63.5086 56.0186C63.4711 56.0561 63.45 56.107 63.45 56.16C63.45 56.213 63.4711 56.2639 63.5086 56.3014C63.5461 56.3389 63.597 56.36 63.65 56.36C67.57 56.36 76.48 55.75 80.51 55.61L80.56 55.59ZM76.58 57.59C76.75 57.59 76.84 57.25 76.58 57.19C75.58 56.94 65.58 57.19 64.07 57.36C64.0462 57.3636 64.0234 57.372 64.0029 57.3846C63.9824 57.3972 63.9646 57.4137 63.9506 57.4333C63.9367 57.4529 63.9267 57.4751 63.9215 57.4986C63.9162 57.522 63.9157 57.5463 63.92 57.57C63.9254 57.6089 63.9427 57.6452 63.9696 57.6738C63.9964 57.7025 64.0315 57.7221 64.07 57.73C66 57.84 75.4 57.91 76.58 57.59ZM97.9 63.09C98.45 62.29 92.42 62.58 92.16 62.85C91.9 63.12 92.16 67.23 92.16 67.61C92.16 68.2 97.75 68.19 97.97 68.02C98.2195 66.3928 98.2195 64.7372 97.97 63.11L97.9 63.09ZM97.47 67.57C96.94 67.57 93.01 67.64 92.69 67.39C92.69 65.98 92.6 64.58 92.55 63.18H97.55C97.37 64.6365 97.3432 66.1079 97.47 67.57V67.57Z" fill="#1E252C"/>
<path d="M168.4 90.88C169.8 90.05 171.23 89.24 172.58 88.34C172.77 88.21 172.58 87.87 172.36 87.99L168.25 90.65C168.227 90.6726 168.212 90.7026 168.209 90.7348C168.205 90.767 168.213 90.7994 168.231 90.8265C168.248 90.8536 168.275 90.8738 168.306 90.8835C168.337 90.8933 168.37 90.892 168.4 90.88ZM158.32 101.86C158.2 101.78 158.04 101.97 158.16 102.07C159.16 102.94 164.08 106.38 165.16 107.14C165.3 107.24 165.42 107.01 165.29 106.91C163.19 105.31 160.55 103.2 158.32 101.86V101.86ZM93.54 59.61C94.06 59.61 98.13 60.08 98.09 59.41C98.05 58.74 97.99 54.89 97.73 54.77C97.66 54.1 92.59 54.59 92.12 54.68C91.83 54.68 91.95 58.58 91.97 59.05C92 59.73 93.09 59.59 93.54 59.61V59.61ZM97.47 55V59.21C95.7857 59.0367 94.0899 59.0032 92.4 59.11C92.4662 57.7398 92.4395 56.3666 92.32 55C93.15 55 96.94 55.13 97.47 55V55ZM164.94 105.22C164.965 105.241 164.997 105.253 165.03 105.253C165.063 105.253 165.095 105.241 165.12 105.22C165.14 105.198 165.151 105.17 165.151 105.14C165.151 105.11 165.14 105.082 165.12 105.06C160.54 101.81 155.99 97.9 151.49 94.85C151.36 94.75 151.16 94.94 151.29 95.07C153.81 97.47 161.68 103.07 164.98 105.27L164.94 105.22ZM177.75 99.48H177.77H177.75ZM98.07 48.19C98.0561 48.1453 98.0254 48.1078 97.9843 48.0854C97.9432 48.063 97.8951 48.0575 97.85 48.07C97.8198 48.0771 97.792 48.0919 97.7692 48.1129C97.7465 48.1339 97.7295 48.1605 97.72 48.19V51.69H92.18C92.083 50.0784 91.9027 48.473 91.64 46.88C93.2042 46.9526 94.7716 46.9125 96.33 46.76C96.3651 46.7487 96.3953 46.7256 96.4153 46.6946C96.4353 46.6636 96.4441 46.6267 96.44 46.59C96.4343 46.5687 96.4242 46.5488 96.4104 46.5316C96.3967 46.5144 96.3795 46.5003 96.36 46.49C95.99 46.37 91.36 45.97 91.5 46.77C91.04 46.77 91.71 51.77 91.71 51.77C91.95 52.38 92.96 52.17 93.49 52.17C94.02 52.17 97.7 52.26 98 52.17C98.48 51.98 98.21 48.78 98.1 48.17L98.07 48.19Z" fill="#1E252C"/>
<path d="M194.7 138.91C181.96 139.69 169.217 140.357 156.47 140.91C156.303 139.086 155.969 137.282 155.47 135.52C168.137 135.187 180.803 134.797 193.47 134.35C193.535 134.342 193.595 134.314 193.642 134.268C193.689 134.223 193.72 134.164 193.73 134.1C193.738 134.022 193.716 133.944 193.667 133.882C193.619 133.82 193.548 133.78 193.47 133.77C180.75 134.243 168.033 134.633 155.32 134.94C152.32 124.48 145.99 114.53 138.61 106.65C138.38 103.99 138.37 102.65 137.23 99.98C135.03 94.93 132.6 93.88 132.66 95.08C132.659 95.3961 132.71 95.7102 132.81 96.01C132.41 95.51 129.47 92.45 128.87 94.1C128.428 93.8217 127.928 93.6466 127.409 93.5877C126.889 93.5289 126.363 93.5877 125.87 93.76C124 90.76 120.87 90.76 118.87 89.76C115.05 87.76 116.81 81.38 119.62 79C119.62 79 131.69 78.77 131.7 78.62C131.92 75.79 134.33 32.72 134.33 32.72C104.59 32.13 72.59 32.72 43.07 33.32C42.87 33.32 42.7 33.45 42.72 33.63C44.5 48.78 48.87 79.79 48.87 79.79C49.59 80.08 114.96 79.06 118.87 79C117.198 80.8239 116.283 83.2158 116.31 85.69C116.51 91.99 121.52 89.31 125.62 93.92C122.96 95.06 122.62 98.43 123.62 100.84C123.802 101.302 124.047 101.736 124.35 102.13C124.392 103.07 124.659 103.985 125.13 104.8C126.41 107.23 128.69 108.07 128.81 108.43C128.81 114.09 130 120.99 131.13 126.51C127.32 124.51 116.02 119.74 104.4 119.4C105.06 113.67 110.01 112.95 109.33 109.12C111.4 109.04 113.47 108.96 115.54 108.86C116.06 108.86 115.49 107.26 115.43 106.99C114.59 103.29 113.747 99.5967 112.9 95.91C112.77 95.41 112.19 92.05 111.7 92.05L105.25 92.17C103.83 90.82 100.5 90.32 99.14 91.89C97.14 88.04 90.96 88.6 90.76 92.34C89.07 91.19 86.56 90.96 85.03 92.52C84.87 92.59 54.62 93 50.12 93.18H50.04C49.9914 93.2109 49.9568 93.2596 49.9437 93.3157C49.9306 93.3718 49.9401 93.4308 49.97 93.48C50.05 94 47.44 106.34 47.13 109.31C47.13 109.73 51.66 109.67 52.13 109.67C45.67 117.24 39.86 125.78 38.13 135.77C27.23 135.6 16.33 135.33 5.42999 135.37C5.37695 135.37 5.32608 135.391 5.28857 135.429C5.25106 135.466 5.22999 135.517 5.22999 135.57C5.22999 135.623 5.25106 135.674 5.28857 135.711C5.32608 135.749 5.37695 135.77 5.42999 135.77C16.28 136.24 27.16 136.29 38.02 136.37C37.6965 138.353 37.5625 140.362 37.62 142.37C26.82 142.15 16.02 141.81 5.22999 141.63C4.98999 141.63 4.94999 142.01 5.22999 142.01C16.03 142.56 26.85 142.76 37.67 142.92C37.95 148.35 40.09 155.01 45.41 157.45C47.6 161.75 52.24 165.62 57.41 164.51C57.26 165.29 57.12 166.09 56.97 166.89C56.91 167.25 57.45 167.4 57.51 167.04C58.98 159.12 60.51 151.16 63.08 143.52C63.16 143.28 62.8 143.19 62.71 143.42C60.21 150.06 58.8 157.04 57.5 163.99C52.21 164.76 47.99 161.39 45.8 156.83C44.6218 154.42 43.9402 151.799 43.7959 149.12C43.6516 146.442 44.0475 143.762 44.96 141.24C47.69 134.24 54.96 129.24 62.1 125.82C69.3597 122.38 77.1564 120.211 85.15 119.41C85.72 124.75 91.86 126.56 96.54 126.28C101.22 126 103.99 124.57 104.39 119.85C104.45 119.85 121.28 120.22 135.81 129.93C140.08 132.78 143.96 136.44 146.23 141.09C148.45 145.58 149.23 151.09 147.23 155.77C144.37 162.59 139.15 163.58 135.69 164.19C134.467 156.868 132.105 149.782 128.69 143.19C128.6 143.02 128.32 143.13 128.41 143.31C131.971 150.989 134.4 159.144 135.62 167.52C135.62 167.78 136.14 167.85 136.14 167.52C136.099 166.605 135.979 165.694 135.78 164.8C139.551 164.476 143.043 162.679 145.5 159.8C153.5 157.8 156.99 149.15 156.5 141.53C169.273 141.01 182.033 140.343 194.78 139.53C195.13 139.4 195 138.91 194.7 138.91V138.91ZM48.91 73.47C46.91 60.75 45.32 48.09 43.51 35.36C73.51 34.84 104.29 35.06 133.88 34.56L131.57 72.07C119.08 72.45 50.52 72.84 48.91 73.47ZM109.21 108.56C109.027 108.027 108.676 107.567 108.21 107.25C108.728 106.426 109.009 105.474 109.02 104.5H109.56L110.31 108.5L109.21 108.56ZM108.37 101.23C108.541 101.092 108.699 100.938 108.84 100.77C109.08 101.84 109.28 102.91 109.48 103.98H109C109.049 103.023 108.831 102.071 108.37 101.23V101.23ZM115.21 108.3L110.61 108.5C110.49 107.15 110.23 105.82 109.99 104.5C111.428 104.548 112.867 104.511 114.3 104.39C114.6 105.68 114.91 107 115.21 108.3ZM114.21 103.93H109.91L109.19 100.18L113.34 100.06L114.21 103.93ZM113.21 99.63L109.3 99.75C109.375 99.2758 109.341 98.7907 109.201 98.3315C109.061 97.8723 108.817 97.4511 108.49 97.1C108.43 96.8 108.37 96.49 108.29 96.18L112.41 96.09L113.21 99.63ZM111.68 92.49C111.9 93.49 112.1 94.56 112.3 95.6L108.19 95.67C107.98 94.6186 107.71 93.5802 107.38 92.56L111.68 92.49ZM107.9 96.73C107.413 96.5087 106.863 96.4696 106.35 96.62C106.396 96.4962 106.433 96.3692 106.46 96.24H107.78L107.9 96.73ZM106.9 92.57C107.088 93.6198 107.335 94.6582 107.64 95.68H106.53C106.644 94.5721 106.337 93.4617 105.67 92.57H106.9ZM82.69 93H84.62C84.2124 93.63 84.0687 94.395 84.22 95.13L82.52 95.62C82.6 94.76 82.69 93.8 82.69 93V93ZM82.15 93V95.79C81.9806 95.8907 81.817 96.0009 81.66 96.12L76.93 96.2C76.9737 95.1625 76.9436 94.1232 76.84 93.09L82.15 93ZM80.05 100.25H76.9V96.75L81 96.68C80.5663 97.1549 80.2535 97.7273 80.0882 98.3488C79.9228 98.9702 79.9097 99.6224 80.05 100.25V100.25ZM76.92 104.88H79.65C79.6886 105.752 80.0117 106.588 80.57 107.26C80.2401 107.488 79.9747 107.798 79.7995 108.159C79.6243 108.52 79.5452 108.92 79.57 109.32H76.87C76.9 107.82 76.92 106.35 76.92 104.88ZM79.92 103.67C79.8323 103.879 79.7686 104.097 79.73 104.32H76.97V100.71H80.2C80.4172 101.307 80.8071 101.825 81.32 102.2C80.6952 102.523 80.1905 103.039 79.88 103.67H79.92ZM76.57 109.31H64.18C64.31 107.59 64.18 106.51 65.29 105.03L76.46 104.9C76.45 106.37 76.48 107.84 76.53 109.31H76.57ZM65.7 104.48C66.7406 103.428 67.5272 102.152 68 100.75H70.5V104.42L65.7 104.48ZM71.14 93.2L76.38 93.11C76.3237 94.1459 76.3237 95.1841 76.38 96.22L71.11 96.31C71.11 95.28 71.12 94.24 71.14 93.2ZM71.07 96.86L76.36 96.77V100.27H71C71 99.13 71 98 71.07 96.86V96.86ZM71 100.74H76.41V104.35L70.78 104.42C70.86 103.19 70.92 102 71 100.74V100.74ZM66 93.29L70.79 93.21L70.68 96.32L65.8 96.4C65.9187 95.3679 65.9555 94.3279 65.91 93.29H66ZM65.76 96.94L70.67 96.86L70.58 100.26H68.13C68.25 99.71 68.47 98.81 67.82 98.51C67.17 98.21 66.55 99.71 65.35 100.25C65.46 99.15 65.56 98.05 65.67 96.95L65.76 96.94ZM61.48 93.37L65.61 93.3C65.4671 94.3314 65.377 95.3694 65.34 96.41H65C65.43 95.36 63.11 94.68 61.11 96.41C61.14 95.9 61.42 93.71 61.39 93.37H61.48ZM65.21 97C65.14 98.09 65.08 99.17 65.01 100.26H63.45C63.15 99.38 63.45 97.31 64.25 97H65.19H65.21ZM60.88 93.4L60.72 96.5H58.85C58.11 94.96 58.58 93.79 57.85 93.42L60.88 93.4ZM60.48 97.06C60.2494 97.3488 60.0547 97.6644 59.9 98L59.16 97.09L60.48 97.06ZM54.09 93.53L57.3 93.47C56.3 93.95 56.15 95.65 56.15 96.58H54.64C54.13 96.14 53.91 96.58 53.53 96.58L54.07 93.47L54.09 93.53ZM56.31 98.61C55.7551 98.2398 55.3041 97.7337 55 97.14H56.13C56.1419 97.6327 56.1887 98.1239 56.27 98.61H56.31ZM53 100.11L53.48 97.17C53.3797 98.1851 53.5061 99.2097 53.85 100.17L53 100.11ZM54 100.6C54.41 101.97 55 103.22 55.28 104.6L52.28 104.66L52.88 100.59L54 100.6ZM50.37 93.54H53.65C53.46 94.54 53.28 95.62 53.1 96.67C52.01 96.67 50.91 96.73 49.82 96.78C50.0555 95.7113 50.2258 94.6293 50.33 93.54H50.37ZM49.75 97.19H53C52.85 98.19 52.69 99.19 52.53 100.12H49.18C49.35 99.12 49.53 98.15 49.71 97.19H49.75ZM49.14 100.47C50.24 100.53 51.34 100.56 52.44 100.58C52.25 101.93 52.03 103.3 51.85 104.66C50.68 104.66 49.51 104.74 48.34 104.79C48.61 103.35 48.87 101.91 49.14 100.47V100.47ZM51.39 109.14H47.53C47.78 107.8 48.04 106.47 48.31 105.14L51.78 105.23C51.569 106.525 51.4255 107.83 51.35 109.14H51.39ZM51.67 109.14L52.26 105.14H55.37C55.4 105.406 55.4 105.674 55.37 105.94L52.56 109.15L51.67 109.14ZM44.86 139.87C43.6903 142.535 43.1057 145.42 43.1453 148.33C43.185 151.24 43.8481 154.108 45.09 156.74C35.41 150.2 37.47 135.74 41.59 126.5C44.96 118.93 50.3 112.5 55.77 106.33C56.57 105.42 53.98 99.33 53.89 97.84C53.83 96.73 54.29 96.5 54.7 97.29C55.11 98.08 55.7 98.98 56.51 99.17C56.83 100.11 57.08 99.81 57.04 99.66C56.7 98.01 56.11 95.66 57.21 94.14C58.01 93.08 57.98 95.03 58.06 95.41C58.25 96.32 59.06 98.08 59.79 98.41C59.54 99.12 59.96 98.87 59.99 98.78C61.41 95.05 65.75 95.58 64.35 96.5C63.9809 96.7203 63.6672 97.0224 63.4331 97.383C63.1991 97.7436 63.0509 98.1531 63 98.58C62.49 102.11 65.27 101.58 67.29 99.12C68.13 98.12 68.17 100.27 66.84 102.44C65.71 104.28 64.18 104.94 64 107.35C63.5 113.24 62.29 120.27 61.48 125.45C54.84 128.66 48.05 133 44.82 139.88L44.86 139.87ZM62 125.18C62.9764 120.095 63.6741 114.961 64.09 109.8H79.6C80.18 113.15 84.34 113.6 85.01 118.8C77.0288 119.58 69.2434 121.739 62 125.18V125.18ZM104.22 117.11C103.971 117.896 103.81 118.708 103.74 119.53C103.34 123.77 101.54 125.18 96.83 125.53C91.83 125.94 86.41 124.36 85.65 118.97C84.98 114.17 83.44 114.59 80.97 111.23C80.23 110.23 79.57 108.37 80.97 107.59C81.6578 108.346 82.5193 108.922 83.48 109.27C85.64 114.12 86.37 119.71 92.65 120.33C104.79 121.46 102.07 114.85 105.92 109.08C106.668 108.734 107.347 108.253 107.92 107.66C108.357 108.025 108.658 108.526 108.776 109.083C108.894 109.639 108.821 110.219 108.57 110.73C107.59 113.1 105.23 114 104.22 117.11V117.11ZM129 94.68C129.34 95.44 129.69 96.19 130 96.95C129.51 96.32 127.11 93.7 126.31 95.1C125.9 95.83 126.76 96.92 127.11 97.57C125.768 97.8076 124.568 98.5524 123.76 99.65C122.48 95 127 92.68 129 94.68ZM124.48 101.49C124.29 101.02 124.09 100.54 123.89 100.07C124.768 99.0426 125.947 98.3182 127.26 98C127.823 99.1614 128.188 100.409 128.34 101.69C128.61 104.25 126.65 102.42 125.7 101.54C125.33 101.16 124.71 101 124.43 101.49H124.48ZM146.13 158.9C149.44 154.26 149.58 148.27 147.66 143.03C144.94 135.62 138.47 130.43 131.66 126.8C130.351 120.753 129.502 114.615 129.12 108.44C129.12 107.5 125.94 106.86 124.95 103.17C124.77 102.5 124.4 100.74 125.61 102C126.82 103.26 128.88 104.42 128.79 101.66C128.67 98.39 126.45 96.21 126.65 95.47C126.9 94.54 128.75 96.29 129.05 96.59C129.832 97.4499 130.541 98.3731 131.17 99.35C131.28 99.51 131.55 99.35 131.45 99.2C131.217 98.8 130.977 98.4 130.73 98C130.89 97.66 129.09 94.48 129.41 94.18C129.73 93.88 131.17 94.92 131.49 95.18C133.16 96.63 133.24 97.6 133.81 98.35C133.836 98.3591 133.864 98.3591 133.89 98.35C133.926 98.3529 133.961 98.3421 133.989 98.3198C134.017 98.2975 134.035 98.2654 134.04 98.23C133.98 97.59 133.61 97.23 133.43 96.79C133.25 96.35 132.88 95.36 133.13 95.01C133.25 94.91 133.94 95.42 134.02 95.5C134.68 96.1319 135.23 96.8685 135.65 97.68C138.71 102.91 137.79 106.28 138.31 106.79C145.9 115.34 154.01 127.86 155.65 139.16C156.76 147 154.29 156.14 146.08 158.9H146.13Z" fill="#1E252C"/>
<path d="M73.6 50C73.83 49.93 73.74 49.6 73.53 49.57C69.89 49.64 66.02 49.57 62.43 49.67C62.15 49.67 62.19 50.1 62.43 50.14C64.27 50.44 72 50.49 73.6 50ZM169.07 103.48C170.43 102.89 177.07 100.21 177.86 99.76C177.875 99.7469 177.887 99.7307 177.895 99.7126C177.903 99.6945 177.907 99.6748 177.907 99.655C177.907 99.6351 177.903 99.6155 177.895 99.5974C177.887 99.5793 177.875 99.5631 177.86 99.55C177.844 99.5258 177.821 99.5064 177.795 99.4941C177.768 99.4817 177.739 99.4769 177.71 99.48C176.03 99.83 170.59 102.42 168.9 103.26C168.81 103.33 168.93 103.54 169.07 103.48V103.48ZM102 80L80.8 80.32C81.71 90.6 102.27 90.76 102 80ZM102 58C102 58.0434 102.016 58.0852 102.046 58.1168C102.076 58.1484 102.117 58.1674 102.16 58.17C105.55 58.25 112.72 58.46 115.43 58.09C115.65 58.09 115.58 57.72 115.43 57.72C111.6 57.72 106.07 57.72 102.21 57.83C102.185 57.8238 102.158 57.8236 102.133 57.8293C102.107 57.8351 102.083 57.8466 102.063 57.8631C102.043 57.8795 102.026 57.9004 102.015 57.9242C102.005 57.9479 101.999 57.9739 102 58V58ZM73 43C73.28 43 73.16 42.6 72.93 42.56C66.04 42.76 58.54 42.91 51.82 43.06C51.7975 43.0636 51.776 43.0717 51.7567 43.0838C51.7374 43.0959 51.7207 43.1117 51.7077 43.1304C51.6946 43.149 51.6854 43.1701 51.6807 43.1924C51.6759 43.2146 51.6757 43.2376 51.68 43.26C51.6858 43.295 51.7024 43.3274 51.7275 43.3525C51.7526 43.3776 51.785 43.3942 51.82 43.4C56.71 43.75 66.65 43.22 73 43V43ZM76.85 40.71C77.08 40.71 77.15 40.31 76.85 40.28C74.61 40.01 52.52 40.37 50.98 40.71C50.83 40.71 50.84 41.01 50.98 41.01C56.65 41 70.24 40.61 76.85 40.71ZM33.38 112.14V112.13V112.14ZM33.8 112.31C34.5704 110.885 35.1616 109.37 35.56 107.8C35.7462 107.26 35.7888 106.682 35.6836 106.121C35.5784 105.56 35.329 105.035 34.96 104.6C35.323 103.687 35.5096 102.713 35.51 101.73C35.31 100.1 33.58 100.2 32.65 101.45C28.9 106.45 24.76 114.45 24.88 120.6C24.81 120.89 24.96 121.22 25.22 120.98C29.6597 116.581 32.9437 111.154 34.78 105.18C36.03 107.04 34.1 110.25 33.38 112.13C33.29 112.38 33.67 112.53 33.8 112.31V112.31ZM25.26 120.19C25.3334 119.08 25.4871 117.977 25.72 116.89L27.26 118C26.61 118.72 25.94 119.47 25.26 120.19ZM34.55 104.19C33.8728 103.622 33.0596 103.239 32.19 103.08C32.5241 102.47 32.9267 101.899 33.39 101.38C33.84 100.96 34.7 100.79 34.96 101.5C35.0483 102.41 34.9073 103.328 34.55 104.17V104.19ZM60 53.25C59.56 53.43 57 57.25 56.53 57.92C55.9481 57.1468 55.2768 56.4453 54.53 55.83C54.4883 55.8106 54.441 55.8071 54.3969 55.82C54.3527 55.8328 54.3148 55.8613 54.29 55.9C54.2754 55.9387 54.2754 55.9813 54.29 56.02C54.8602 56.9537 55.5309 57.8222 56.29 58.61C56.3172 58.64 56.3504 58.664 56.3874 58.6805C56.4244 58.6969 56.4645 58.7054 56.505 58.7054C56.5455 58.7054 56.5856 58.6969 56.6226 58.6805C56.6596 58.664 56.6928 58.64 56.72 58.61V58.56L60 54.08C60.46 53.43 60.33 53.08 60 53.25ZM120 48C120.21 48 120.25 47.6 120 47.57C113.761 47.2597 107.508 47.3499 101.28 47.84C101.07 47.84 101.09 48.21 101.28 48.2C106 48.16 114.85 48.31 120 48Z" fill="#1E252C"/>
<path d="M60 59.31C60.4 59.15 59.6 56.17 59.49 55.7C59.4867 55.679 59.4793 55.6588 59.4682 55.6407C59.4572 55.6225 59.4426 55.6067 59.4255 55.5942C59.4083 55.5816 59.3888 55.5726 59.3681 55.5676C59.3475 55.5626 59.326 55.5617 59.305 55.565C59.284 55.5683 59.2638 55.5757 59.2457 55.5867C59.2275 55.5978 59.2117 55.6123 59.1992 55.6295C59.1866 55.6467 59.1776 55.6662 59.1726 55.6869C59.1676 55.7075 59.1667 55.729 59.17 55.75C59.29 56.82 59.41 57.9 59.61 58.95C57.94 59.08 56.43 59.07 54.8 59.14C54.5 57.84 54.24 56.14 53.8 54.85C55.0578 54.9557 56.3222 54.9557 57.58 54.85C58.41 54.85 58.35 54.33 57.64 54.34C57.22 54.34 53.64 54.27 53.64 54.7C53.17 54.7 54.16 58.89 54.22 59.17C54.2303 59.2198 54.2562 59.2651 54.294 59.2993C54.3317 59.3334 54.3794 59.3547 54.43 59.36C54.55 59.88 59.81 59.8 60 59.31ZM120.56 55.8C120.551 55.7611 120.53 55.7263 120.499 55.701C120.468 55.6756 120.43 55.6612 120.39 55.66C114.33 55.5 107.85 55.79 101.71 55.78C101.53 55.78 101.52 56.08 101.71 56.1C107.09 56.46 115.41 56.68 120.43 56.02C120.475 56.006 120.513 55.9758 120.537 55.9351C120.562 55.8944 120.57 55.8463 120.56 55.8V55.8ZM54.57 52.08C55.9728 52.1191 57.3765 52.0556 58.77 51.89C59.64 52.11 58.31 46.65 58.15 46.4C58.1289 46.3529 58.0932 46.3138 58.0482 46.2886C58.0031 46.2634 57.9512 46.2533 57.9 46.26C57 46.26 52.82 46.26 52.23 46.39C51.51 45.81 52.56 50.74 52.71 51.33C53 52.32 53.64 52.08 54.57 52.08ZM52.35 46.73C54.1951 46.9553 56.0591 46.9822 57.91 46.81L58.55 51.43L53.31 51.7C53.35 51.36 52.47 47.39 52.35 46.73ZM115.82 50.1C115.873 50.1 115.924 50.0789 115.961 50.0414C115.999 50.0039 116.02 49.953 116.02 49.9C116.02 49.8469 115.999 49.7961 115.961 49.7586C115.924 49.7211 115.873 49.7 115.82 49.7C114.58 49.45 103.92 49.83 101.71 50.02C101.54 50.02 101.54 50.31 101.71 50.32C102.91 50.37 114.63 50.4 115.82 50.1ZM31.85 81.82C32.04 81.82 33.45 81.02 33.78 82.32C34.24 84.1 36.04 83.03 36.33 81.67C36.7 79.99 35.1 78.67 33.21 78.67C29.37 78.67 30.25 82 31.85 81.82ZM33.21 79.06C35.37 79.13 36.7 81.17 35.39 82.37C34.27 83.37 34.39 81.93 33.85 81.37C32.77 80.37 31.91 81.58 31.3 81.07C30.05 80.07 32.44 79 33.21 79.06ZM56.63 62.77C55.06 62.77 55 62.51 55.2 64.04C55.26 64.47 55.57 67.51 56.09 67.54C56.2 68.02 60.69 67.85 61.26 67.68C62.03 67.68 61.26 65.31 61.26 65.04C60.6 61.56 61.42 62.64 56.63 62.77ZM56.34 67.31C56.09 66.05 55.9 64.38 55.54 63.18C57.1773 63.34 58.8288 63.2795 60.45 63C60.5518 64.3923 60.7692 65.7737 61.1 67.13C59.54 67.2 57.92 67.28 56.34 67.31ZM122.13 40.12C120.29 39.95 93.79 40.12 90.43 40.38C90.3866 40.3874 90.3478 40.4113 90.3216 40.4467C90.2955 40.4822 90.2842 40.5264 90.29 40.57C90.2971 40.6045 90.3141 40.6361 90.339 40.661C90.3639 40.6858 90.3955 40.7029 90.43 40.71C93.28 40.86 120.09 40.79 122.13 40.56C122.188 40.56 122.244 40.5368 122.286 40.4956C122.327 40.4543 122.35 40.3983 122.35 40.34C122.35 40.2816 122.327 40.2257 122.286 40.1844C122.244 40.1432 122.188 40.12 122.13 40.12V40.12ZM77 47.47C77.23 47.42 77.15 47.11 76.95 47.07L61.76 47.45C61.7379 47.4523 61.7166 47.4593 61.6973 47.4703C61.6781 47.4814 61.6613 47.4963 61.6482 47.5142C61.635 47.532 61.6257 47.5525 61.6208 47.5741C61.616 47.5958 61.6157 47.6182 61.62 47.64C61.6258 47.675 61.6424 47.7074 61.6675 47.7325C61.6926 47.7576 61.725 47.7742 61.76 47.78C65.57 48.06 73.69 48.14 77 47.47ZM137.23 75.58C137.3 76.34 138.06 83.92 138.34 84.47C140.34 88.37 147.7 88.47 147.86 82.7C148.14 80.3 149.11 73.41 148.73 71.7C148.84 71.14 149.42 68.7 149.53 67.41C149.53 67.2 149.93 61.49 149.13 62.36C148.062 63.7816 147.116 65.2902 146.3 66.87C146.16 67.48 146.02 68.08 145.87 68.68C145.428 68.5132 144.968 68.3958 144.5 68.33C144.5 67.92 144.2 65.92 144.06 65.12C143.37 63.78 142.66 62.58 142.06 61.19C141.21 59.1 141.19 59.06 140.95 61.36C140.549 63.703 140.549 66.097 140.95 68.44C136.42 69.38 136.89 72.05 137.22 75.58H137.23ZM148.17 64.58C148.292 64.6983 148.439 64.789 148.599 64.8459C148.76 64.9029 148.93 64.9247 149.1 64.91V67.43C148.679 67.4709 148.253 67.4264 147.85 67.2993C147.446 67.1721 147.072 66.9649 146.75 66.69C147.24 66 147.75 65.29 148.17 64.58ZM146.73 67.21C147.392 67.6809 148.187 67.9295 149 67.92C148.67 69.78 148.34 71.63 148.08 73.5C147.74 74.72 146.08 75.16 145 75.31C145.66 72.67 146.16 69.83 146.73 67.18V67.21ZM144.73 74.59C144.681 74.8411 144.648 75.0949 144.63 75.35L142.19 75.41L141.19 65.99C141.642 66.1265 142.121 66.1505 142.584 66.0599C143.048 65.9692 143.482 65.7667 143.85 65.47C143.85 65.47 144.5 74.44 144.73 74.56V74.59ZM141.31 62.79C141.463 62.83 141.623 62.8382 141.779 62.8141C141.936 62.7901 142.086 62.7342 142.22 62.65L143.59 65.11C143.231 65.3776 142.815 65.5584 142.374 65.6382C141.933 65.718 141.48 65.6946 141.05 65.57C141.033 64.6266 141.12 63.6842 141.31 62.76V62.79ZM148.24 74.31C148.06 76.83 147.74 82.15 147.09 84.53C145.94 87.62 140.93 87.67 138.72 84.53C138.3 81.06 137.88 77.53 137.47 74.11C139.34 76.82 146.61 76.49 148.24 74.28V74.31Z" fill="#1E252C"/>
<path d="M13.81 85.33C15.332 86.1248 16.9388 86.7454 18.6 87.18C15.41 91.57 24.54 97.83 32.89 94.49C36.72 92.96 40.55 88.1 36.8 84.73C40.8 81.5 42.21 76.84 42.04 71.73C41.78 63.85 38.3 58.05 30.33 56.18C26.4035 55.2611 22.2888 55.579 18.55 57.09L17 54.41C17.49 54.15 18 53.9 18.5 53.68C19.82 53.23 19.42 52.26 18.64 52.55C3.31999 58.14 -0.220004 78.29 13.81 85.33ZM18.72 86.48C18.44 85.48 19.19 84.48 18.84 83.39C18.04 80.8 14.69 82.3 13.84 80.55C12.91 78.64 15.39 78.31 15.89 76.94C15.9784 76.7002 16.0009 76.441 15.9552 76.1895C15.9095 75.938 15.7972 75.7034 15.63 75.51C14.19 73.71 10.86 75.61 11.81 71.41C12.53 68.24 15.59 66.74 17.81 68.14C20.03 69.54 21.36 70.48 24.17 68.84C28.85 66.09 28.27 71.84 26.84 73.58C26.08 74.52 24.7 74.47 23.64 74.87C20.18 76.17 20.2 78.5 22.94 79.07C24 79.29 25.36 79.19 26.19 79.99C28.44 82.18 23.79 86.86 22.32 87.63C21.53 87.47 19.12 87 18.72 86.48V86.48ZM31.41 57.06C37.3 58.89 40.41 63.15 41.25 69.24C41.6493 71.8682 41.5509 74.5481 40.96 77.14C40.72 77.47 37.34 78.4 36.25 77C35.8292 76.4342 35.5482 75.7768 35.43 75.0816C35.3118 74.3864 35.3598 73.6731 35.57 73C36.22 71.32 38.43 69.84 37.75 68.12C36.81 65.74 34.06 68.99 32.9 68.32C31.16 67.32 34.42 65.4 30.7 64.71C29.33 64.46 28.21 65.02 27.2 63.51C24.89 60.05 30.9 57.05 31.41 57.03V57.06ZM20 61.49C20.0431 61.5582 20.1085 61.6093 20.185 61.6348C20.2616 61.6604 20.3446 61.6586 20.42 61.63C20.5066 61.5944 20.576 61.5265 20.6133 61.4406C20.6506 61.3547 20.653 61.2576 20.62 61.17L18.8 57.62C22.5091 56.1327 26.5927 55.8528 30.47 56.82C25.47 58.47 24.88 64.11 28.47 65.08C29.23 65.29 32.63 64.99 32.04 66.44C31.9202 66.6752 31.8531 66.9337 31.8432 67.1975C31.8333 67.4613 31.8809 67.724 31.9827 67.9676C32.0845 68.2111 32.238 68.4296 32.4327 68.6079C32.6274 68.7862 32.8585 68.92 33.11 69C34.51 69.25 36.01 67.14 37.04 68C38.84 69.5 34.14 71.82 34.94 75.16C35.54 77.72 36.6 78.53 39.2 78.16C39.7695 78.111 40.3219 77.9405 40.82 77.66C38.67 85.19 30.63 88.66 23.28 87.75C24.76 86.39 27.06 83.69 27.28 81.75C27.62 78.31 23.67 79 22.22 78.24C20.22 77.24 23.08 75.5 24.91 75.1C25.5097 75.0013 26.0901 74.8089 26.63 74.53C29.63 72.69 28.8 65.29 24.45 68.02C20.73 70.35 19.58 68.37 17.85 67.48C15.08 66.07 11.28 68.29 11.09 72.48C10.98 75.33 13.33 74.72 14.7 75.48C14.9455 75.5721 15.1505 75.7482 15.2787 75.977C15.4068 76.2058 15.4498 76.4725 15.4 76.73C15.08 77.73 13.63 77.93 13.23 79.14C13.0718 79.6119 13.0776 80.1235 13.2464 80.5917C13.4152 81.06 13.7371 81.4575 14.16 81.72C15.47 82.48 17.79 81.82 18.34 83.63C18.61 84.51 18.08 85.41 18.14 86.3C15.5886 85.383 13.342 83.7755 11.6505 81.6568C9.95902 79.538 8.8891 76.9911 8.56 74.3C7.66 67.5 11.81 60.89 17.91 58C18.54 59.16 19.33 60.36 20 61.49V61.49ZM11 58.82C12.5012 57.2633 14.2311 55.9448 16.13 54.91C16.6874 55.7651 17.1981 56.6498 17.66 57.56C14.5215 59.0181 11.9095 61.4092 10.1806 64.4071C8.45172 67.4049 7.69019 70.8633 8 74.31C8.20846 76.2856 8.82768 78.1957 9.8179 79.9178C10.8081 81.64 12.1475 83.136 13.75 84.31C4.18999 79 3.79 66.48 11 58.82ZM117.73 65.87C116.87 65.68 104.01 65.62 102.19 65.87C102.145 65.87 102.102 65.8879 102.07 65.9198C102.038 65.9517 102.02 65.9949 102.02 66.04C102.02 66.0851 102.038 66.1283 102.07 66.1602C102.102 66.1921 102.145 66.21 102.19 66.21C102.88 66.31 116.32 66.54 117.73 66.21C117.777 66.1996 117.818 66.1737 117.848 66.1364C117.878 66.0991 117.894 66.0528 117.894 66.005C117.894 65.9572 117.878 65.9109 117.848 65.8736C117.818 65.8363 117.777 65.8104 117.73 65.8V65.87ZM122 42.87C112.35 42.98 99.88 42.65 91.18 42.87C90.94 42.87 90.96 43.21 91.18 43.23C94.83 43.63 119.06 43.6 122 43.23C122.029 43.2276 122.056 43.2193 122.082 43.2058C122.107 43.1922 122.129 43.1736 122.147 43.1511C122.165 43.1286 122.178 43.1027 122.185 43.075C122.193 43.0473 122.194 43.0184 122.19 42.99C122.174 42.9533 122.147 42.9222 122.113 42.9008C122.08 42.8794 122.04 42.8687 122 42.87V42.87ZM120.93 63.7C115.08 63.57 107.77 63.93 101.54 63.77C101.36 63.77 101.32 64.03 101.54 64.05C105.37 64.43 117.36 64.81 120.97 64.11C121.16 64.06 121.18 63.7 120.93 63.7V63.7Z" fill="#1E252C"/>
</svg>
