<svg width="200" height="200" viewBox="0 0 200 200" fill="none" xmlns="http://www.w3.org/2000/svg">
<path d="M70.77 150.1C72.437 149.51 74.1449 149.042 75.88 148.7L76.09 149.47C76.1135 149.561 76.1688 149.64 76.246 149.693C76.3231 149.747 76.4168 149.77 76.51 149.76L83.38 148.96C85.27 144.65 88.74 138.12 88.79 138.02C88.74 136.39 88.79 135.02 88.79 133.46C84.86 134.92 77.59 137.69 73.79 139.46C73.7041 139.515 73.6376 139.596 73.6 139.691C73.5623 139.786 73.5553 139.891 73.58 139.99C73.58 139.99 73.65 140.24 73.74 140.6C71.88 140.6 66.31 140.33 64.97 141.6C64.7617 141.89 64.6593 142.243 64.68 142.6C64.6 143.98 65.29 154.7 66.39 157.85C66.96 159.5 68.16 159.32 68.98 157.74C69.9291 155.361 70.5384 152.859 70.79 150.31C70.79 150.18 70.76 150.19 70.77 150.1V150.1ZM69.62 141.15C70.84 141.05 71.22 141.07 73.84 140.99C74.31 142.77 75.28 146.43 75.78 148.3C74.0157 148.573 72.2742 148.978 70.57 149.51C70.039 146.752 69.7214 143.957 69.62 141.15Z" fill="#1E252C"/>
<path d="M162.81 53.63C163.06 53.28 162.74 52.83 162.47 52.48C163.235 51.6933 164.083 50.9925 165 50.39C166.547 49.6189 167.962 48.6062 169.19 47.39C169.7 46.86 170.66 45.77 170.3 45.13C169.94 44.49 169.3 44.45 168.43 44.82C168.807 44.4243 169.115 43.9679 169.34 43.47C169.62 42.69 168.96 42.06 167.53 42.64C168.05 41.81 168.17 40.94 167.29 40.52C166.58 40.18 165.54 40.99 164.94 41.52C163.762 42.5494 162.656 43.6587 161.63 44.84C161 43.52 160 42 158.75 42.48C157.5 42.96 158.47 45.11 159.11 46.28L156.84 47.85C156.497 47.6648 156.109 47.5783 155.72 47.6C153.14 48.04 141.29 57.06 140.09 57.06C139.17 57.06 126.03 50.76 114.67 48.94C114.648 48.8719 114.607 48.8113 114.552 48.7653C114.498 48.7193 114.431 48.6898 114.36 48.68C112.379 48.3419 110.37 48.1912 108.36 48.23C108.299 48.2341 108.24 48.2514 108.186 48.2808C108.133 48.3102 108.086 48.3508 108.05 48.4H107.21C107.01 47.59 106.27 45.72 106.01 45C106.69 44.41 107.63 44.11 108.12 43.16C109.02 41.4 108.98 38.34 108.73 36.38C109.86 35.52 109.89 34.14 109.63 32.73C109.53 32.16 109.22 30.87 108.74 30.55C108.47 30.37 107.9 30.55 107.41 30.73C106.92 29.59 106.92 30.11 107.12 29.65C107.213 29.438 107.267 29.2111 107.28 28.98C107.81 29.14 108.91 28.08 108.53 26.68C108.331 26.1788 108.087 25.6968 107.8 25.24C107.94 24.9 108.24 24.49 107.3 23.24C106.895 22.8033 106.37 22.497 105.79 22.36H105.33C104.998 21.8783 104.511 21.5252 103.95 21.36C103.103 21.144 102.205 21.2698 101.45 21.71C101.25 21.86 101.09 22.06 100.89 22.2C100.438 21.9254 99.919 21.7803 99.39 21.7803C98.861 21.7803 98.3422 21.9254 97.89 22.2C97.6253 22.3039 97.3843 22.4602 97.1815 22.6595C96.9788 22.8589 96.8184 23.0971 96.71 23.36C96.22 23.191 95.7002 23.1259 95.1837 23.1689C94.6671 23.212 94.1652 23.3622 93.71 23.61C91.9825 24.5468 90.6903 26.1225 90.11 28C90.0938 28.2831 90.0938 28.5669 90.11 28.85H90C88.5 28.63 86.59 32.19 88.12 34.96C88.3 35.29 88.53 35.6 88.75 35.96C89.39 36.96 89.14 37.26 90.57 38.48C90.99 38.84 91.06 38.81 91.32 39.03C91.58 39.25 91.48 39.14 91.63 39.7C91.7118 40.0299 91.8582 40.3403 92.0607 40.6132C92.2633 40.8861 92.5179 41.1162 92.81 41.29C92.9163 42.2681 93.3333 43.1864 94 43.91C94.2111 44.1463 94.4573 44.3486 94.73 44.51C94.8036 44.5515 94.8857 44.5754 94.97 44.58C95.27 46.44 95.64 48.86 95.8 49.89L94.91 50.37C93.7455 50.8385 92.6131 51.3831 91.52 52C91.4343 52.0594 91.3737 52.1485 91.35 52.25C90.29 52.81 89.29 53.34 88.72 53.68C80.78 58.39 58.23 89.44 58 90.86C57.9746 90.9414 57.9746 91.0286 58 91.11C58.3232 91.6257 58.717 92.0936 59.17 92.5C59.0304 92.7546 58.8627 92.9928 58.67 93.21C56.67 94.52 53.67 96.47 52.06 98.21C51.9471 98.3107 51.8624 98.4391 51.8142 98.5825C51.766 98.7259 51.7561 98.8794 51.7854 99.0278C51.8147 99.1762 51.8822 99.3144 51.9812 99.4288C52.0802 99.5432 52.2073 99.6298 52.35 99.68C52.65 99.78 52.7 99.75 54.65 98.68C54.1141 99.1501 53.6758 99.7209 53.36 100.36C53.23 100.91 53.73 101.23 54.36 101.13C54.7145 101.037 55.052 100.889 55.36 100.69C55.1796 100.969 55.0837 101.293 55.0837 101.625C55.0837 101.957 55.1796 102.282 55.36 102.56C56.36 103.82 58.98 99.85 60.36 98.87C60.92 99.58 61.68 101.24 62.89 100.8C63.94 100.41 62.79 98.1 62.89 97.43C63.2969 97.0393 63.7313 96.6784 64.19 96.35C64.9614 96.9221 65.8434 97.3274 66.78 97.54C68.43 97.54 85.65 80.16 86.96 78.77C86.49 83.19 84.12 102.16 84.62 105.85C84.85 107.52 88.86 107.76 90.55 107.85C90.04 119.85 89.7 138.03 89.61 138.22C86.96 143.93 86.24 145.49 85.35 147.22C83.73 150.32 76.91 161.76 76.14 164.36C76.03 164.77 76.02 164.93 76.45 165.69C75.1614 167.045 73.9653 168.485 72.87 170C72.32 171 74.68 180.32 76.35 183.62C76.73 184.36 77.35 185.5 78.18 185.47C80.68 185.38 80.67 176.4 80.6 173.89C80.5996 173.813 80.5712 173.738 80.52 173.68C80.9732 173.004 81.4674 172.356 82 171.74C82.3179 171.959 82.6522 172.153 83 172.32C83.34 172.47 83.72 172.21 84 171.98C87.33 169.36 105.29 146.98 109.14 136.42C110.89 131.6 113.22 124.94 113.88 120.22C114.283 117.236 114.32 114.213 113.99 111.22C113.99 111.178 114.007 111.137 114.037 111.107C114.067 111.077 114.108 111.06 114.15 111.06C114.192 111.06 114.233 111.077 114.263 111.107C114.293 111.137 114.31 111.178 114.31 111.22C114.811 114.23 114.908 117.294 114.6 120.33C113.86 126.88 108.69 140.53 105.93 145.55C108.31 145.11 113.15 144.15 115.49 143.45C123.29 141.08 130.49 134.01 131.12 126.07C131.324 122.329 131.324 118.581 131.12 114.84C131.053 109.676 130.381 104.538 129.12 99.53C131.24 98.38 133.18 97.03 133.81 95.79C135.16 93.14 131.59 77.89 130.81 73.61C135.08 74.08 142.35 74.93 145.74 72.28C149.62 69.16 158 60.38 162.81 53.63V53.63ZM80.06 173.34C78.26 172.25 75.74 169.66 75.36 167.63C75.77 167.11 76.2 166.63 76.6 166.09C77.9552 168.158 79.6449 169.986 81.6 171.5C81.0508 172.082 80.5365 172.697 80.06 173.34V173.34ZM159.56 46.56C159.612 46.527 159.649 46.4754 159.664 46.4159C159.679 46.3564 159.67 46.2935 159.64 46.24C159.29 45.59 158.24 43.3 158.97 43.04C159.39 42.88 159.76 43.14 160.07 43.49C160.543 44.0905 160.912 44.7667 161.16 45.49C161.179 45.5488 161.213 45.6015 161.259 45.6424C161.305 45.6832 161.361 45.7108 161.422 45.7221C161.483 45.7334 161.545 45.728 161.603 45.7065C161.661 45.685 161.712 45.6482 161.75 45.6C162.75 44.49 165.09 41.96 166.41 41.28C167.41 40.76 167.65 41.72 165.2 43.96C164.637 44.3891 164.097 44.8463 163.58 45.33C163.552 45.3693 163.536 45.4165 163.536 45.465C163.536 45.5135 163.552 45.5607 163.58 45.6C163.58 45.86 163.79 46.15 164.15 45.88C165.019 45.117 165.938 44.4121 166.9 43.77C167.391 43.4212 167.962 43.2011 168.56 43.13C168.26 44.05 165.47 46.55 165.23 46.83C165.154 46.8982 165.108 46.9936 165.101 47.0956C165.095 47.1976 165.128 47.2981 165.195 47.3754C165.262 47.4528 165.357 47.5007 165.459 47.5091C165.56 47.5174 165.661 47.4854 165.74 47.42C166.85 46.7 168.79 45.02 169.46 45.27C170.13 45.52 168.14 47.38 167.64 47.82C164.77 50.31 165.51 48.71 162.19 52.09C160.745 50.5069 159.085 49.1336 157.26 48.01L159.56 46.56ZM116.11 94.39C115.94 93.01 115.73 91.52 115.47 89.97L115.9 89.4C117.9 86.83 118.5 82.74 118.31 79.53C119.38 84.22 120.23 88.83 120.88 93.41L116.11 94.39ZM101.24 60.15C98.61 58.15 94.38 54.7 91.92 52.34L95.92 50.34C99.593 53.7708 102.737 57.7272 105.25 62.08C109.092 69.1383 111.942 76.6928 113.72 84.53L99.46 64.36L101.32 60.5C101.345 60.4406 101.35 60.375 101.336 60.3122C101.321 60.2495 101.288 60.1928 101.24 60.15ZM108 48.81C108.06 48.92 108.75 50.39 109.8 52.96C109.8 53.07 109.61 55.57 109.52 56.45C108.244 55.9441 107.04 55.2716 105.94 54.45C106.16 53.58 107.15 49.63 107.22 48.74L108 48.81ZM104.45 59.55C104.52 59.37 104.59 59.13 104.67 58.85L105.34 59.2C105.72 59.45 105.57 58.69 105.91 60.89C105.91 61.26 106.01 61.67 106.03 62.12C105.57 61.29 105 60.4 104.46 59.55H104.45ZM103.89 58.71C102.001 56.0304 99.8502 53.5448 97.47 51.29L105 54.56C104.71 55.25 104.29 57.36 103.9 58.71H103.89ZM111.58 64.57C110.58 61.84 109.81 58.79 109.43 57.99C109.453 57.7405 109.453 57.4895 109.43 57.24C109.575 57.2939 109.726 57.3275 109.88 57.34C109.976 57.3411 110.07 57.3073 110.144 57.2448C110.217 57.1823 110.266 57.0954 110.28 57C110.36 56.67 110.49 55 110.51 54.63C113.419 61.9745 115.847 69.5004 117.78 77.16C112.13 65.14 113 68.62 111.59 64.57H111.58ZM119.85 83.66C117.57 72.73 113.56 59.1 109 49C110.675 49.0009 112.347 49.1347 114 49.4C114.85 57 114.14 56.74 114.71 57.04C115.28 57.34 118.71 58.72 119.22 58.93C119.17 59.7 119.89 81.72 119.86 83.66H119.85ZM108.34 31.19C108.861 32.3276 109.045 33.591 108.87 34.83C108.789 35.1454 108.621 35.4319 108.387 35.6579C108.152 35.8838 107.859 36.0401 107.541 36.1096C107.223 36.179 106.892 36.1588 106.584 36.0512C106.277 35.9436 106.005 35.7528 105.8 35.5C105.323 34.4949 104.964 33.4378 104.73 32.35C105 32 107.88 31.3 108.34 31.19V31.19ZM94.58 41.19C94.2147 41.0237 93.8408 40.8768 93.46 40.75C93.2044 40.645 92.9762 40.4828 92.793 40.2759C92.6098 40.069 92.4764 39.8229 92.403 39.5564C92.3297 39.29 92.3183 39.0103 92.3698 38.7388C92.4212 38.4672 92.5342 38.2111 92.7 37.99C93.33 37.46 93.9 37.49 94.42 38.28C94.75 38.89 94.74 38.94 94.89 39C94.933 39.019 94.9796 39.0285 95.0266 39.028C95.0736 39.0275 95.12 39.017 95.1626 38.9971C95.2052 38.9772 95.2431 38.9484 95.2737 38.9127C95.3043 38.877 95.3269 38.8352 95.34 38.79C95.4882 38.1641 95.512 37.5151 95.41 36.88C95.29 36.19 95.27 33.13 95.29 33.03C95.5821 33.184 95.9102 33.2565 96.24 33.24C98.05 33.17 98.41 32.24 99.13 31.48C99.96 31.56 100.13 31.96 101.07 31.48C101.51 31.2296 101.914 30.9201 102.27 30.56C102.557 30.6777 102.835 30.8181 103.1 30.98C103.699 31.2682 104.375 31.3567 105.029 31.2325C105.682 31.1084 106.278 30.778 106.73 30.29C106.84 30.5 106.94 30.71 107.03 30.93C106.111 31.2152 105.246 31.6511 104.47 32.22C104.3 32.43 104.55 33.57 104.61 33.84C103.772 33.9454 102.962 34.2066 102.22 34.61C102.07 34.09 101.74 33.12 101.22 32.85C101.064 32.8021 100.896 32.8021 100.74 32.85C99.84 32.99 96.61 33.96 96.22 34.49C95.88 34.86 96.85 37.72 97.15 38.19C98.3 39.97 101.67 39.45 102.3 37.37C102.456 36.672 102.456 35.9481 102.3 35.25C102.59 35.25 103.46 34.94 103.56 34.91C104.25 36.46 104.45 36.55 105.25 38.22C105.14 38.31 104.96 38.46 104.81 38.56C104.1 39.03 103.95 38.95 103.99 39.15C104.002 39.1897 104.027 39.2238 104.062 39.2459C104.097 39.268 104.139 39.2766 104.18 39.27C104.6 39.21 105.01 39.0957 105.4 38.93C105.634 38.8429 105.826 38.6717 105.94 38.45C106.22 37.82 104.67 35.45 104.06 34.74C104.18 34.74 104.46 34.54 104.67 34.43C104.95 35.55 105.14 36.43 106.22 36.87C106.532 36.9878 106.865 37.0415 107.198 37.0278C107.531 37.014 107.859 36.9331 108.16 36.79C108.32 38.55 108.29 41.41 107.45 42.97C107.02 43.78 105.96 44.09 105.28 44.76C105.08 44.95 105.21 45.22 105.28 45.51C106.39 48.6 106.41 48.59 106.35 48.99C106.056 50.6502 105.645 52.2876 105.12 53.89C104.87 53.78 102.06 52.29 96.56 50.15C96.39 49.02 95.48 42.99 95.19 41.88C95.21 41.49 95.16 41.4 94.58 41.14V41.19ZM101.58 37.11C101.26 38.2 99.75 38.67 98.67 38.37C97.59 38.07 97.52 37.52 97.01 36.22C96.771 35.7234 96.6059 35.1944 96.52 34.65C96.85 34.29 100.46 33.55 100.91 33.48C101.541 34.5597 101.778 35.8251 101.58 37.06V37.11ZM62.45 97.15C62.07 97.52 62.58 98.73 62.66 99.78C62.66 99.87 62.66 100.26 62.6 100.29C62.05 100.47 61.54 99.64 61.23 99.14C60.92 98.64 60.61 97.96 60.12 98.14C59.12 98.61 56.8 101.69 55.89 102.01C55.43 101.13 58.06 98.62 58.15 98.48C58.1886 98.4157 58.2088 98.3421 58.2084 98.2671C58.2081 98.1921 58.1872 98.1187 58.148 98.0548C58.1088 97.9908 58.0529 97.9389 57.9862 97.9045C57.9196 97.8702 57.8448 97.8548 57.77 97.86C57.59 97.86 57.47 98.02 57.19 98.27C56.3383 99.1012 55.3635 99.7961 54.3 100.33C55.2643 99.2238 56.2963 98.1784 57.39 97.2C57.444 97.1445 57.482 97.0754 57.5 97C57.5 97 57.29 96.47 56.88 96.68C56.3 97 53.48 98.63 52.59 99.05C52.47 98.97 52.54 98.85 52.59 98.73C54 97 57.1 94.9 59 93.57C59.223 93.3404 59.4086 93.0772 59.55 92.79C60.8659 94.0143 62.2696 95.1407 63.75 96.16C63.2939 96.459 62.8595 96.7899 62.45 97.15V97.15ZM85.72 106.24C85.5 106.1 85.34 105.97 85.31 105.79C84.76 101.71 87.82 78.59 87.77 77.68C87.77 77.6266 87.7593 77.5738 87.7386 77.5246C87.7179 77.4754 87.6875 77.4308 87.6493 77.3936C87.6111 77.3563 87.5658 77.327 87.5161 77.3075C87.4664 77.288 87.4134 77.2787 87.36 77.28C86.85 77.28 87.75 77.28 75.01 89.48C74.17 90.27 67.75 96.41 66.68 96.82C65.21 96.71 59.68 92.3 58.78 90.91C60.52 87.39 81.62 58.43 88.92 54C89.48 53.66 90.44 53.13 91.49 52.57C91.8531 52.9124 92.2445 53.2236 92.66 53.5C94.98 55.7 98.21 58.44 100.66 60.5L98.75 64.29C98.721 64.3402 98.7058 64.3971 98.7058 64.455C98.7058 64.5129 98.721 64.5698 98.75 64.62C114.26 86.87 114.03 86.62 114.13 86.62C115.124 91.7615 115.743 96.9686 115.98 102.2C115.98 103.61 115.98 103.49 116.04 103.39C116.1 103.29 116.04 103.46 116.04 103.46C113.62 106.1 89.67 108.56 85.72 106.24V106.24ZM141 73.11C136.47 73.74 131.35 72.8 130.36 72.76C129.81 70.0942 128.713 67.5712 127.14 65.35C127.116 65.3176 127.081 65.2955 127.041 65.2881C127.001 65.2807 126.96 65.2885 126.926 65.31C126.892 65.3315 126.867 65.365 126.857 65.404C126.847 65.4429 126.851 65.4843 126.87 65.52C127.45 66.7 129.39 71.79 129.87 73.03C129.72 73.51 134.39 92.82 133.07 95.42C131.89 97.77 125.02 100.73 122.54 101.58C122.05 96.0129 121.248 90.4776 120.14 85C120.48 82.12 120.04 65 119.91 58.67C119.906 58.5965 119.882 58.5255 119.839 58.4653C119.797 58.4052 119.738 58.3582 119.67 58.33L115.18 56.44C115.16 54.0636 115.009 51.69 114.73 49.33C125.94 51.27 139 57.68 140.09 57.69C141.67 57.69 153.41 48.69 155.84 48.33C156.92 48.16 161.56 52.21 162.1 53.33C157.36 59.95 149.03 68.65 145.17 71.66C143.927 72.4914 142.491 72.9906 141 73.11V73.11Z" fill="#1E252C"/>
<path d="M100.55 35.11C100.538 35.0443 100.512 34.9818 100.476 34.9259C100.439 34.87 100.392 34.8219 100.336 34.7843C100.281 34.7467 100.219 34.7203 100.154 34.7067C100.088 34.6931 100.021 34.6925 99.955 34.705C99.8893 34.7175 99.8268 34.7428 99.7709 34.7794C99.715 34.8161 99.6669 34.8634 99.6293 34.9186C99.5917 34.9739 99.5653 35.036 99.5517 35.1014C99.5381 35.1669 99.5375 35.2343 99.55 35.3C99.75 36.3 99.79 36.53 100.23 36.53C100.313 36.5303 100.395 36.5098 100.468 36.4705C100.542 36.4311 100.604 36.3741 100.65 36.3046C100.695 36.2351 100.723 36.1553 100.73 36.0724C100.737 35.9896 100.723 35.9062 100.69 35.83C100.66 35.67 100.57 35.2 100.55 35.11V35.11ZM103.61 41.73C104.26 41.92 104.88 41.61 104.86 41.45C104.84 41.29 104.86 41.37 103.98 41.04C103.39 40.82 102.74 40.04 102.51 40.16C102.28 40.28 102.63 40.92 102.71 41.04C102.924 41.3646 103.241 41.6077 103.61 41.73V41.73ZM121.9 32.23C120.59 37.72 119.63 42.38 119.47 43.31C119.364 43.7146 119.343 44.137 119.41 44.55C119.94 45.68 126.79 47.91 127.66 47.47C128.53 47.03 130.79 41.94 133.42 36.69C135.031 36.7415 136.643 36.6242 138.23 36.34C139.901 36.0335 141.527 35.5195 143.07 34.81C146.45 33.25 150.15 26.57 150.65 23.21C151.025 19.5621 150.252 15.888 148.44 12.7C140.05 -1.84999 115.44 5.98001 117.44 22.14C118.011 25.8377 119.55 29.3187 121.9 32.23V32.23ZM128 44.14C128 44.3 127.82 44.28 127 44.14C125.323 43.9292 123.699 43.4105 122.21 42.61C121.51 42.23 121.32 42.15 121.39 41.98C121.46 41.81 121.61 41.87 122.69 42.17C122.79 42.17 125.89 43.17 126.78 43.48C127.93 44 128 44 128 44.14V44.14ZM127.82 27.87C128.888 27.9254 129.952 27.705 130.91 27.23C131.8 27.6614 132.764 27.9225 133.75 28C132.07 31.13 128.66 37.51 127.56 40.91L123.32 39.74C124.32 37.28 126.53 31.52 127.8 27.87H127.82ZM127.47 27.04C126.724 26.9272 126.035 26.5727 125.509 26.0308C124.983 25.4889 124.65 24.7896 124.56 24.04C124.28 22.04 125.56 19.8 127.49 20.33C128.7 20.66 128.85 21.62 128.64 22.83C128.46 23.71 127.81 25.92 127.45 27L127.47 27.04ZM130.19 24.64C130.297 23.9857 130.542 23.3617 130.91 22.81C131.085 22.5093 131.341 22.2636 131.648 22.101C131.956 21.9384 132.303 21.8653 132.65 21.89C133.39 22.11 133.71 23.51 133.1 24.39C132.514 25.168 131.784 25.8265 130.95 26.33C130.663 26.1616 130.435 25.9094 130.295 25.6073C130.156 25.3052 130.112 24.9676 130.17 24.64H130.19ZM121 11.93C125.48 6.54001 133.91 4.40001 140 6.62001C143.308 7.75565 146.091 10.0551 147.83 13.09C149.554 16.1236 150.292 19.6185 149.94 23.09C149.48 26.2 145.94 32.66 142.83 34.09C139.987 35.387 136.884 36.0164 133.76 35.93C133.42 35.93 133.06 35.93 132.93 36.17C132.34 37.37 131.26 39.69 130.2 41.87C129.468 41.5166 128.709 41.2223 127.93 40.99C129.09 37.67 132.75 31.15 134.49 27.99C135.998 28.1192 137.513 27.8574 138.89 27.23C139.262 27.0342 139.57 26.7363 139.779 26.3713C139.988 26.0064 140.088 25.5895 140.068 25.1695C140.048 24.7496 139.909 24.3441 139.667 24.0005C139.424 23.657 139.089 23.3897 138.7 23.23C137.15 22.47 135.76 24.29 134.95 25.82C134.73 26.22 134.48 26.69 134.2 27.22C133.391 27.1669 132.594 27.002 131.83 26.73C132.591 26.1955 133.265 25.5481 133.83 24.81C134.147 24.3319 134.307 23.7673 134.289 23.1941C134.271 22.6209 134.076 22.0674 133.73 21.61C133.458 21.2945 133.081 21.0889 132.669 21.0319C132.256 20.9748 131.837 21.0701 131.49 21.3C130.79 21.7303 130.228 22.3536 129.874 23.0951C129.519 23.8366 129.386 24.6647 129.49 25.48C129.599 25.9402 129.847 26.3558 130.2 26.67C129.544 26.9417 128.84 27.0777 128.13 27.07C128.53 25.89 129.18 23.76 129.35 22.89C129.457 22.394 129.48 21.8837 129.42 21.38C129.343 20.9476 129.142 20.5467 128.842 20.2256C128.542 19.9045 128.156 19.6768 127.73 19.57C125.3 18.88 123.51 21.57 123.86 24.08C123.959 24.9795 124.345 25.8232 124.961 26.486C125.577 27.1489 126.39 27.5956 127.28 27.76C126 31.36 124 37.17 123 39.65L120.8 39.08C122.21 32 122.38 32.17 122.18 32.08C119.908 29.183 118.454 25.7298 117.97 22.08C117.734 20.2703 117.882 18.4312 118.404 16.6824C118.926 14.9336 119.811 13.3144 121 11.93V11.93ZM134.88 27.28C135.58 26.01 136.98 23.23 138.34 23.91C138.612 24.0196 138.849 24.2014 139.025 24.4358C139.201 24.6702 139.31 24.9483 139.34 25.24C139.32 27 136.58 27.31 134.84 27.28H134.88ZM173.16 31.69C174.365 30.9813 175.788 30.7393 177.16 31.01C178.667 31.037 180.106 31.6394 181.182 32.6937C182.259 33.748 182.891 35.1743 182.95 36.68C182.044 36.1543 180.985 35.9566 179.95 36.12C177.44 36.34 174.16 37.7 174.6 40.12C174.96 42.12 177.6 41.85 179.6 41.31C181.6 40.77 183.19 39.79 183.6 37.86C186.03 39.63 186.6 42.73 186.7 45.76C186.7 45.8024 186.717 45.8431 186.747 45.8731C186.777 45.9032 186.818 45.92 186.86 45.92C186.902 45.92 186.943 45.9032 186.973 45.8731C187.003 45.8431 187.02 45.8024 187.02 45.76C187.09 42.37 186.48 39.05 183.71 37.12C183.739 36.2518 183.591 35.3868 183.275 34.5775C182.959 33.7681 182.483 33.0312 181.874 32.4113C181.266 31.7915 180.538 31.3016 179.734 30.9714C178.931 30.6411 178.069 30.4774 177.2 30.49C175.812 30.2873 174.396 30.5774 173.2 31.31C172.83 31.49 173 31.76 173.16 31.69V31.69ZM182.28 38.86C181.15 40.34 177.95 41.11 176.47 40.86C175.92 40.77 175.47 40.54 175.35 39.97C174.99 37.97 178.44 36.88 180.5 36.81C181.339 36.7457 182.175 36.9601 182.88 37.42C182.804 37.9428 182.598 38.4381 182.28 38.86V38.86ZM168.58 20C169.65 18.68 168.93 16.38 165.94 16.37C164.78 16.37 164.22 17.55 164.3 18.68C164.48 21.37 167.51 21.29 168.58 20V20ZM165 18.63C165 17.97 165.31 17.11 166 17.12C167.61 17.12 168.35 17.87 168.35 18.7C168.31 20.59 164.87 21.57 165 18.63V18.63ZM164.59 132C155.8 128.49 151.72 145.48 144.54 160.08C144.495 160.694 144.515 161.311 144.6 161.92C144.6 163.45 144.77 173.58 145.66 174.73C145.9 175.19 146.91 174.73 147.38 174.44C151.372 171.969 155.134 169.144 158.62 166C158.65 165.966 158.672 165.926 158.686 165.883C158.7 165.84 158.704 165.795 158.7 165.75C160.56 163.1 167.53 149.3 169.22 142.38C170.4 137.48 169.23 133.83 164.59 132V132ZM167.73 144.7C163.024 144.097 158.474 142.611 154.32 140.32C156.66 135.89 159.55 130.84 164.32 132.74C169.63 134.85 169.52 139.22 167.73 144.67V144.7ZM151.09 170.7C150.783 170.443 150.447 170.221 150.09 170.04C148.739 169.353 147.177 169.203 145.72 169.62C145.62 168.43 145.05 160.69 145.05 160.62C152.54 163.36 150.23 162.17 157.65 165.86C156.87 166.6 153.94 168.65 151.09 170.68V170.7ZM156.25 141.76C157.225 142.293 158.227 142.777 159.25 143.21C156.958 146.81 154.932 150.574 153.19 154.47C151.51 157.98 151.57 157.96 149.86 161.79C148.86 161.47 147.86 161.17 146.86 160.87C147.94 158.72 155.62 143 156.25 141.74V141.76ZM150.25 161.89C153.5 156.06 156.81 148.81 159.65 143.34C160.65 143.76 161.65 144.1 162.65 144.4C162.12 145.4 160.57 148.06 160.16 148.83C159.75 149.6 155.64 157.7 155.35 158.32C154.89 159.32 153.63 162.11 153.24 163C152.22 162.55 151.24 162.21 150.21 161.87L150.25 161.89ZM153.6 163.13C154.21 162.02 156.72 157.36 157.03 156.76C157.5 155.83 162.74 145.12 163.03 144.5C163.95 144.76 164.92 144.98 165.54 145.1C163.71 150.1 158.44 159.73 156.54 164.48C154.81 163.67 154.42 163.47 153.56 163.11L153.6 163.13ZM154.21 140.61L156 141.61C152.393 147.753 149.251 154.158 146.6 160.77L145.1 160.31C150.91 147.93 151.18 146.31 154.17 140.59L154.21 140.61ZM158.33 165.35L156.82 164.63C158.45 161.43 163.55 153.22 165.88 145.17C166.44 145.27 166.99 145.36 167.52 145.43C164.95 152.287 161.865 158.939 158.29 165.33L158.33 165.35ZM127 171.84C127.399 171.51 127.683 171.063 127.814 170.563C127.945 170.062 127.916 169.533 127.73 169.05C127.645 168.353 127.326 167.706 126.824 167.215C126.322 166.724 125.669 166.419 124.97 166.349C124.272 166.279 123.57 166.449 122.981 166.831C122.392 167.213 121.951 167.784 121.73 168.45C120.45 167.62 119.06 166.74 117.73 165.9C118.73 164.57 121.67 165.16 121.97 166.25C121.977 166.292 122 166.331 122.035 166.356C122.069 166.381 122.113 166.392 122.155 166.385C122.197 166.378 122.236 166.355 122.261 166.32C122.286 166.286 122.297 166.242 122.29 166.2C122.14 164.46 118.52 163.44 117.06 165.49C115.77 164.7 114.17 163.74 112.83 163.01C113.98 162.01 116.55 162.57 116.83 163.61C116.843 163.646 116.869 163.675 116.902 163.694C116.935 163.713 116.973 163.719 117.01 163.712C117.048 163.704 117.081 163.684 117.105 163.655C117.129 163.625 117.141 163.588 117.14 163.55C117.01 161.93 113.66 160.84 112.14 162.62C111.503 162.263 110.833 161.968 110.14 161.74C110.013 161.687 109.874 161.673 109.739 161.698C109.604 161.722 109.48 161.786 109.38 161.88C106.85 165.03 98.32 173.21 94.38 174.16C94.281 174.175 94.1876 174.216 94.1093 174.278C94.031 174.341 93.9706 174.423 93.9341 174.516C93.8976 174.609 93.8863 174.71 93.9014 174.809C93.9165 174.909 93.9574 175.002 94.02 175.08C94.8852 175.958 95.876 176.703 96.96 177.29C95.96 178.29 95.18 179.19 94.6 179.84C94.3 180.16 94.14 186.28 94.4 187.63C94.4387 187.762 94.524 187.876 94.64 187.95C95.9 188.81 112.13 195.83 113.79 194.89C114.9 194.26 128.15 180.47 128.36 180.05C128.68 179.39 128.57 174.99 128.55 173.23C128.47 172.7 127.48 172.13 127 171.84V171.84ZM95 185.05V182.82C99.15 184.82 108.65 188.9 112.25 190.04C113.17 190.34 113.25 190.3 113.73 190.04C116.48 188.28 126.19 177.34 127.97 175.67V177.78C122.57 183.19 113.4 192.67 113.23 192.13C112.24 192.07 95.86 185.45 95 185.05ZM126.75 168.47C127.11 169.076 127.303 169.766 127.31 170.47C127.307 170.694 127.252 170.914 127.149 171.114C127.047 171.313 126.9 171.486 126.72 171.62C125.88 171.06 124.29 170.02 122.41 168.8C123.44 166.77 125.73 166.74 126.71 168.47H126.75ZM94.75 174.87C99.01 173.61 107.1 165.81 109.82 162.43C110.475 162.612 111.106 162.871 111.7 163.2C110.7 165.06 111.77 167.1 112.15 166.81C112.36 166.65 111.98 166.59 111.92 165.61C111.894 164.894 112.056 164.184 112.39 163.55C113.77 164.27 115.39 165.21 116.76 166C115.92 167.87 116.93 169.72 117.28 169.45C117.63 169.18 117.12 169.24 117.06 168.26C117.036 167.617 117.159 166.978 117.42 166.39C118.83 167.22 120.27 168.08 121.59 168.89C121.387 169.388 121.306 169.928 121.355 170.464C121.403 171 121.58 171.517 121.87 171.97C121.883 171.987 121.9 172.001 121.918 172.012C121.937 172.023 121.957 172.03 121.979 172.033C122 172.035 122.022 172.034 122.043 172.028C122.063 172.023 122.083 172.013 122.1 172C122.117 171.987 122.131 171.971 122.142 171.952C122.153 171.933 122.16 171.913 122.163 171.891C122.165 171.87 122.164 171.848 122.158 171.827C122.153 171.807 122.143 171.787 122.13 171.77C121.95 171.373 121.862 170.94 121.87 170.504C121.879 170.068 121.985 169.64 122.18 169.25C124.51 170.67 126.39 171.86 126.97 172.25C126.86 172.35 116.43 181.63 112.88 184.39C110.55 183.78 98.32 177.71 94.75 174.87ZM95.13 180.44C99.66 182.44 109.95 187.08 112.32 187.53C112.73 187.61 112.89 187.64 113.67 187.02C117 184.35 127.83 173.02 127.93 173.14C127.935 173.17 127.935 173.2 127.93 173.23V175.23C125.7 177.02 113.3 190.04 113.1 189.42C112.1 189.42 95.85 182.79 95.02 182.42C95 182 95.09 180.88 95.13 180.44V180.44ZM113.34 194.22C112.34 194.79 97.11 188.6 95.07 187.34C94.9934 186.703 94.9567 186.062 94.96 185.42C99.34 187.58 112.08 192.96 113.25 192.91C114.96 192.82 127.05 179.21 127.91 178.26C127.92 178.771 127.87 179.281 127.76 179.78C127.59 180.11 114 193.85 113.34 194.22V194.22ZM30.49 137.85C30.56 138.92 30.61 139.85 30.61 140.72C30.61 140.853 30.6627 140.98 30.7565 141.074C30.8502 141.167 30.9774 141.22 31.11 141.22C31.2426 141.22 31.3698 141.167 31.4636 141.074C31.5573 140.98 31.61 140.853 31.61 140.72C31.61 139.79 31.56 138.87 31.49 137.78C31.4807 137.647 31.4191 137.524 31.3188 137.437C31.2185 137.349 31.0876 137.306 30.955 137.315C30.8224 137.324 30.6989 137.386 30.6117 137.486C30.5245 137.587 30.4807 137.717 30.49 137.85V137.85ZM182.86 117.8C182.795 117.804 182.731 117.821 182.672 117.849C182.613 117.878 182.561 117.919 182.518 117.968C182.475 118.017 182.443 118.075 182.423 118.137C182.402 118.199 182.395 118.265 182.4 118.33C182.46 119.25 182.52 120.24 182.52 121.2C182.52 121.333 182.573 121.46 182.666 121.554C182.76 121.647 182.887 121.7 183.02 121.7C183.153 121.7 183.28 121.647 183.374 121.554C183.467 121.46 183.52 121.333 183.52 121.2C183.52 120.2 183.46 119.2 183.39 118.26C183.386 118.195 183.369 118.131 183.341 118.072C183.312 118.013 183.271 117.961 183.222 117.918C183.173 117.875 183.115 117.843 183.053 117.823C182.991 117.802 182.925 117.795 182.86 117.8V117.8ZM27.9 135.36C28.0326 135.36 28.1598 135.307 28.2536 135.214C28.3473 135.12 28.4 134.993 28.4 134.86C28.4 134.727 28.3473 134.6 28.2536 134.506C28.1598 134.413 28.0326 134.36 27.9 134.36C26.69 134.36 25.68 134.45 24.68 134.43C24.5465 134.43 24.4182 134.482 24.3229 134.576C24.2275 134.669 24.1726 134.796 24.17 134.93C24.17 135.063 24.2227 135.19 24.3165 135.284C24.4102 135.377 24.5374 135.43 24.67 135.43C25.7 135.45 26.83 135.41 27.9 135.36ZM179.76 114.84C178.56 114.84 177.55 114.91 176.54 114.92C176.407 114.92 176.28 114.973 176.186 115.066C176.093 115.16 176.04 115.287 176.04 115.42C176.04 115.553 176.093 115.68 176.186 115.774C176.28 115.867 176.407 115.92 176.54 115.92C177.62 115.92 178.74 115.92 179.82 115.84C179.953 115.832 180.077 115.772 180.165 115.672C180.253 115.573 180.298 115.443 180.29 115.31C180.282 115.177 180.222 115.053 180.122 114.965C180.023 114.877 179.893 114.832 179.76 114.84V114.84ZM30.22 129.18C30.28 130.1 30.34 131.09 30.34 132.05C30.3426 132.182 30.3961 132.308 30.4893 132.401C30.5825 132.494 30.7082 132.547 30.84 132.55C30.9726 132.55 31.0998 132.497 31.1936 132.404C31.2873 132.31 31.34 132.183 31.34 132.05C31.34 131.05 31.28 130.05 31.22 129.11C31.2107 128.977 31.1491 128.854 31.0488 128.767C30.9485 128.679 30.8176 128.636 30.685 128.645C30.5524 128.654 30.4289 128.716 30.3417 128.816C30.2545 128.917 30.2107 129.047 30.22 129.18V129.18ZM183.25 112.53C183.25 111.53 183.19 110.53 183.12 109.59C183.111 109.457 183.049 109.334 182.949 109.247C182.848 109.159 182.718 109.116 182.585 109.125C182.452 109.134 182.329 109.196 182.242 109.296C182.154 109.397 182.111 109.527 182.12 109.66C182.18 110.58 182.24 111.57 182.24 112.53C182.24 112.663 182.293 112.79 182.386 112.884C182.48 112.977 182.607 113.03 182.74 113.03C182.874 113.03 183.002 112.978 183.097 112.884C183.192 112.791 183.247 112.664 183.25 112.53V112.53ZM37.6 135.23C37.6657 135.227 37.7302 135.212 37.7899 135.184C37.8496 135.157 37.9032 135.118 37.9478 135.07C37.9924 135.021 38.027 134.965 38.0497 134.903C38.0724 134.841 38.0827 134.776 38.08 134.71C38.0699 134.579 38.0107 134.457 37.9143 134.368C37.8178 134.279 37.6913 134.23 37.56 134.23C36.35 134.28 35.34 134.32 34.33 134.3C34.1974 134.3 34.0702 134.353 33.9765 134.446C33.8827 134.54 33.83 134.667 33.83 134.8C33.83 134.933 33.8827 135.06 33.9765 135.154C34.0702 135.247 34.1974 135.3 34.33 135.3C35.4 135.32 36.52 135.28 37.6 135.23ZM189.46 114.71C188.46 114.76 187.35 114.79 186.24 114.79C186.174 114.787 186.108 114.798 186.046 114.821C185.985 114.845 185.928 114.88 185.881 114.926C185.833 114.972 185.795 115.027 185.769 115.088C185.743 115.149 185.73 115.214 185.73 115.28C185.73 115.414 185.782 115.542 185.876 115.637C185.969 115.732 186.096 115.787 186.23 115.79C187.37 115.79 188.29 115.79 189.5 115.71C189.566 115.707 189.63 115.692 189.69 115.664C189.75 115.637 189.803 115.598 189.848 115.55C189.892 115.501 189.927 115.445 189.95 115.383C189.972 115.321 189.983 115.256 189.98 115.19C189.968 115.06 189.908 114.939 189.812 114.851C189.716 114.762 189.591 114.712 189.46 114.71V114.71ZM14.62 105.6C14.75 105.7 42.95 101.52 44.16 100.78C44.227 100.731 44.2805 100.666 44.3155 100.591C44.3505 100.516 44.3658 100.433 44.36 100.35C44.36 99.06 42.67 86.95 41.86 83.93C41.76 83.56 41.66 83.19 41.43 83.06C39.9 82.14 12.94 87.22 11.33 88.26C11.2864 88.2858 11.2487 88.3205 11.2194 88.3619C11.1901 88.4032 11.1699 88.4503 11.16 88.5C10.82 89.71 13.75 105 14.62 105.6V105.6ZM11.77 88.74C13.69 87.87 38.16 83.39 40.96 83.74C41.64 85.49 43.46 98.31 43.58 100.19C42.19 100.6 15 105.27 14.9 105.29C14.8 105.31 14.79 105.43 14.58 104.8C13.7 102.16 11.72 91 11.77 88.74V88.74Z" fill="#1E252C"/>
<path d="M46.36 101.67C46.4144 101.569 46.4387 101.454 46.43 101.34C46.43 99.75 44.15 82.1 43.34 80.69C43.2765 80.5861 43.1866 80.5008 43.0795 80.4428C42.9723 80.3848 42.8518 80.3563 42.73 80.36C39.38 79.95 11.12 85.47 9.26 86.76C9 86.94 9.04 87.39 9.07 87.87C9.23 90.5 12.07 107.8 13.07 107.7C13.18 107.7 13.14 107.62 12.88 108.15C11.32 111.36 8.36 121.64 8.42 123.71C8.42 124.58 8.62 125.71 9.48 125.65C15.65 124.89 45.9 120.09 54.6 118.3C54.94 118.23 55.16 117.92 55.15 117.41C55.0473 116.56 54.7897 115.737 54.39 114.98C53.17 112.69 48.11 103.62 46.36 101.67ZM13.13 107.39C12.35 106.39 9.48 89.16 9.7 87.25C11.9 86.11 39.78 80.72 42.7 81.16C43.5 83.36 45.57 99.25 45.7 101.16C42.16 102.38 17.65 106.34 13.13 107.39ZM13.57 107.69C14.41 107.48 43.02 102.69 45.64 102C47.07 103.33 53.53 114.82 53.95 115.8C48.21 116.8 14.16 122.49 9.15 123.25C9.22 120.22 12.33 109.63 13.57 107.69V107.69Z" fill="#1E252C"/>
<path d="M17.33 118.06C18.2 117.93 36.66 115.71 43.33 113.9C43.3711 113.889 43.4063 113.863 43.4279 113.826C43.4495 113.79 43.4556 113.746 43.445 113.705C43.4344 113.664 43.4079 113.629 43.3713 113.607C43.3348 113.586 43.2911 113.579 43.25 113.59C41.94 113.86 25.96 115.99 17.31 117.75C17.2861 117.746 17.2616 117.747 17.2382 117.754C17.2148 117.76 17.1933 117.772 17.1751 117.788C17.157 117.804 17.1428 117.824 17.1336 117.847C17.1244 117.869 17.1205 117.894 17.122 117.918C17.1236 117.942 17.1306 117.966 17.1427 117.987C17.1547 118.008 17.1713 118.026 17.1914 118.04C17.2114 118.053 17.2343 118.062 17.2583 118.066C17.2824 118.069 17.3069 118.067 17.33 118.06V118.06ZM30.82 48.48C30.4464 49.3237 30.1323 50.1925 29.88 51.08C29.8651 51.2224 29.9044 51.3652 29.99 51.48C31 53 41.35 64.67 44.05 66.31C44.42 66.54 44.86 66.7 45.13 66.37C47.0914 63.9295 49.6511 62.0381 52.56 60.88C54.9276 60.0423 57.4099 59.5735 59.92 59.49C61.92 59.31 62.27 59.11 63.04 57.8C63.9483 56.076 65.1534 54.5256 66.6 53.22C68.4445 51.6072 70.4919 50.2423 72.69 49.16C72.789 49.1039 72.8663 49.0164 72.9098 48.9113C72.9533 48.8062 72.9604 48.6896 72.93 48.58C72.592 47.7198 72.145 46.9065 71.6 46.16C71.96 46.04 72.36 45.93 72.36 45.57C72.36 44.57 63.64 31.95 61.22 29.57C60.97 29.32 60.61 28.99 60.28 29.01C55.28 29.29 50.41 34.01 47.59 38.13C44.36 38.01 42.27 37.72 38.59 39.27C35.9921 40.3728 33.6499 42.0001 31.71 44.05C31.41 44.36 29.37 46.52 29.34 46.69C29.31 46.86 29.37 46.86 30.82 48.48V48.48ZM70.82 48.2C66.65 48.91 63.99 52.38 62.03 56.15C61.16 57.83 61.24 57.91 60.32 57.89C58.7112 57.7989 57.0975 57.8591 55.5 58.07C54.3283 58.2451 53.1763 58.5331 52.06 58.93C49.52 59.83 46.61 62.71 45.06 64.85C45.0271 64.894 44.9852 64.9306 44.9372 64.9573C44.8891 64.984 44.836 65.0002 44.7812 65.005C44.7264 65.0097 44.6713 65.0028 44.6194 64.9847C44.5675 64.9666 44.52 64.9377 44.48 64.9C41.23 61.55 35.48 55.67 32.59 52.29C32.45 52.14 32.69 51.92 32.83 52.08C34.7 54.08 39.53 58.87 44.71 64.08C46.46 61.85 49.16 59.15 51.83 58.21C53.286 57.6907 54.801 57.3547 56.34 57.21C57.7813 57.1005 59.2287 57.1005 60.67 57.21C61.26 56.53 64.18 48.81 70.8 47.95C70.8194 47.9642 70.8353 47.9826 70.8466 48.0039C70.8579 48.0251 70.8643 48.0486 70.8652 48.0726C70.8662 48.0966 70.8617 48.1205 70.8521 48.1426C70.8426 48.1647 70.8282 48.1843 70.81 48.2H70.82ZM60.27 29.82C62.27 31.22 70.41 43.27 71.47 45.38C69.6307 45.9628 67.855 46.73 66.17 47.67C64.5744 48.4699 63.1773 49.6157 62.0805 51.0238C60.9837 52.432 60.2149 54.0671 59.83 55.81C56.24 49.97 51.23 43.54 47.9 38.81C48.1 38.68 53.72 30.21 60.27 29.82V29.82ZM38.81 39.82C42.46 38.35 44.48 38.69 47.5 38.82C50.5 43.94 55.89 51.16 59.44 55.89C56.1635 55.1147 52.7156 55.5889 49.77 57.22C48 58.22 45.84 60.62 44.51 62.11C42.59 60.57 31.51 48.77 29.73 46.77C32.47 43.67 35 41.34 38.81 39.78V39.82ZM20.51 65.25C20.2629 65.0765 19.9707 64.9786 19.6689 64.9679C19.3671 64.9573 19.0688 65.0344 18.81 65.19C18.6216 65.274 18.4515 65.3944 18.3096 65.5442C18.1676 65.6939 18.0566 65.8702 17.9828 66.0629C17.9089 66.2555 17.8738 66.4609 17.8793 66.6671C17.8849 66.8734 17.931 67.0766 18.015 67.265C18.0991 67.4534 18.2194 67.6235 18.3692 67.7654C18.5189 67.9074 18.6952 68.0184 18.8879 68.0922C19.0805 68.1661 19.2859 68.2012 19.4921 68.1957C19.6984 68.1902 19.9016 68.144 20.09 68.06C20.3911 67.9942 20.665 67.8384 20.8755 67.6133C21.086 67.3883 21.2231 67.1045 21.2686 66.7998C21.3142 66.495 21.266 66.1836 21.1305 65.9068C20.9951 65.63 20.7786 65.401 20.51 65.25V65.25ZM19.85 67.25C19.15 67.47 18.73 67.25 18.56 66.91C18.24 66.2 18.64 65.11 19.68 65.43C20.41 65.7 21 66.93 19.85 67.3V67.25ZM71.36 19.49C71.65 20.08 73 19.86 73.59 19.67C73.9 19.57 74.1 19.46 74.13 19.16C74.22 18.41 74.32 11.91 73.98 11.28C73.9449 11.2139 73.891 11.1597 73.8252 11.1241C73.7594 11.0886 73.6845 11.0732 73.61 11.08C72.5431 11.077 71.4816 11.2321 70.46 11.54C70.05 11.79 71 18.83 71.36 19.49ZM70.67 11.78C71.5937 11.6478 72.528 11.6043 73.46 11.65C73.52 12.39 73.36 18.8 73.35 18.9C72.9275 19.0514 72.4764 19.1061 72.03 19.06C71.96 18.83 71.84 18.21 71.69 17.43C71.2494 15.5662 70.9089 13.6802 70.67 11.78V11.78ZM19.54 56.81C19.636 56.8591 19.7422 56.8848 19.85 56.8848C19.9578 56.8848 20.0641 56.8591 20.16 56.81C20.5463 56.5717 20.8528 56.2235 21.04 55.81C21.0654 55.7438 21.0733 55.6722 21.0628 55.6021C21.0523 55.532 21.0237 55.4658 20.98 55.41C20.5 54.84 15.26 48.77 14.62 49.15C13.8342 49.6587 13.0887 50.227 12.39 50.85C12.3619 50.8752 12.3393 50.906 12.3238 50.9404C12.3083 50.9749 12.3002 51.0122 12.3 51.05C12.28 51.57 18.1 56.23 19.54 56.81V56.81ZM14.74 49.41C15.47 49.94 17.93 52.98 20.21 55.67C20.1119 55.8245 19.9905 55.9628 19.85 56.08C17.4529 54.5458 15.1641 52.8484 13 51C13.5425 50.4304 14.1239 49.8991 14.74 49.41V49.41ZM30.45 27.35C30.67 23.47 32.93 21.67 35.29 21.21C34.62 23.67 34.73 26.87 37.16 27.28C38.32 27.47 38.89 26.87 39.73 26.17C43.32 23.17 40.42 20.17 36.37 20.38C37.88 16.24 41.37 12.87 46 12.76C46.0424 12.76 46.0831 12.7431 46.1131 12.7131C46.1431 12.6831 46.16 12.6424 46.16 12.6C46.16 12.5576 46.1431 12.5169 46.1131 12.4869C46.0831 12.4569 46.0424 12.44 46 12.44C41 12.34 37.07 15.94 35.52 20.44C32.85 20.9 30.2 22.9 30.13 27.29C30.1261 27.311 30.1263 27.3326 30.1307 27.3535C30.1351 27.3744 30.1436 27.3943 30.1557 27.4119C30.1677 27.4296 30.1832 27.4447 30.2011 27.4563C30.219 27.468 30.239 27.4761 30.26 27.48C30.281 27.4839 30.3026 27.4837 30.3235 27.4793C30.3444 27.4749 30.3643 27.4664 30.3819 27.4543C30.3996 27.4423 30.4147 27.4268 30.4263 27.4089C30.438 27.391 30.4461 27.371 30.45 27.35V27.35ZM36.14 21.09C37.63 20.99 39.85 21.45 40.46 22.8C40.81 23.57 40.46 24.52 39.22 25.56C38.8834 25.8973 38.4993 26.1836 38.08 26.41C36.58 27.05 34.92 25.2 36.14 21.09ZM39 162.52C38.0339 162.261 37.0257 162.198 36.0349 162.335C35.0441 162.472 34.0906 162.805 33.2306 163.316C32.3705 163.826 31.6213 164.504 31.027 165.308C30.4327 166.113 30.0053 167.028 29.77 168C29.3258 170.02 29.702 172.133 30.816 173.875C31.93 175.617 33.6904 176.846 35.71 177.29C37.7296 177.734 39.843 177.358 41.5852 176.244C43.3274 175.13 44.5558 173.37 45 171.35C45.1898 170.376 45.1849 169.374 44.9855 168.402C44.7862 167.43 44.3965 166.506 43.8387 165.686C43.2809 164.865 42.5662 164.162 41.7358 163.619C40.9053 163.076 39.9755 162.702 39 162.52V162.52ZM42.09 170.67C41.6888 172.27 40.7282 173.674 39.382 174.628C38.0358 175.582 36.3928 176.022 34.75 175.87C33.242 175.281 31.9901 174.179 31.2146 172.757C30.439 171.336 30.1895 169.687 30.51 168.1C30.8842 166.461 31.8358 165.011 33.1909 164.016C34.546 163.021 36.214 162.547 37.89 162.68C39.4129 163.309 40.665 164.455 41.426 165.917C42.1869 167.378 42.4079 169.062 42.05 170.67H42.09Z" fill="#1E252C"/>
<path d="M52.32 165.37C51.4494 165.07 50.5164 164.997 49.61 165.16C49.2343 164.299 48.7719 163.478 48.23 162.71C48.88 162.12 50.66 160.48 50.23 159.71C48.6997 157.88 46.8828 156.309 44.85 155.06C44.0012 154.584 43.0665 154.282 42.1 154.17C41.46 154.26 39.94 156.75 39.6 157.31C39.38 157.31 38.6 157.06 38.54 157.03C38.54 156.31 38.33 153.71 37.68 153.41C36.9531 153.142 36.1983 152.958 35.43 152.86C34.72 152.75 28.33 153.92 27.86 154.78C27.55 155.36 28.27 157.55 28.48 158.16C27.9407 158.457 27.4227 158.791 26.93 159.16C25.93 159.87 26.2 159.84 26.02 159.76C25.8024 159.656 25.5694 159.589 25.33 159.56C24.5312 159.092 23.5946 158.915 22.68 159.06C21.76 159.36 19.59 164.3 19.24 165.57C19.1254 165.89 19.0945 166.234 19.15 166.57C19.39 167.23 20.99 167.76 21.66 167.97C21.475 169.257 21.475 170.563 21.66 171.85C20.78 172.09 18.95 172.63 19.05 173.53C19.15 174.43 21.49 180.37 22.46 180.84C22.9914 181.137 23.579 181.32 24.1851 181.377C24.7913 181.434 25.4026 181.363 25.98 181.17C26.3052 181.008 26.6192 180.824 26.92 180.62C27.32 180.92 27.74 181.19 28.17 181.45C27.86 182.22 27.17 183.94 27.39 184.72C27.5 185.13 27.83 185.26 28.29 185.43C29.56 185.89 36.4 187.53 37.44 187.35C37.83 187.29 38.04 186.88 38.16 186.49C38.3822 185.602 38.5129 184.694 38.55 183.78C39.0636 183.729 39.5742 183.653 40.08 183.55C40.3889 184.094 40.784 184.583 41.25 185C41.76 185.36 42.19 185.18 42.77 184.81C43.05 185.17 43.47 185.67 43.92 185.72C45.05 185.85 49.72 181.45 50.2 180.55C50.6 179.8 49.14 178.46 48.49 177.87C49.1931 176.812 49.7451 175.661 50.13 174.45C50.8512 174.559 51.5812 174.599 52.31 174.57C52.64 174.57 53.02 174.45 53.16 174.14C53.77 172.75 53.59 167.48 53.16 166.14C53.1 165.75 52.65 165.49 52.32 165.37V165.37ZM52.56 166.29C52.9 167.59 53.01 172.5 52.51 173.77C51.6454 173.855 50.773 173.815 49.92 173.65C49.8289 173.634 49.7353 173.654 49.6576 173.703C49.5799 173.753 49.5236 173.831 49.5 173.92C49.1017 175.272 48.4835 176.549 47.67 177.7C47.612 177.776 47.5859 177.872 47.5971 177.967C47.6083 178.062 47.6559 178.149 47.73 178.21C48.4316 178.766 49.0277 179.443 49.49 180.21C48.99 181.03 45.08 184.61 44 184.91C43.84 184.91 43.4 184.31 43.29 184.15C42.9206 183.595 42.5866 183.017 42.29 182.42C42.2467 182.333 42.1724 182.265 42.0818 182.23C41.9912 182.195 41.8906 182.195 41.8 182.23C38.9 183.32 37.8 182.68 37.8 183.4C37.8013 184.478 37.6256 185.549 37.28 186.57C34.9299 186.315 32.6157 185.798 30.38 185.03C30.488 183.962 30.786 182.923 31.26 181.96C31.56 181.29 30.36 181.48 28.12 179.2C28.0479 179.133 27.9533 179.096 27.855 179.096C27.7567 179.096 27.6621 179.133 27.59 179.2C26.59 180.02 25.29 180.82 25.03 180.69C24.52 180.44 22.17 175.11 22.03 174.03C22.7412 173.534 23.5487 173.194 24.4 173.03C24.4908 173.004 24.5692 172.947 24.6207 172.868C24.6722 172.788 24.6932 172.693 24.68 172.6C24.4349 171.184 24.4349 169.736 24.68 168.32C24.6953 168.233 24.6769 168.143 24.6287 168.069C24.5805 167.995 24.5059 167.941 24.42 167.92C23.6661 167.722 22.9403 167.43 22.26 167.05C22.04 166.89 22.06 166.9 22.08 166.73C22.7272 164.396 23.7653 162.188 25.15 160.2C25.69 160.05 27.15 161.12 27.65 161.5C27.7022 161.551 27.7722 161.579 27.845 161.579C27.9178 161.579 27.9877 161.551 28.04 161.5C28.4995 161.023 28.9942 160.582 29.52 160.18C31.04 159.03 31.45 159.18 31.32 158.78C30.8603 157.777 30.6021 156.693 30.56 155.59C30.715 155.461 30.8908 155.36 31.08 155.29C32.0136 154.921 32.9728 154.62 33.95 154.39C35.1345 154.06 36.3519 153.862 37.58 153.8C37.79 153.89 37.98 154.8 38.03 155.08C38.4 157.08 38.15 157.49 38.44 157.52C41.29 157.8 41.87 158.59 42.07 158.24C42.6245 157.27 43.2708 156.356 44 155.51C44.21 155.3 44.2 155.2 44.83 155.56C46.7121 156.79 48.3978 158.297 49.83 160.03C49.98 160.29 48.68 161.67 47.73 162.48C47.4 162.77 47.87 162.9 48.73 164.54C49.59 166.18 49.39 166.64 49.85 166.54C50.7368 166.328 51.6494 166.244 52.56 166.29V166.29ZM191.35 82.73C189.254 81.8738 187.055 81.2923 184.81 81C183.17 80.74 181.24 80.48 179.61 80.27C181.18 78.05 185.83 72.43 186.61 71.06C186.83 70.69 186.41 70.17 186.1 69.86C184.36 68 181 67.3 178.42 66.9C176.94 66.66 170.76 65.9 169.71 66.4C168.45 67 159.13 81 158.85 83.13C158.85 83.49 158.97 83.63 159.32 83.76C160.79 84.3 167.42 85.14 168.9 85.49C166.9 88.99 158.01 100.82 157.14 102.49C156.93 102.91 157.06 103.16 157.31 103.24C158.21 103.597 159.136 103.885 160.08 104.1C160.44 104.21 161.23 103.72 162.38 103.02C167.54 99.92 189.68 85.3 191.38 83.41C191.427 83.3657 191.464 83.3117 191.488 83.2519C191.512 83.192 191.523 83.1277 191.52 83.0632C191.518 82.9986 191.501 82.9355 191.471 82.878C191.442 82.8205 191.401 82.7701 191.35 82.73V82.73ZM169.86 94.73C161.36 100.34 158.49 101.98 158.39 102.05C159.76 99.96 168.27 88.3 169.73 85.51C169.755 85.4561 169.768 85.3972 169.768 85.3377C169.768 85.2781 169.754 85.2193 169.729 85.1656C169.703 85.112 169.665 85.0647 169.619 85.0274C169.572 84.9901 169.518 84.9637 169.46 84.95C168.46 84.59 161.18 83.81 159.46 83.2C159.68 81.34 168.76 67.28 169.86 66.72C170.96 66.16 181.63 67.43 183.63 68.86C182.58 70.91 176.78 78.09 175.84 79.76C175.65 80.1 175.59 80.43 175.96 80.52C176.33 80.61 185.73 81.71 187.78 82.38C185.28 84.47 172.66 92.85 169.86 94.69V94.73ZM105.71 33.59C105.71 33.68 105.77 33.79 105.92 34.37C105.959 34.4958 106.046 34.6015 106.161 34.6649C106.277 34.7283 106.413 34.7445 106.54 34.71C106.667 34.6729 106.775 34.5867 106.838 34.4704C106.902 34.3542 106.917 34.2173 106.88 34.09C106.78 33.7 106.69 33.37 106.63 33.21C106.572 33.1002 106.475 33.016 106.358 32.9739C106.241 32.9318 106.112 32.9348 105.997 32.9822C105.883 33.0297 105.789 33.1182 105.736 33.2306C105.683 33.343 105.674 33.4711 105.71 33.59V33.59Z" fill="#1E252C"/>
</svg>
