<svg width="30" height="30" viewBox="0 0 36 36" fill="none" xmlns="http://www.w3.org/2000/svg">
<g clip-path="url(#clip0_104_52)">
<path d="M19.5 7.5H31.5" stroke="#1E252C" stroke-width="2" stroke-linecap="round" stroke-linejoin="round"/>
<path d="M19.5 13.5H27" stroke="#1E252C" stroke-width="2" stroke-linecap="round" stroke-linejoin="round"/>
<path d="M19.5 22.5H31.5" stroke="#1E252C" stroke-width="2" stroke-linecap="round" stroke-linejoin="round"/>
<path d="M19.5 28.5H27" stroke="#1E252C" stroke-width="2" stroke-linecap="round" stroke-linejoin="round"/>
<path d="M12 6H6C5.17157 6 4.5 6.67157 4.5 7.5V13.5C4.5 14.3284 5.17157 15 6 15H12C12.8284 15 13.5 14.3284 13.5 13.5V7.5C13.5 6.67157 12.8284 6 12 6Z" stroke="#1E252C" stroke-width="2" stroke-linecap="round" stroke-linejoin="round"/>
<path d="M12 21H6C5.17157 21 4.5 21.6716 4.5 22.5V28.5C4.5 29.3284 5.17157 30 6 30H12C12.8284 30 13.5 29.3284 13.5 28.5V22.5C13.5 21.6716 12.8284 21 12 21Z" stroke="#1E252C" stroke-width="2" stroke-linecap="round" stroke-linejoin="round"/>
</g>
<defs>
<clipPath id="clip0_104_52">
<rect width="36" height="36" fill="white"/>
</clipPath>
</defs>
</svg>
