<svg width="206" height="56" viewBox="0 0 206 56" fill="none" xmlns="http://www.w3.org/2000/svg">
<path fill-rule="evenodd" clip-rule="evenodd" d="M37.3205 45.3205C46.8864 39.7977 50.1639 27.5659 44.641 18C39.1182 8.43413 26.8864 5.15664 17.3205 10.6795C7.75464 16.2024 4.47714 28.4341 10 38C15.5229 47.5659 27.7546 50.8434 37.3205 45.3205ZM28.0142 41.1695C30.4193 41.1112 32.7442 40.4341 34.9889 39.1381C36.8179 38.0821 38.301 36.8748 39.438 35.5163C40.6029 34.1417 41.542 32.4725 42.2557 30.5085L35.5278 29.1274C35.3052 29.958 34.9079 30.7417 34.3356 31.4785C33.7473 32.1876 32.9959 32.8062 32.0814 33.3342C31.25 33.8142 30.3941 34.1236 29.5136 34.2625C28.617 34.3737 27.7535 34.318 26.9229 34.0954C26.1201 33.8569 25.3663 33.4792 24.6615 32.9624L40.3331 23.9144L39.3731 22.2516C38.0291 19.9238 36.3521 18.1391 34.3421 16.8978C32.3599 15.6405 30.2414 14.9791 27.9866 14.9137C25.7158 14.8206 23.4997 15.3981 21.338 16.6461C19.2042 17.8781 17.5603 19.5108 16.4064 21.5442C15.2365 23.5498 14.6348 25.7078 14.6015 28.0179C14.5958 30.3122 15.2089 32.5262 16.4409 34.6601C17.673 36.794 19.3115 38.4161 21.3565 39.5262C23.4016 40.6364 25.6209 41.1842 28.0142 41.1695ZM31.0115 23.0331L21.8247 28.3371C21.6145 27.4608 21.5731 26.6533 21.7008 25.9145C21.8402 25.1319 22.1347 24.4261 22.5845 23.7969C23.0341 23.1678 23.6331 22.6373 24.3814 22.2053C25.1019 21.7893 25.855 21.5577 26.6407 21.5105C27.4104 21.4357 28.1689 21.5335 28.9163 21.804C29.6754 22.0309 30.3739 22.4405 31.0115 23.0331Z" fill="#1E252C"/>
<path d="M67.961 42.28C65.5877 42.28 63.5077 41.8133 61.721 40.88C59.961 39.92 58.5877 38.6133 57.601 36.96C56.641 35.3067 56.161 33.4267 56.161 31.32C56.161 29.1867 56.6277 27.3067 57.561 25.68C58.521 24.0267 59.8277 22.7333 61.481 21.8C63.161 20.8667 65.0677 20.4 67.201 20.4C69.281 20.4 71.1343 20.8533 72.761 21.76C74.3877 22.6667 75.6677 23.9467 76.601 25.6C77.5343 27.2533 78.001 29.2 78.001 31.44C78.001 31.6533 77.9877 31.8933 77.961 32.16C77.961 32.4267 77.9477 32.68 77.921 32.92H60.121V29.6H75.281L73.321 30.64C73.3477 29.4133 73.0943 28.3333 72.561 27.4C72.0277 26.4667 71.2943 25.7333 70.361 25.2C69.4543 24.6667 68.401 24.4 67.201 24.4C65.9743 24.4 64.8943 24.6667 63.961 25.2C63.0543 25.7333 62.3343 26.48 61.801 27.44C61.2943 28.3733 61.041 29.48 61.041 30.76V31.56C61.041 32.84 61.3343 33.9733 61.921 34.96C62.5077 35.9467 63.3343 36.7067 64.401 37.24C65.4677 37.7733 66.6943 38.04 68.081 38.04C69.281 38.04 70.361 37.8533 71.321 37.48C72.281 37.1067 73.1343 36.52 73.881 35.72L76.561 38.8C75.601 39.92 74.3877 40.7867 72.921 41.4C71.481 41.9867 69.8277 42.28 67.961 42.28ZM89.4438 42.28C87.3905 42.28 85.5372 41.8267 83.8838 40.92C82.2572 39.9867 80.9772 38.7067 80.0438 37.08C79.1105 35.4533 78.6438 33.5333 78.6438 31.32C78.6438 29.1067 79.1105 27.1867 80.0438 25.56C80.9772 23.9333 82.2572 22.6667 83.8838 21.76C85.5372 20.8533 87.3905 20.4 89.4438 20.4C91.2305 20.4 92.8305 20.8 94.2438 21.6C95.6572 22.3733 96.7772 23.56 97.6038 25.16C98.4305 26.76 98.8438 28.8133 98.8438 31.32C98.8438 33.8 98.4438 35.8533 97.6438 37.48C96.8438 39.08 95.7372 40.28 94.3238 41.08C92.9105 41.88 91.2838 42.28 89.4438 42.28ZM90.0438 38C91.2438 38 92.3105 37.7333 93.2438 37.2C94.2038 36.6667 94.9638 35.8933 95.5238 34.88C96.1105 33.8667 96.4038 32.68 96.4038 31.32C96.4038 29.9333 96.1105 28.7467 95.5238 27.76C94.9638 26.7467 94.2038 25.9733 93.2438 25.44C92.3105 24.9067 91.2438 24.64 90.0438 24.64C88.8438 24.64 87.7638 24.9067 86.8038 25.44C85.8705 25.9733 85.1105 26.7467 84.5238 27.76C83.9638 28.7467 83.6838 29.9333 83.6838 31.32C83.6838 32.68 83.9638 33.8667 84.5238 34.88C85.1105 35.8933 85.8705 36.6667 86.8038 37.2C87.7638 37.7333 88.8438 38 90.0438 38ZM96.5238 42V36.96L96.7238 31.28L96.3238 25.6V12.32H101.284V42H96.5238ZM105.465 42V20.64H110.465V42H105.465ZM107.985 17.12C107.051 17.12 106.278 16.8267 105.665 16.24C105.078 15.6533 104.785 14.9467 104.785 14.12C104.785 13.2667 105.078 12.56 105.665 12C106.278 11.4133 107.051 11.12 107.985 11.12C108.918 11.12 109.678 11.4 110.265 11.96C110.878 12.4933 111.185 13.1733 111.185 14C111.185 14.88 110.891 15.6267 110.305 16.24C109.718 16.8267 108.945 17.12 107.985 17.12ZM126.747 20.4C128.454 20.4 129.974 20.7333 131.307 21.4C132.667 22.0667 133.734 23.0933 134.507 24.48C135.281 25.84 135.667 27.6 135.667 29.76V42H130.667V30.4C130.667 28.5067 130.214 27.0933 129.307 26.16C128.427 25.2267 127.187 24.76 125.587 24.76C124.414 24.76 123.374 25 122.467 25.48C121.561 25.96 120.854 26.68 120.347 27.64C119.867 28.5733 119.627 29.76 119.627 31.2V42H114.627V20.64H119.387V26.4L118.547 24.64C119.294 23.28 120.374 22.24 121.787 21.52C123.227 20.7733 124.881 20.4 126.747 20.4ZM146.21 42.28C144.423 42.28 142.703 42.0533 141.05 41.6C139.423 41.12 138.13 40.5467 137.17 39.88L139.09 36.08C140.05 36.6933 141.197 37.2 142.53 37.6C143.863 38 145.197 38.2 146.53 38.2C148.103 38.2 149.237 37.9867 149.93 37.56C150.65 37.1333 151.01 36.56 151.01 35.84C151.01 35.2533 150.77 34.8133 150.29 34.52C149.81 34.2 149.183 33.96 148.41 33.8C147.637 33.64 146.77 33.4933 145.81 33.36C144.877 33.2267 143.93 33.0533 142.97 32.84C142.037 32.6 141.183 32.2667 140.41 31.84C139.637 31.3867 139.01 30.7867 138.53 30.04C138.05 29.2933 137.81 28.3067 137.81 27.08C137.81 25.72 138.197 24.5467 138.97 23.56C139.743 22.5467 140.823 21.7733 142.21 21.24C143.623 20.68 145.29 20.4 147.21 20.4C148.65 20.4 150.103 20.56 151.57 20.88C153.037 21.2 154.25 21.6533 155.21 22.24L153.29 26.04C152.277 25.4267 151.25 25.0133 150.21 24.8C149.197 24.56 148.183 24.44 147.17 24.44C145.65 24.44 144.517 24.6667 143.77 25.12C143.05 25.5733 142.69 26.1467 142.69 26.84C142.69 27.48 142.93 27.96 143.41 28.28C143.89 28.6 144.517 28.8533 145.29 29.04C146.063 29.2267 146.917 29.3867 147.85 29.52C148.81 29.6267 149.757 29.8 150.69 30.04C151.623 30.28 152.477 30.6133 153.25 31.04C154.05 31.44 154.69 32.0133 155.17 32.76C155.65 33.5067 155.89 34.48 155.89 35.68C155.89 37.0133 155.49 38.1733 154.69 39.16C153.917 40.1467 152.81 40.92 151.37 41.48C149.93 42.0133 148.21 42.28 146.21 42.28ZM167.396 42.28C165.209 42.28 163.263 41.8133 161.556 40.88C159.849 39.92 158.503 38.6133 157.516 36.96C156.529 35.3067 156.036 33.4267 156.036 31.32C156.036 29.1867 156.529 27.3067 157.516 25.68C158.503 24.0267 159.849 22.7333 161.556 21.8C163.263 20.8667 165.209 20.4 167.396 20.4C169.609 20.4 171.569 20.8667 173.276 21.8C175.009 22.7333 176.356 24.0133 177.316 25.64C178.303 27.2667 178.796 29.16 178.796 31.32C178.796 33.4267 178.303 35.3067 177.316 36.96C176.356 38.6133 175.009 39.92 173.276 40.88C171.569 41.8133 169.609 42.28 167.396 42.28ZM167.396 38C168.623 38 169.716 37.7333 170.676 37.2C171.636 36.6667 172.383 35.8933 172.916 34.88C173.476 33.8667 173.756 32.68 173.756 31.32C173.756 29.9333 173.476 28.7467 172.916 27.76C172.383 26.7467 171.636 25.9733 170.676 25.44C169.716 24.9067 168.636 24.64 167.436 24.64C166.209 24.64 165.116 24.9067 164.156 25.44C163.223 25.9733 162.476 26.7467 161.916 27.76C161.356 28.7467 161.076 29.9333 161.076 31.32C161.076 32.68 161.356 33.8667 161.916 34.88C162.476 35.8933 163.223 36.6667 164.156 37.2C165.116 37.7333 166.196 38 167.396 38ZM193.297 20.4C195.004 20.4 196.524 20.7333 197.857 21.4C199.217 22.0667 200.284 23.0933 201.057 24.48C201.831 25.84 202.217 27.6 202.217 29.76V42H197.217V30.4C197.217 28.5067 196.764 27.0933 195.857 26.16C194.977 25.2267 193.737 24.76 192.137 24.76C190.964 24.76 189.924 25 189.017 25.48C188.111 25.96 187.404 26.68 186.897 27.64C186.417 28.5733 186.177 29.76 186.177 31.2V42H181.177V20.64H185.937V26.4L185.097 24.64C185.844 23.28 186.924 22.24 188.337 21.52C189.777 20.7733 191.431 20.4 193.297 20.4Z" fill="#1E252C"/>
</svg>
