<svg width="132" height="40" viewBox="0 0 132 40" fill="none" xmlns="http://www.w3.org/2000/svg">
<g clip-path="url(#clip0_405_1411)">
<mask id="mask0_405_1411" style="mask-type:luminance" maskUnits="userSpaceOnUse" x="0" y="0" width="40" height="40">
<path d="M40 20C40 8.9543 31.0457 0 20 0C8.9543 0 0 8.9543 0 20C0 31.0457 8.9543 40 20 40C31.0457 40 40 31.0457 40 20Z" fill="white"/>
</mask>
<g mask="url(#mask0_405_1411)">
<path d="M19.9554 32.4794C17.4306 32.4794 15.2573 31.968 13.4355 30.9453C11.6245 29.9119 10.2289 28.4524 9.24873 26.5668C8.26861 24.6705 7.77856 22.4279 7.77856 19.8391C7.77856 17.3143 8.26861 15.0984 9.24873 13.1914C10.2289 11.2844 11.6085 9.79829 13.3876 8.73295C15.1774 7.66761 17.2761 7.13494 19.6838 7.13494C21.3031 7.13494 22.8105 7.39595 24.2061 7.91797C25.6124 8.42933 26.8375 9.2017 27.8816 10.2351C28.9363 11.2685 29.7566 12.5682 30.3425 14.1342C30.9284 15.6896 31.2214 17.5114 31.2214 19.5994V21.4691H10.4952V17.2504H24.8134C24.8134 16.2702 24.6003 15.402 24.1742 14.6456C23.748 13.8892 23.1568 13.2979 22.4004 12.8718C21.6547 12.435 20.7864 12.2166 19.7956 12.2166C18.7623 12.2166 17.8461 12.4563 17.0471 12.9357C16.2587 13.4045 15.6408 14.0384 15.1934 14.8374C14.7459 15.6257 14.5169 16.5046 14.5062 17.4741V21.4851C14.5062 22.6996 14.7299 23.7489 15.1774 24.6332C15.6355 25.5174 16.28 26.1992 17.111 26.6786C17.9419 27.158 18.9274 27.3977 20.0673 27.3977C20.8237 27.3977 21.5162 27.2912 22.1447 27.0781C22.7733 26.8651 23.3113 26.5455 23.7587 26.1193C24.2061 25.6932 24.5471 25.1712 24.7814 24.5533L31.0776 24.9688C30.758 26.4815 30.1028 27.8026 29.112 28.9318C28.1319 30.0504 26.8642 30.924 25.3088 31.5526C23.764 32.1705 21.9796 32.4794 19.9554 32.4794Z" fill="#1E252C"/>
</g>
<path d="M38 20C38 10.0589 29.9411 2 20 2C10.0589 2 2 10.0589 2 20C2 29.9411 10.0589 38 20 38C29.9411 38 38 29.9411 38 20Z" stroke="#1E252C" stroke-width="4" stroke-linejoin="round"/>
</g>
<path d="M48.5909 31.8068C47.2197 31.8068 45.9924 31.4545 44.9091 30.75C43.8258 30.0455 42.9697 29.0227 42.3409 27.6818C41.7121 26.3409 41.3977 24.7121 41.3977 22.7955C41.3977 20.8561 41.7159 19.2197 42.3523 17.8864C42.9962 16.5455 43.8636 15.5341 44.9545 14.8523C46.0455 14.1629 47.2614 13.8182 48.6023 13.8182C49.625 13.8182 50.4659 13.9924 51.125 14.3409C51.7841 14.6818 52.3068 15.0947 52.6932 15.5795C53.0795 16.0568 53.3788 16.5076 53.5909 16.9318H53.7614V8.22727H57.8864V31.5H53.8409V28.75H53.5909C53.3788 29.1742 53.072 29.625 52.6705 30.1023C52.2689 30.572 51.7386 30.9735 51.0795 31.3068C50.4205 31.6402 49.5909 31.8068 48.5909 31.8068ZM49.7386 28.4318C50.6098 28.4318 51.3523 28.197 51.9659 27.7273C52.5795 27.25 53.0455 26.5871 53.3636 25.7386C53.6818 24.8902 53.8409 23.9015 53.8409 22.7727C53.8409 21.6439 53.6818 20.6629 53.3636 19.8295C53.053 18.9962 52.5909 18.3485 51.9773 17.8864C51.3712 17.4242 50.625 17.1932 49.7386 17.1932C48.822 17.1932 48.0568 17.4318 47.4432 17.9091C46.8295 18.3864 46.3674 19.0455 46.0568 19.8864C45.7462 20.7273 45.5909 21.6894 45.5909 22.7727C45.5909 23.8636 45.7462 24.8371 46.0568 25.6932C46.375 26.5417 46.8409 27.2121 47.4545 27.7045C48.0758 28.1894 48.8371 28.4318 49.7386 28.4318ZM59.7099 31.5V14.0455H63.8235V31.5H59.7099ZM61.7781 11.5682C61.1266 11.5682 60.5659 11.3523 60.0963 10.9205C59.6266 10.4811 59.3917 9.95454 59.3917 9.34091C59.3917 8.7197 59.6266 8.19318 60.0963 7.76136C60.5659 7.32197 61.1266 7.10227 61.7781 7.10227C62.4372 7.10227 62.9978 7.32197 63.4599 7.76136C63.9296 8.19318 64.1644 8.7197 64.1644 9.34091C64.1644 9.95454 63.9296 10.4811 63.4599 10.9205C62.9978 11.3523 62.4372 11.5682 61.7781 11.5682ZM69.6073 21.2727V31.5H65.4936V14.0455H69.4255V17.0114H69.63C70.0315 16.0341 70.6717 15.2576 71.5505 14.6818C72.4368 14.1061 73.5315 13.8182 74.8345 13.8182C76.0391 13.8182 77.0883 14.0758 77.9823 14.5909C78.8838 15.1061 79.5808 15.8523 80.0732 16.8295C80.5732 17.8068 80.8194 18.9924 80.8118 20.3864V31.5H76.6982V21.0227C76.6982 19.8561 76.3952 18.9432 75.7891 18.2841C75.1906 17.625 74.3611 17.2955 73.3005 17.2955C72.5808 17.2955 71.9406 17.4545 71.38 17.7727C70.827 18.0833 70.3914 18.5341 70.0732 19.125C69.7626 19.7159 69.6073 20.4318 69.6073 21.2727ZM96.2291 18.6591L92.4791 19.0682C92.373 18.6894 92.1874 18.3333 91.9223 18C91.6647 17.6667 91.3162 17.3977 90.8768 17.1932C90.4374 16.9886 89.8995 16.8864 89.2632 16.8864C88.4071 16.8864 87.6874 17.072 87.1041 17.4432C86.5283 17.8144 86.2442 18.2955 86.2518 18.8864C86.2442 19.3939 86.4298 19.8068 86.8086 20.125C87.195 20.4432 87.8314 20.7045 88.7177 20.9091L91.695 21.5455C93.3465 21.9015 94.5738 22.4659 95.3768 23.2386C96.1874 24.0114 96.5965 25.0227 96.6041 26.2727C96.5965 27.3712 96.2745 28.3409 95.6382 29.1818C95.0094 30.0152 94.1344 30.6667 93.0132 31.1364C91.892 31.6061 90.6041 31.8409 89.1495 31.8409C87.0132 31.8409 85.2935 31.3939 83.9905 30.5C82.6874 29.5985 81.9109 28.3447 81.6609 26.7386L85.6723 26.3523C85.8541 27.1402 86.2405 27.7348 86.8314 28.1364C87.4223 28.5379 88.1912 28.7386 89.1382 28.7386C90.1155 28.7386 90.8995 28.5379 91.4905 28.1364C92.0889 27.7348 92.3882 27.2386 92.3882 26.6477C92.3882 26.1477 92.195 25.7348 91.8086 25.4091C91.4298 25.0833 90.8389 24.8333 90.0359 24.6591L87.0586 24.0341C85.3844 23.6856 84.1458 23.0985 83.3427 22.2727C82.5397 21.4394 82.142 20.3864 82.1495 19.1136C82.142 18.0379 82.4336 17.1061 83.0245 16.3182C83.623 15.5227 84.4526 14.9091 85.5132 14.4773C86.5814 14.0379 87.8124 13.8182 89.2064 13.8182C91.2518 13.8182 92.8617 14.2538 94.0359 15.125C95.2177 15.9962 95.9488 17.1742 96.2291 18.6591ZM105.05 31.8409C103.345 31.8409 101.868 31.4659 100.618 30.7159C99.368 29.9659 98.3983 28.9167 97.7089 27.5682C97.027 26.2197 96.6861 24.6439 96.6861 22.8409C96.6861 21.0379 97.027 19.4583 97.7089 18.1023C98.3983 16.7462 99.368 15.6932 100.618 14.9432C101.868 14.1932 103.345 13.8182 105.05 13.8182C106.754 13.8182 108.232 14.1932 109.482 14.9432C110.732 15.6932 111.698 16.7462 112.379 18.1023C113.069 19.4583 113.413 21.0379 113.413 22.8409C113.413 24.6439 113.069 26.2197 112.379 27.5682C111.698 28.9167 110.732 29.9659 109.482 30.7159C108.232 31.4659 106.754 31.8409 105.05 31.8409ZM105.073 28.5455C105.997 28.5455 106.769 28.2917 107.391 27.7841C108.012 27.2689 108.474 26.5795 108.777 25.7159C109.088 24.8523 109.243 23.8902 109.243 22.8295C109.243 21.7614 109.088 20.7955 108.777 19.9318C108.474 19.0606 108.012 18.3674 107.391 17.8523C106.769 17.3371 105.997 17.0795 105.073 17.0795C104.126 17.0795 103.338 17.3371 102.709 17.8523C102.088 18.3674 101.622 19.0606 101.311 19.9318C101.008 20.7955 100.857 21.7614 100.857 22.8295C100.857 23.8902 101.008 24.8523 101.311 25.7159C101.622 26.5795 102.088 27.2689 102.709 27.7841C103.338 28.2917 104.126 28.5455 105.073 28.5455ZM118.459 21.2727V31.5H114.345V14.0455H118.277V17.0114H118.481C118.883 16.0341 119.523 15.2576 120.402 14.6818C121.288 14.1061 122.383 13.8182 123.686 13.8182C124.89 13.8182 125.94 14.0758 126.834 14.5909C127.735 15.1061 128.432 15.8523 128.924 16.8295C129.424 17.8068 129.671 18.9924 129.663 20.3864V31.5H125.549V21.0227C125.549 19.8561 125.246 18.9432 124.64 18.2841C124.042 17.625 123.212 17.2955 122.152 17.2955C121.432 17.2955 120.792 17.4545 120.231 17.7727C119.678 18.0833 119.243 18.5341 118.924 19.125C118.614 19.7159 118.459 20.4318 118.459 21.2727Z" fill="black"/>
<defs>
<clipPath id="clip0_405_1411">
<rect width="40" height="40" fill="white"/>
</clipPath>
</defs>
</svg>
