<svg width="55" height="55" viewBox="0 0 55 55" fill="none" xmlns="http://www.w3.org/2000/svg">
<path fill-rule="evenodd" clip-rule="evenodd" d="M37.3205 44.641C46.8864 39.1182 50.1639 26.8864 44.641 17.3205C39.1182 7.75464 26.8864 4.47714 17.3205 10C7.75464 15.5229 4.47714 27.7546 10 37.3205C15.5229 46.8864 27.7546 50.1639 37.3205 44.641ZM28.0142 40.4901C30.4193 40.4317 32.7442 39.7546 34.9889 38.4586C36.8179 37.4026 38.301 36.1953 39.438 34.8368C40.6029 33.4622 41.542 31.793 42.2557 29.829L35.5278 28.4479C35.3052 29.2785 34.9079 30.0622 34.3356 30.799C33.7473 31.5082 32.9959 32.1267 32.0814 32.6547C31.25 33.1347 30.3941 33.4442 29.5136 33.583C28.617 33.6942 27.7535 33.6385 26.9229 33.4159C26.1201 33.1774 25.3663 32.7997 24.6615 32.2829L40.3331 23.2349L39.3731 21.5721C38.0291 19.2443 36.3521 17.4596 34.3421 16.2183C32.3599 14.961 30.2414 14.2996 27.9866 14.2342C25.7158 14.1411 23.4997 14.7186 21.338 15.9666C19.2042 17.1986 17.5603 18.8313 16.4064 20.8647C15.2365 22.8703 14.6348 25.0283 14.6015 27.3384C14.5958 29.6327 15.2089 31.8467 16.4409 33.9806C17.673 36.1145 19.3115 37.7366 21.3565 38.8467C23.4016 39.9569 25.6209 40.5047 28.0142 40.4901ZM31.0115 22.3536L21.8247 27.6576C21.6145 26.7813 21.5731 25.9738 21.7008 25.235C21.8402 24.4524 22.1347 23.7466 22.5845 23.1174C23.0341 22.4883 23.6331 21.9578 24.3814 21.5258C25.1019 21.1098 25.855 20.8782 26.6407 20.831C27.4104 20.7562 28.1689 20.854 28.9163 21.1245C29.6754 21.3514 30.3739 21.761 31.0115 22.3536Z" fill="#1E252C"/>
</svg>
