<svg width="29" height="28" viewBox="0 0 29 28" fill="none" xmlns="http://www.w3.org/2000/svg">
<g clip-path="url(#clip0_107_399)">
<path d="M5.16669 6.99999C5.16669 6.38115 5.41252 5.78766 5.8501 5.35007C6.28769 4.91249 6.88118 4.66666 7.50002 4.66666H21.5C22.1189 4.66666 22.7124 4.91249 23.1499 5.35007C23.5875 5.78766 23.8334 6.38115 23.8334 6.99999V21C23.8334 21.6188 23.5875 22.2123 23.1499 22.6499C22.7124 23.0875 22.1189 23.3333 21.5 23.3333H7.50002C6.88118 23.3333 6.28769 23.0875 5.8501 22.6499C5.41252 22.2123 5.16669 21.6188 5.16669 21V6.99999Z" stroke="#1E252C" stroke-width="2" stroke-linecap="round" stroke-linejoin="round"/>
<path d="M8.66669 8.16666H12.1667L19.1667 15.1667" stroke="#1E252C" stroke-width="2" stroke-linecap="round" stroke-linejoin="round"/>
<path d="M9.83331 8.16666V19.8333" stroke="#1E252C" stroke-width="2" stroke-linecap="round" stroke-linejoin="round"/>
<path d="M8.66669 19.8333H11" stroke="#1E252C" stroke-width="2" stroke-linecap="round" stroke-linejoin="round"/>
<path d="M18 8.16666H20.3333" stroke="#1E252C" stroke-width="2" stroke-linecap="round" stroke-linejoin="round"/>
<path d="M19.1666 8.16666V19.8333H18L9.83331 11.6667" stroke="#1E252C" stroke-width="2" stroke-linecap="round" stroke-linejoin="round"/>
</g>
<defs>
<clipPath id="clip0_107_399">
<rect width="28" height="28" fill="white" transform="translate(0.5)"/>
</clipPath>
</defs>
</svg>
