<svg width="25" height="24" viewBox="0 0 25 24" fill="none" xmlns="http://www.w3.org/2000/svg">
<g clip-path="url(#clip0_108_612)">
<path d="M11.717 19.384C12.0028 20.1536 12.55 20.7983 13.2629 21.2054C13.9758 21.6125 14.8092 21.7562 15.6173 21.6112C16.4253 21.4662 17.1568 21.0418 17.6837 20.4123C18.2106 19.7827 18.4996 18.988 18.5 18.167V13L12.5 9.64999" stroke="#1E252C" stroke-width="2" stroke-linecap="round" stroke-linejoin="round"/>
<path d="M5.71402 15.014C5.18998 15.6463 4.90491 16.4427 4.90867 17.264C4.91242 18.0852 5.20476 18.879 5.73455 19.5065C6.26434 20.134 6.99787 20.5553 7.80685 20.6967C8.61584 20.8381 9.44878 20.6906 10.16 20.28L14.5 17.746V10.8" stroke="#1E252C" stroke-width="2" stroke-linecap="round" stroke-linejoin="round"/>
<path d="M6.5 7.63001C5.109 7.39401 3.713 8.02501 2.966 9.31901C2.50546 10.1168 2.38063 11.0649 2.61898 11.9547C2.85733 12.8445 3.43933 13.6032 4.237 14.064L8.5 16.578L14.5 13.23" stroke="#1E252C" stroke-width="2" stroke-linecap="round" stroke-linejoin="round"/>
<path d="M13.283 4.61601C12.9972 3.84638 12.45 3.20167 11.7371 2.79457C11.0241 2.38746 10.1908 2.24385 9.38273 2.38883C8.57465 2.53382 7.84322 2.95818 7.31629 3.58774C6.78935 4.2173 6.50042 5.01203 6.5 5.83301V10.9L12.5 14.35" stroke="#1E252C" stroke-width="2" stroke-linecap="round" stroke-linejoin="round"/>
<path d="M19.286 8.98599C19.81 8.35367 20.0951 7.55725 20.0913 6.73601C20.0876 5.91477 19.7953 5.12099 19.2655 4.49349C18.7357 3.86598 18.0021 3.44469 17.1932 3.30329C16.3842 3.1619 15.5512 3.3094 14.84 3.71999L10.5 6.25399V13.2" stroke="#1E252C" stroke-width="2" stroke-linecap="round" stroke-linejoin="round"/>
<path d="M18.5 16.302C19.891 16.538 21.287 15.907 22.034 14.613C22.4945 13.8152 22.6194 12.8671 22.381 11.9773C22.1427 11.0875 21.5607 10.3288 20.763 9.868L16.455 7.354L10.5 10.774" stroke="#1E252C" stroke-width="2" stroke-linecap="round" stroke-linejoin="round"/>
</g>
<defs>
<clipPath id="clip0_108_612">
<rect width="24" height="24" fill="white" transform="translate(0.5)"/>
</clipPath>
</defs>
</svg>
