<svg width="29" height="28" viewBox="0 0 29 28" fill="none" xmlns="http://www.w3.org/2000/svg">
<g clip-path="url(#clip0_108_478)">
<path d="M2.83334 14C2.83334 16.7848 4.06251 19.4555 6.25043 21.4246C8.43836 23.3938 11.4058 24.5 14.5 24.5C17.5942 24.5 20.5617 23.3938 22.7496 21.4246C24.9375 19.4555 26.1667 16.7848 26.1667 14C26.1667 11.2152 24.9375 8.54451 22.7496 6.57538C20.5617 4.60625 17.5942 3.5 14.5 3.5C11.4058 3.5 8.43836 4.60625 6.25043 6.57538C4.06251 8.54451 2.83334 11.2152 2.83334 14Z" stroke="#1E252C" stroke-width="2" stroke-linecap="round" stroke-linejoin="round"/>
<path d="M6.91669 17.5L7.37752 15.197L8.08335 11.6667H9.62335C9.79271 11.6667 9.96001 11.7037 10.1136 11.7749C10.2673 11.8462 10.4036 11.95 10.513 12.0792C10.6225 12.2085 10.7025 12.36 10.7475 12.5232C10.7925 12.6865 10.8015 12.8576 10.7737 13.0247L10.5789 14.1913C10.5336 14.4637 10.3931 14.7113 10.1825 14.8899C9.97184 15.0684 9.70468 15.1665 9.42852 15.1667H7.50002" stroke="#1E252C" stroke-width="2" stroke-linecap="round" stroke-linejoin="round"/>
<path d="M18.5833 17.5L19.0441 15.197L19.75 11.6667H21.29C21.4593 11.6667 21.6266 11.7037 21.7803 11.7749C21.9339 11.8462 22.0702 11.95 22.1797 12.0792C22.2891 12.2085 22.3691 12.36 22.4141 12.5232C22.4592 12.6865 22.4681 12.8576 22.4403 13.0247L22.2455 14.1913C22.2002 14.4637 22.0597 14.7113 21.8491 14.8899C21.6385 15.0684 21.3713 15.1665 21.0951 15.1667H19.1666" stroke="#1E252C" stroke-width="2" stroke-linecap="round" stroke-linejoin="round"/>
<path d="M14.5 8.75L13.3333 15.1667" stroke="#1E252C" stroke-width="2" stroke-linecap="round" stroke-linejoin="round"/>
<path d="M14.0333 11.6667H16.8333L16.25 15.1667" stroke="#1E252C" stroke-width="2" stroke-linecap="round" stroke-linejoin="round"/>
</g>
<defs>
<clipPath id="clip0_108_478">
<rect width="28" height="28" fill="white" transform="translate(0.5)"/>
</clipPath>
</defs>
</svg>
