<svg width="29" height="28" viewBox="0 0 29 28" fill="none" xmlns="http://www.w3.org/2000/svg">
<g clip-path="url(#clip0_107_392)">
<path d="M14.5 10.5H6.33333C5.71449 10.5 5.121 10.7458 4.68342 11.1834C4.24583 11.621 4 12.2145 4 12.8333V17.5C4 18.1188 4.24583 18.7123 4.68342 19.1499C5.121 19.5875 5.71449 19.8333 6.33333 19.8333H9.83333" stroke="#1E252C" stroke-width="2" stroke-linecap="round" stroke-linejoin="round"/>
<path d="M14.5 17.5H22.6667C23.2855 17.5 23.879 17.2542 24.3166 16.8166C24.7542 16.379 25 15.7855 25 15.1667V10.5C25 9.88115 24.7542 9.28766 24.3166 8.85007C23.879 8.41249 23.2855 8.16666 22.6667 8.16666H19.1667" stroke="#1E252C" stroke-width="2" stroke-linecap="round" stroke-linejoin="round"/>
<path d="M9.83334 10.5V5.83333C9.83334 5.21449 10.0792 4.621 10.5168 4.18342C10.9543 3.74583 11.5478 3.5 12.1667 3.5H16.8333C17.4522 3.5 18.0457 3.74583 18.4833 4.18342C18.9208 4.621 19.1667 5.21449 19.1667 5.83333V11.6667C19.1667 12.2855 18.9208 12.879 18.4833 13.3166C18.0457 13.7542 17.4522 14 16.8333 14H12.1667C11.5478 14 10.9543 14.2458 10.5168 14.6834C10.0792 15.121 9.83334 15.7145 9.83334 16.3333V22.1667C9.83334 22.7855 10.0792 23.379 10.5168 23.8166C10.9543 24.2542 11.5478 24.5 12.1667 24.5H16.8333C17.4522 24.5 18.0457 24.2542 18.4833 23.8166C18.9208 23.379 19.1667 22.7855 19.1667 22.1667V17.5" stroke="#1E252C" stroke-width="2" stroke-linecap="round" stroke-linejoin="round"/>
<path d="M13.3333 7V7.01167" stroke="#1E252C" stroke-width="2" stroke-linecap="round" stroke-linejoin="round"/>
<path d="M15.6667 21V21.0117" stroke="#1E252C" stroke-width="2" stroke-linecap="round" stroke-linejoin="round"/>
</g>
<defs>
<clipPath id="clip0_107_392">
<rect width="28" height="28" fill="white" transform="translate(0.5)"/>
</clipPath>
</defs>
</svg>
