<svg width="29" height="28" viewBox="0 0 29 28" fill="none" xmlns="http://www.w3.org/2000/svg">
<g clip-path="url(#clip0_107_357)">
<path d="M7.91651 10.5C4.84001 11.2933 2.83334 12.6525 2.83334 14.2042C2.83334 16.6623 7.97251 18.6667 14.325 18.6667C15.1883 18.6667 15.795 18.6212 16.6 18.5535" stroke="#1E252C" stroke-width="2" stroke-linecap="round" stroke-linejoin="round"/>
<path d="M11.9765 18.55C11.4947 17.8547 11.0362 17.2282 10.5998 16.45C7.39033 10.7333 6.5305 5.05168 8.69817 3.76485C10.0398 2.95168 12.253 4.06002 14.5012 6.39452" stroke="#1E252C" stroke-width="2" stroke-linecap="round" stroke-linejoin="round"/>
<path d="M8.00049 17.9515C7.18149 21.0875 7.34715 23.4535 8.65382 24.2457C10.734 25.5057 14.9387 21.9613 18.0373 16.3077C18.4573 15.526 18.8342 14.7572 19.1667 14" stroke="#1E252C" stroke-width="2" stroke-linecap="round" stroke-linejoin="round"/>
<path d="M14.5 21.6067C16.7493 23.94 18.9532 25.0483 20.3077 24.2352C22.466 22.9495 21.6155 17.2678 18.4025 11.55C17.9545 10.7602 17.496 10.1453 17.0258 9.45001" stroke="#1E252C" stroke-width="2" stroke-linecap="round" stroke-linejoin="round"/>
<path d="M21.1033 17.5C24.1507 16.6985 26.1667 15.3417 26.1667 13.7947C26.1667 11.333 21.024 9.33334 14.6808 9.33334C13.8093 9.33334 13.2038 9.36718 12.4 9.43484" stroke="#1E252C" stroke-width="2" stroke-linecap="round" stroke-linejoin="round"/>
<path d="M9.83334 14C10.1658 13.23 10.5415 12.474 10.9627 11.6923C14.0508 6.04099 18.2578 2.48733 20.3497 3.75783C21.6447 4.54999 21.822 6.91483 21.003 10.0497" stroke="#1E252C" stroke-width="2" stroke-linecap="round" stroke-linejoin="round"/>
<path d="M14.8033 14.0175H14.7917C14.78 14.1692 14.6517 14.2975 14.4883 14.2975C14.4102 14.2936 14.3365 14.2601 14.2823 14.2037C14.2281 14.1473 14.1975 14.0724 14.1967 13.9942C14.1967 13.8308 14.325 13.7025 14.4767 13.7025H14.465C14.6167 13.6908 14.7567 13.8308 14.7567 13.9825" stroke="#1E252C" stroke-width="2" stroke-linecap="round" stroke-linejoin="round"/>
</g>
<defs>
<clipPath id="clip0_107_357">
<rect width="28" height="28" fill="white" transform="translate(0.5)"/>
</clipPath>
</defs>
</svg>
