<svg width="29" height="28" viewBox="0 0 29 28" fill="none" xmlns="http://www.w3.org/2000/svg">
<g clip-path="url(#clip0_108_490)">
<path d="M19.1667 14V6.99999C19.1667 6.38115 18.9208 5.78766 18.4832 5.35007C18.0457 4.91249 17.4522 4.66666 16.8333 4.66666C16.2145 4.66666 15.621 4.91249 15.1834 5.35007C14.7458 5.78766 14.5 6.38115 14.5 6.99999V14H21.5C21.9615 14 22.4126 13.8631 22.7963 13.6068C23.18 13.3504 23.4791 12.9859 23.6557 12.5596C23.8323 12.1332 23.8785 11.6641 23.7885 11.2114C23.6985 10.7588 23.4762 10.3431 23.1499 10.0167C22.8236 9.69042 22.4078 9.46819 21.9552 9.37816C21.5026 9.28812 21.0334 9.33433 20.6071 9.51094C20.1807 9.68754 19.8163 9.98661 19.5599 10.3703C19.3035 10.754 19.1667 11.2052 19.1667 11.6667" stroke="#1E252C" stroke-width="2" stroke-linecap="round" stroke-linejoin="round"/>
<path d="M14.5 18.6667H21.5C22.1188 18.6667 22.7123 18.4208 23.1499 17.9832C23.5875 17.5457 23.8333 16.9522 23.8333 16.3333C23.8333 15.7145 23.5875 15.121 23.1499 14.6834C22.7123 14.2458 22.1188 14 21.5 14H14.5V21C14.5 21.4615 14.6368 21.9126 14.8932 22.2963C15.1496 22.68 15.514 22.9791 15.9404 23.1557C16.3668 23.3323 16.8359 23.3785 17.2885 23.2885C17.7412 23.1985 18.1569 22.9762 18.4832 22.6499C18.8096 22.3236 19.0318 21.9078 19.1218 21.4552C19.2119 21.0026 19.1657 20.5334 18.9891 20.1071C18.8124 19.6807 18.5134 19.3163 18.1297 19.0599C17.7459 18.8035 17.2948 18.6667 16.8333 18.6667" stroke="#1E252C" stroke-width="2" stroke-linecap="round" stroke-linejoin="round"/>
<path d="M9.83335 14V21C9.83335 21.6188 10.0792 22.2123 10.5168 22.6499C10.9544 23.0875 11.5478 23.3333 12.1667 23.3333C12.7855 23.3333 13.379 23.0875 13.8166 22.6499C14.2542 22.2123 14.5 21.6188 14.5 21V14H7.50002C7.03853 14 6.58741 14.1368 6.20369 14.3932C5.81998 14.6496 5.52091 15.014 5.3443 15.4404C5.1677 15.8668 5.12149 16.3359 5.21152 16.7885C5.30155 17.2412 5.52378 17.6569 5.85011 17.9832C6.17643 18.3096 6.59219 18.5318 7.04481 18.6218C7.49743 18.7119 7.96659 18.6657 8.39295 18.4891C8.81931 18.3124 9.18373 18.0134 9.44012 17.6297C9.69651 17.2459 9.83335 16.7948 9.83335 16.3333" stroke="#1E252C" stroke-width="2" stroke-linecap="round" stroke-linejoin="round"/>
<path d="M14.5 9.33332H7.50002C6.88118 9.33332 6.28769 9.57916 5.8501 10.0167C5.41252 10.4543 5.16669 11.0478 5.16669 11.6667C5.16669 12.2855 5.41252 12.879 5.8501 13.3166C6.28769 13.7542 6.88118 14 7.50002 14H14.5V6.99999C14.5 6.5385 14.3632 6.08738 14.1068 5.70366C13.8504 5.31995 13.486 5.02088 13.0596 4.84427C12.6333 4.66767 12.1641 4.62146 11.7115 4.71149C11.2589 4.80152 10.8431 5.02375 10.5168 5.35008C10.1904 5.6764 9.96822 6.09216 9.87819 6.54478C9.78816 6.9974 9.83436 7.46656 10.011 7.89292C10.1876 8.31928 10.4866 8.6837 10.8704 8.94009C11.2541 9.19648 11.7052 9.33332 12.1667 9.33332" stroke="#1E252C" stroke-width="2" stroke-linecap="round" stroke-linejoin="round"/>
</g>
<defs>
<clipPath id="clip0_108_490">
<rect width="28" height="28" fill="white" transform="translate(0.5)"/>
</clipPath>
</defs>
</svg>
