<svg width="29" height="28" viewBox="0 0 29 28" fill="none" xmlns="http://www.w3.org/2000/svg">
<g clip-path="url(#clip0_107_389)">
<path d="M14.1115 7C11.2065 7 9.3935 8.42567 8.66667 11.2782C9.75517 9.85133 11.0268 9.31817 12.4782 9.674C13.3065 9.877 13.898 10.4673 14.5525 11.1207C15.6212 12.1847 16.8858 13.4167 19.5552 13.4167C22.4602 13.4167 24.2732 11.991 25 9.1385C23.9115 10.5653 22.6398 11.0985 21.1885 10.7427C20.3602 10.5397 19.7687 9.94933 19.1142 9.296C18.0455 8.232 16.81 7 14.1115 7ZM9.44483 14.5833C6.53983 14.5833 4.72683 16.009 4 18.8615C5.0885 17.4347 6.36017 16.9015 7.8115 17.2573C8.63983 17.4603 9.23133 18.0507 9.88583 18.704C10.9545 19.768 12.19 21 14.8885 21C17.7935 21 19.6065 19.5743 20.3333 16.7218C19.2448 18.1487 17.9732 18.6818 16.5218 18.326C15.6935 18.123 15.102 17.5327 14.4475 16.8793C13.3788 15.8153 12.1433 14.5833 9.44483 14.5833Z" stroke="#1E252C" stroke-width="2" stroke-linecap="round" stroke-linejoin="round"/>
</g>
<defs>
<clipPath id="clip0_107_389">
<rect width="28" height="28" fill="white" transform="translate(0.5)"/>
</clipPath>
</defs>
</svg>
