<svg width="29" height="28" viewBox="0 0 29 28" fill="none" xmlns="http://www.w3.org/2000/svg">
<g clip-path="url(#clip0_108_507)">
<path d="M20.3333 11.6667C20.3333 11.6667 18.728 15.8737 18.5833 16.3333C18.5297 15.8667 16.8333 7 16.8333 7C13.7685 7 12.4397 8.82233 11.5833 11.0833C11.5833 11.0833 9.43317 16.4418 9.25 16.9167C9.23483 16.4873 8.66667 11.6667 8.66667 11.6667C8.49167 8.9005 6.08717 7.02333 4 7.02333L6.33333 22.1667C9.53583 22.1515 11.84 20.3443 12.75 18.0833C12.75 18.0833 14.43 13.0667 14.5 12.8333C14.5152 13.0433 15.6667 22.1667 15.6667 22.1667C18.8843 22.1667 21.143 20.2697 22.0833 18.0833L26.1667 7C22.9793 7 21.2048 9.3975 20.3333 11.6667Z" stroke="#1E252C" stroke-width="2" stroke-linecap="round" stroke-linejoin="round"/>
</g>
<defs>
<clipPath id="clip0_108_507">
<rect width="28" height="28" fill="white" transform="translate(0.5)"/>
</clipPath>
</defs>
</svg>
